<svg width="16" height="18" viewBox="0 0 16 18" fill="none" xmlns="http://www.w3.org/2000/svg">
<path d="M8.5 9.5752C8.5 9.98941 8.16421 10.3252 7.75 10.3252C7.33579 10.3252 7 9.98941 7 9.5752C7 9.16098 7.33579 8.8252 7.75 8.8252C8.16421 8.8252 8.5 9.16098 8.5 9.5752Z" fill="#1E1E1E"/>
<path d="M7.75 14.3252C8.16421 14.3252 8.5 13.9894 8.5 13.5752C8.5 13.161 8.16421 12.8252 7.75 12.8252C7.33579 12.8252 7 13.161 7 13.5752C7 13.9894 7.33579 14.3252 7.75 14.3252Z" fill="#1E1E1E"/>
<path d="M4.5 13.5752C4.5 13.9894 4.16421 14.3252 3.75 14.3252C3.33579 14.3252 3 13.9894 3 13.5752C3 13.161 3.33579 12.8252 3.75 12.8252C4.16421 12.8252 4.5 13.161 4.5 13.5752Z" fill="#1E1E1E"/>
<path d="M11.75 10.3252C12.1642 10.3252 12.5 9.98941 12.5 9.5752C12.5 9.16098 12.1642 8.8252 11.75 8.8252C11.3358 8.8252 11 9.16098 11 9.5752C11 9.98941 11.3358 10.3252 11.75 10.3252Z" fill="#1E1E1E"/>
<path fill-rule="evenodd" clip-rule="evenodd" d="M4.14998 0.824805C4.14998 0.46582 3.85896 0.174805 3.49998 0.174805C3.14099 0.174805 2.84998 0.46582 2.84998 0.824805V1.8252H1C0.447715 1.8252 0 2.27291 0 2.8252V16.8252C0 17.3775 0.447715 17.8252 1 17.8252H15C15.5523 17.8252 16 17.3775 16 16.8252V2.8252C16 2.27291 15.5523 1.8252 15 1.8252H13.15V0.824805C13.15 0.46582 12.859 0.174805 12.5 0.174805C12.141 0.174805 11.85 0.46582 11.85 0.824805V1.8252H4.14998V0.824805ZM1.3 6.9748V16.5252H14.7V6.9748H1.3ZM14.7 5.6748V3.1252H1.3V5.6748H14.7Z" fill="#1E1E1E"/>
</svg>
