<svg width="66" height="24" viewBox="0 0 66 24" fill="none" xmlns="http://www.w3.org/2000/svg">
<path d="M65.0911 7.45153V11.4178H62.3408V18.1343C62.3408 18.8725 62.7027 19.162 63.4699 19.2055C63.8607 19.2199 64.6713 19.1765 65.2937 19.1186V23.2006C64.7871 23.302 63.9186 23.3888 62.6882 23.4033C58.8812 23.3888 56.8257 21.9558 56.8691 18.6843V11.4178H54.8426V7.45153H56.8691V3.68796H62.3408V7.45153H65.0911Z" fill="black"/>
<path d="M47.4893 23.1717V7.45153H52.9609V23.1717H47.4893Z" fill="black"/>
<path d="M20.4783 23.1717V7.45153H25.6604V10.4045H25.8341C26.4855 8.4648 28.1502 7.24888 30.3215 7.24888C32.5217 7.24888 34.2588 8.49375 34.6062 10.4045H34.7799C35.3299 8.49375 37.1972 7.24888 39.5278 7.24888C42.5241 7.24888 44.5796 9.31884 44.5941 12.5758V23.1717H39.1224V13.9365C39.108 12.5034 38.3118 11.6638 37.1249 11.6494C35.8945 11.6638 35.1417 12.5324 35.1562 13.9365V23.1717H29.9162V13.9075C29.9017 12.5179 29.12 11.6638 27.9186 11.6494C26.7027 11.6638 25.9355 12.5468 25.95 13.9654V23.1717H20.4783Z" fill="black"/>
<path d="M12.5748 8.6964C12.459 7.2923 11.5326 6.45274 9.6508 6.46721C7.84139 6.45274 7.00182 7.1765 6.98735 8.14634C6.94392 9.23199 7.92824 9.82548 9.8824 10.2308L11.6194 10.6361C16.1212 11.5915 18.1333 13.7772 18.1623 17.0052C18.1333 21.1162 14.9777 23.4178 9.67975 23.4322C4.266 23.4178 0.748504 21.0728 0.705078 15.9051H5.97408C6.06093 17.8593 7.40713 18.887 9.59289 18.887C11.4892 18.887 12.5024 18.1198 12.5169 17.0052C12.5024 15.9919 11.6339 15.3985 9.30339 14.8918L7.19 14.4286C3.49881 13.618 1.24066 11.7941 1.25514 8.55165C1.22619 4.58543 4.7292 1.92198 9.6508 1.92198C14.6737 1.92198 17.8438 4.62885 17.8727 8.6964H12.5748Z" fill="black"/>
<path d="M50.2106 0.706055C48.7052 0.706055 47.4748 1.83513 47.4893 3.22475C47.4748 4.62885 48.7052 5.75792 50.2106 5.74345C51.7016 5.75792 52.932 4.62885 52.932 3.22475C52.932 1.83513 51.7016 0.706055 50.2106 0.706055Z" fill="#FF9945"/>
</svg>
