<svg width="72" height="30" viewBox="0 0 72 30" fill="none" xmlns="http://www.w3.org/2000/svg">
<g id="Logo">
<g id="Vector">
<path d="M68.0911 10.4515V14.4178H65.3408V21.1343C65.3408 21.8725 65.7027 22.162 66.4699 22.2055C66.8607 22.2199 67.6713 22.1765 68.2937 22.1186V26.2006C67.7871 26.302 66.9186 26.3888 65.6882 26.4033C61.8812 26.3888 59.8257 24.9558 59.8691 21.6843V14.4178H57.8426V10.4515H59.8691V6.68796H65.3408V10.4515H68.0911Z" fill="white"/>
<path d="M50.4893 26.1717V10.4515H55.9609V26.1717H50.4893Z" fill="white"/>
<path d="M23.4783 26.1717V10.4515H28.6604V13.4045H28.8341C29.4855 11.4648 31.1502 10.2489 33.3215 10.2489C35.5217 10.2489 37.2588 11.4938 37.6062 13.4045H37.7799C38.3299 11.4938 40.1972 10.2489 42.5278 10.2489C45.5241 10.2489 47.5796 12.3188 47.5941 15.5758V26.1717H42.1224V16.9365C42.108 15.5034 41.3118 14.6638 40.1249 14.6494C38.8945 14.6638 38.1417 15.5324 38.1562 16.9365V26.1717H32.9162V16.9075C32.9017 15.5179 32.12 14.6638 30.9186 14.6494C29.7027 14.6638 28.9355 15.5468 28.95 16.9654V26.1717H23.4783Z" fill="white"/>
<path d="M15.5748 11.6964C15.459 10.2923 14.5326 9.45274 12.6508 9.46721C10.8414 9.45274 10.0018 10.1765 9.98735 11.1463C9.94392 12.232 10.9282 12.8255 12.8824 13.2308L14.6194 13.6361C19.1212 14.5915 21.1333 16.7772 21.1623 20.0052C21.1333 24.1162 17.9777 26.4178 12.6797 26.4322C7.26599 26.4178 3.7485 24.0728 3.70508 18.9051H8.97408C9.06093 20.8593 10.4071 21.887 12.5929 21.887C14.4892 21.887 15.5024 21.1198 15.5169 20.0052C15.5024 18.9919 14.6339 18.3985 12.3034 17.8918L10.19 17.4286C6.49881 16.618 4.24066 14.7941 4.25514 11.5517C4.22619 7.58543 7.7292 4.92198 12.6508 4.92198C17.6737 4.92198 20.8438 7.62885 20.8727 11.6964H15.5748Z" fill="white"/>
<path d="M53.2106 3.70605C51.7052 3.70605 50.4748 4.83513 50.4893 6.22475C50.4748 7.62885 51.7052 8.75792 53.2106 8.74345C54.7016 8.75792 55.932 7.62885 55.932 6.22475C55.932 4.83513 54.7016 3.70605 53.2106 3.70605Z" fill="#FF9945"/>
</g>
</g>
</svg>
