<svg width="639" height="231" viewBox="0 0 639 231" fill="none" xmlns="http://www.w3.org/2000/svg">
<g clip-path="url(#clip0_4030_34282)">
<path d="M233.04 0.216213C233.324 0.0740248 233.638 0 233.956 0H405.021C405.339 0 405.652 0.0740251 405.937 0.216213L425.984 10.24H212.992L233.04 0.216213Z" fill="url(#paint0_linear_4030_34282)"/>
<mask id="path-2-inside-1_4030_34282" fill="white">
<path d="M212.992 10.2402H425.984V550.912H212.992V10.2402Z"/>
</mask>
<path d="M212.992 10.2402H425.984V550.912H212.992V10.2402Z" fill="url(#paint1_linear_4030_34282)"/>
<path d="M212.992 12.2882H425.984V8.19223H212.992V12.2882Z" fill="white" mask="url(#path-2-inside-1_4030_34282)"/>
<path d="M34.5331 53.3313C34.7207 53.2761 34.9153 53.248 35.1109 53.248H212.992V63.488H0L34.5331 53.3313Z" fill="url(#paint2_linear_4030_34282)"/>
<mask id="path-5-inside-2_4030_34282" fill="white">
<path d="M0 63.4883H212.992V550.912H0V63.4883Z"/>
</mask>
<path d="M0 63.4883H212.992V550.912H0V63.4883Z" fill="url(#paint3_linear_4030_34282)"/>
<path d="M0 65.5363H212.992V61.4403H0V65.5363Z" fill="white" mask="url(#path-5-inside-2_4030_34282)"/>
<path d="M425.984 86.0166H605.896C606.103 86.0166 606.309 86.048 606.507 86.1098L638.976 96.2566H425.984V86.0166Z" fill="url(#paint4_linear_4030_34282)"/>
<mask id="path-8-inside-3_4030_34282" fill="white">
<path d="M425.984 96.2568H638.976V550.913H425.984V96.2568Z"/>
</mask>
<path d="M425.984 96.2568H638.976V550.913H425.984V96.2568Z" fill="url(#paint5_linear_4030_34282)"/>
<path d="M425.984 98.3048H638.976V94.2088H425.984V98.3048Z" fill="white" mask="url(#path-8-inside-3_4030_34282)"/>
</g>
<defs>
<linearGradient id="paint0_linear_4030_34282" x1="221.184" y1="-10.24" x2="223.085" y2="22.0627" gradientUnits="userSpaceOnUse">
<stop stop-color="white" stop-opacity="0.5"/>
<stop offset="1" stop-color="white" stop-opacity="0.9"/>
</linearGradient>
<linearGradient id="paint1_linear_4030_34282" x1="218.112" y1="10.2402" x2="503.009" y2="174.364" gradientUnits="userSpaceOnUse">
<stop stop-color="white" stop-opacity="0.4"/>
<stop offset="1" stop-color="white" stop-opacity="0.8"/>
</linearGradient>
<linearGradient id="paint2_linear_4030_34282" x1="8.192" y1="43.008" x2="10.0931" y2="75.3108" gradientUnits="userSpaceOnUse">
<stop stop-color="white" stop-opacity="0.5"/>
<stop offset="1" stop-color="white" stop-opacity="0.9"/>
</linearGradient>
<linearGradient id="paint3_linear_4030_34282" x1="5.12001" y1="63.4883" x2="263.38" y2="188.38" gradientUnits="userSpaceOnUse">
<stop stop-color="white" stop-opacity="0.4"/>
<stop offset="1" stop-color="white" stop-opacity="0.8"/>
</linearGradient>
<linearGradient id="paint4_linear_4030_34282" x1="434.176" y1="75.7766" x2="436.077" y2="108.079" gradientUnits="userSpaceOnUse">
<stop stop-color="white" stop-opacity="0.5"/>
<stop offset="1" stop-color="white" stop-opacity="0.9"/>
</linearGradient>
<linearGradient id="paint5_linear_4030_34282" x1="431.104" y1="96.2568" x2="641.484" y2="253.146" gradientUnits="userSpaceOnUse">
<stop stop-color="white" stop-opacity="0.4"/>
<stop offset="1" stop-color="white" stop-opacity="0.8"/>
</linearGradient>
<clipPath id="clip0_4030_34282">
<rect width="638.98" height="231" fill="white"/>
</clipPath>
</defs>
</svg>
