<svg width="755" height="800" viewBox="0 0 755 800" fill="none" xmlns="http://www.w3.org/2000/svg">
<g clip-path="url(#clip0_3801_18288)">
<path d="M70.175 4.73581L210.344 -84.0045L570.255 344.707L303.735 513.439L70.175 4.73581Z" fill="url(#paint0_linear_3801_18288)" fill-opacity="0.4"/>
<path d="M87.3648 -8.08551L191.407 -73.9537L535.91 366.45L338.084 491.692L87.3648 -8.08551Z" fill="url(#paint1_linear_3801_18288)" fill-opacity="0.4"/>
<path d="M274.414 397.057C274.548 397.019 274.686 397 274.825 397H481.175C481.314 397 481.452 397.019 481.586 397.057L506 404H250L274.414 397.057Z" fill="url(#paint2_linear_3801_18288)"/>
<mask id="path-4-inside-1_3801_18288" fill="white">
<path d="M250 404H506V800H250V404Z"/>
</mask>
<path d="M250 404H506V800H250V404Z" fill="url(#paint3_linear_3801_18288)"/>
<path d="M250 405.5H506V402.5H250V405.5Z" fill="white" mask="url(#path-4-inside-1_3801_18288)"/>
<path d="M35.7233 436.021C35.805 436.007 35.8878 436 35.9707 436H250V443H-6L35.7233 436.021Z" fill="url(#paint4_linear_3801_18288)"/>
<mask id="path-7-inside-2_3801_18288" fill="white">
<path d="M-6 443H250V800.5H-6V443Z"/>
</mask>
<path d="M-6 443H250V800.5H-6V443Z" fill="url(#paint5_linear_3801_18288)"/>
<path d="M-6 444.5H250V441.5H-6V444.5Z" fill="white" mask="url(#path-7-inside-2_3801_18288)"/>
<path d="M506 460H722.483C722.571 460 722.659 460.008 722.746 460.023L762 467H506V460Z" fill="url(#paint6_linear_3801_18288)"/>
<mask id="path-10-inside-3_3801_18288" fill="white">
<path d="M506 467H762V800.5H506V467Z"/>
</mask>
<path d="M506 467H762V800.5H506V467Z" fill="url(#paint7_linear_3801_18288)"/>
<path d="M506 468.5H762V465.5H506V468.5Z" fill="white" mask="url(#path-10-inside-3_3801_18288)"/>
<path d="M444.536 253.721L446.875 258.887L452.056 261.221L446.875 263.554L444.536 268.721L442.196 263.554L437.016 261.221L442.196 258.887L444.536 253.721Z" fill="white"/>
<path d="M428.02 351.879L430.36 357.045L435.54 359.379L430.36 361.712L428.02 366.879L425.68 361.712L420.5 359.379L425.68 357.045L428.02 351.879Z" fill="white"/>
<path d="M295.032 285.271L298.776 293.538L307.064 297.271L298.776 301.005L295.032 309.271L291.289 301.005L283 297.271L291.289 293.538L295.032 285.271Z" fill="white"/>
<ellipse cx="3.00705" cy="3.001" rx="3.00705" ry="3.001" transform="matrix(0.93629 -0.351228 0.35288 0.935669 465.25 292.714)" fill="white"/>
<ellipse cx="1.50352" cy="1.5005" rx="1.50352" ry="1.5005" transform="matrix(0.93629 -0.351228 0.35288 0.935669 462.629 311.326)" fill="white"/>
<ellipse cx="3.00705" cy="3.001" rx="3.00705" ry="3.001" transform="matrix(0.93629 -0.351228 0.35288 0.935669 296.133 342.8)" fill="white"/>
<ellipse cx="1.12764" cy="1.12537" rx="1.12764" ry="1.12537" transform="matrix(0.93629 -0.351228 0.35288 0.935669 324.684 375.895)" fill="white"/>
<ellipse cx="1.12764" cy="1.12537" rx="1.12764" ry="1.12537" transform="matrix(0.93629 -0.351228 0.35288 0.935669 427.477 250.792)" fill="white"/>
<ellipse cx="1.50352" cy="1.5005" rx="1.50352" ry="1.5005" transform="matrix(0.93629 -0.351228 0.35288 0.935669 307.199 328.935)" fill="white"/>
</g>
<defs>
<linearGradient id="paint0_linear_3801_18288" x1="140.26" y1="-39.6344" x2="436.995" y2="429.073" gradientUnits="userSpaceOnUse">
<stop stop-color="white"/>
<stop offset="1" stop-color="white" stop-opacity="0"/>
</linearGradient>
<linearGradient id="paint1_linear_3801_18288" x1="139.386" y1="-41.0196" x2="436.997" y2="429.071" gradientUnits="userSpaceOnUse">
<stop stop-color="white"/>
<stop offset="1" stop-color="white" stop-opacity="0"/>
</linearGradient>
<linearGradient id="paint2_linear_3801_18288" x1="259.846" y1="390" x2="260.587" y2="412.134" gradientUnits="userSpaceOnUse">
<stop stop-color="white" stop-opacity="0.5"/>
<stop offset="1" stop-color="white" stop-opacity="0.9"/>
</linearGradient>
<linearGradient id="paint3_linear_3801_18288" x1="256.154" y1="404" x2="496.985" y2="631.672" gradientUnits="userSpaceOnUse">
<stop stop-color="white" stop-opacity="0.4"/>
<stop offset="1" stop-color="white" stop-opacity="0.8"/>
</linearGradient>
<linearGradient id="paint4_linear_3801_18288" x1="3.84615" y1="429" x2="4.587" y2="451.134" gradientUnits="userSpaceOnUse">
<stop stop-color="white" stop-opacity="0.5"/>
<stop offset="1" stop-color="white" stop-opacity="0.9"/>
</linearGradient>
<linearGradient id="paint5_linear_3801_18288" x1="0.153855" y1="443" x2="235.411" y2="629.434" gradientUnits="userSpaceOnUse">
<stop stop-color="white" stop-opacity="0.4"/>
<stop offset="1" stop-color="white" stop-opacity="0.8"/>
</linearGradient>
<linearGradient id="paint6_linear_3801_18288" x1="515.846" y1="453" x2="516.587" y2="475.134" gradientUnits="userSpaceOnUse">
<stop stop-color="white" stop-opacity="0.5"/>
<stop offset="1" stop-color="white" stop-opacity="0.9"/>
</linearGradient>
<linearGradient id="paint7_linear_3801_18288" x1="512.154" y1="467" x2="669.979" y2="659.855" gradientUnits="userSpaceOnUse">
<stop stop-color="white" stop-opacity="0.4"/>
<stop offset="1" stop-color="white" stop-opacity="0.8"/>
</linearGradient>
<clipPath id="clip0_3801_18288">
<rect width="755" height="800" fill="white"/>
</clipPath>
</defs>
</svg>
