<svg width="375" height="489" viewBox="0 0 375 489" fill="none" xmlns="http://www.w3.org/2000/svg">
<g clip-path="url(#clip0_3826_26281)">
<path d="M240.5 144L241.278 145.722L243 146.5L241.278 147.278L240.5 149L239.722 147.278L238 146.5L239.722 145.722L240.5 144Z" fill="white"/>
<path d="M139 130L140.245 132.755L143 134L140.245 135.245L139 138L137.755 135.245L135 134L137.755 132.755L139 130Z" fill="white"/>
<circle cx="248" cy="173" r="1" fill="white"/>
<circle cx="241" cy="183" r="1" fill="white"/>
<circle cx="132" cy="172" r="1" fill="white"/>
<circle cx="125.5" cy="194.5" r="0.5" fill="white"/>
<circle cx="135.5" cy="201.5" r="0.5" fill="white"/>
<path d="M-23.3706 -15.8311L61.8185 -69.7637L280.557 190.789L118.578 293.337L-23.3706 -15.8311Z" fill="url(#paint0_linear_3826_26281)" fill-opacity="0.4"/>
<path d="M-12.9228 -23.6236L50.3094 -63.6555L259.684 204.003L139.454 280.12L-12.9228 -23.6236Z" fill="url(#paint1_linear_3826_26281)" fill-opacity="0.4"/>
</g>
<defs>
<linearGradient id="paint0_linear_3826_26281" x1="19.224" y1="-42.7974" x2="199.567" y2="242.063" gradientUnits="userSpaceOnUse">
<stop stop-color="white"/>
<stop offset="1" stop-color="white" stop-opacity="0"/>
</linearGradient>
<linearGradient id="paint1_linear_3826_26281" x1="18.6933" y1="-43.6395" x2="199.569" y2="242.062" gradientUnits="userSpaceOnUse">
<stop stop-color="white"/>
<stop offset="1" stop-color="white" stop-opacity="0"/>
</linearGradient>
<clipPath id="clip0_3826_26281">
<rect width="375" height="489" fill="white"/>
</clipPath>
</defs>
</svg>
