<svg width="1920" height="800" viewBox="0 0 1920 800" fill="none" xmlns="http://www.w3.org/2000/svg">
<g clip-path="url(#clip0_3826_19320)">
<path d="M1926.23 639C1933.11 621.997 1936.89 603.413 1936.89 583.946C1936.89 502.79 1871.1 437 1789.95 437C1766.03 437 1743.45 442.714 1723.49 452.85C1699.76 430.03 1667.52 416 1632 416C1559.7 416 1500.98 474.124 1500.01 546.192C1470.21 547.648 1442.56 557.315 1419.29 572.979C1398.92 547.972 1367.88 532 1333.11 532C1273.12 532 1224.23 579.54 1222.07 639H1198V1023.69H2110.74V639H1926.23Z" fill="url(#paint0_linear_3826_19320)" fill-opacity="0.4"/>
<path d="M-192.5 843C-98.006 843 -16.7351 786.385 19.2424 705.224C31.3388 709.741 44.4337 712.211 58.1053 712.211C62.3055 712.211 66.4512 711.978 70.5302 711.524C98.0126 761.177 148.154 796.546 207 803.676V974H565V748.79C617.462 738.336 657 692.035 657 636.5C657 573.263 605.737 522 542.5 522C508.064 522 477.178 537.202 456.188 561.261C436.744 551.546 414.972 545.797 391.933 545.077C362.611 484.656 300.67 443 229 443C178.091 443 132.091 464.018 99.2041 497.849C86.4915 492.785 72.6236 490 58.1053 490C41.1647 490 25.1096 493.791 10.7423 500.572C-28.554 428.726 -104.837 380 -192.5 380C-320.354 380 -424 483.646 -424 611.5C-424 739.354 -320.354 843 -192.5 843Z" fill="url(#paint1_linear_3826_19320)" fill-opacity="0.4"/>
<path d="M652.175 4.73581L792.344 -84.0045L1152.25 344.707L885.735 513.439L652.175 4.73581Z" fill="url(#paint2_linear_3826_19320)" fill-opacity="0.4"/>
<path d="M669.365 -8.08551L773.407 -73.9537L1117.91 366.45L920.084 491.692L669.365 -8.08551Z" fill="url(#paint3_linear_3826_19320)" fill-opacity="0.4"/>
<path d="M1015.54 253.721L1017.88 258.887L1023.06 261.221L1017.88 263.554L1015.54 268.721L1013.2 263.554L1008.02 261.221L1013.2 258.887L1015.54 253.721Z" fill="white"/>
<path d="M999.02 351.879L1001.36 357.045L1006.54 359.379L1001.36 361.712L999.02 366.879L996.68 361.712L991.5 359.379L996.68 357.045L999.02 351.879Z" fill="white"/>
<path d="M866.032 285.271L869.776 293.538L878.064 297.271L869.776 301.005L866.032 309.271L862.289 301.005L854 297.271L862.289 293.538L866.032 285.271Z" fill="white"/>
<ellipse cx="3.00705" cy="3.001" rx="3.00705" ry="3.001" transform="matrix(0.93629 -0.351228 0.35288 0.935669 1036.25 292.714)" fill="white"/>
<ellipse cx="1.50352" cy="1.5005" rx="1.50352" ry="1.5005" transform="matrix(0.93629 -0.351228 0.35288 0.935669 1033.63 311.326)" fill="white"/>
<ellipse cx="3.00705" cy="3.001" rx="3.00705" ry="3.001" transform="matrix(0.93629 -0.351228 0.35288 0.935669 867.133 342.8)" fill="white"/>
<ellipse cx="1.12764" cy="1.12537" rx="1.12764" ry="1.12537" transform="matrix(0.93629 -0.351228 0.35288 0.935669 895.684 375.895)" fill="white"/>
<ellipse cx="1.12764" cy="1.12537" rx="1.12764" ry="1.12537" transform="matrix(0.93629 -0.351228 0.35288 0.935669 998.477 250.792)" fill="white"/>
<ellipse cx="1.50352" cy="1.5005" rx="1.50352" ry="1.5005" transform="matrix(0.93629 -0.351228 0.35288 0.935669 878.199 328.935)" fill="white"/>
</g>
<defs>
<linearGradient id="paint0_linear_3826_19320" x1="843.368" y1="325" x2="843.368" y2="724" gradientUnits="userSpaceOnUse">
<stop stop-color="white"/>
<stop offset="1" stop-color="white" stop-opacity="0"/>
</linearGradient>
<linearGradient id="paint1_linear_3826_19320" x1="843.368" y1="325" x2="843.368" y2="724" gradientUnits="userSpaceOnUse">
<stop stop-color="white"/>
<stop offset="1" stop-color="white" stop-opacity="0"/>
</linearGradient>
<linearGradient id="paint2_linear_3826_19320" x1="722.26" y1="-39.6344" x2="1019" y2="429.073" gradientUnits="userSpaceOnUse">
<stop stop-color="white"/>
<stop offset="1" stop-color="white" stop-opacity="0"/>
</linearGradient>
<linearGradient id="paint3_linear_3826_19320" x1="721.386" y1="-41.0196" x2="1019" y2="429.071" gradientUnits="userSpaceOnUse">
<stop stop-color="white"/>
<stop offset="1" stop-color="white" stop-opacity="0"/>
</linearGradient>
<clipPath id="clip0_3826_19320">
<rect width="1920" height="800" fill="white"/>
</clipPath>
</defs>
</svg>
