<svg width="20" height="20" viewBox="0 0 20 20" fill="none" xmlns="http://www.w3.org/2000/svg">
<g id="icon/arrow chart lined">
<path id="Vector 951 (Stroke)" fill-rule="evenodd" clip-rule="evenodd" d="M11.6666 7.20833C11.3675 7.20833 11.125 6.96582 11.125 6.66667C11.125 6.36751 11.3675 6.125 11.6666 6.125H16.6666C16.9658 6.125 17.2083 6.36751 17.2083 6.66667V11.6667C17.2083 11.9658 16.9658 12.2083 16.6666 12.2083C16.3675 12.2083 16.125 11.9658 16.125 11.6667V7.97437L10.7996 13.2997C10.5881 13.5112 10.2451 13.5112 10.0336 13.2997L7.49996 10.766L3.71631 14.5497C3.50477 14.7612 3.16181 14.7612 2.95028 14.5497C2.73874 14.3381 2.73874 13.9952 2.95028 13.7836L7.11694 9.61698C7.32848 9.40545 7.67144 9.40545 7.88298 9.61698L10.4166 12.1506L15.3589 7.20833H11.6666Z" fill="#666666"/>
</g>
</svg>
