<svg width="20" height="20" viewBox="0 0 20 20" fill="none" xmlns="http://www.w3.org/2000/svg">
<path fill-rule="evenodd" clip-rule="evenodd" d="M11.6667 7.20833C11.3675 7.20833 11.125 6.96582 11.125 6.66667C11.125 6.36751 11.3675 6.125 11.6667 6.125H16.6667C16.9658 6.125 17.2084 6.36751 17.2084 6.66667V11.6667C17.2084 11.9658 16.9658 12.2083 16.6667 12.2083C16.3675 12.2083 16.125 11.9658 16.125 11.6667V7.97437L10.7997 13.2997C10.5882 13.5112 10.2452 13.5112 10.0337 13.2997L7.50002 10.766L3.71637 14.5497C3.50484 14.7612 3.16187 14.7612 2.95034 14.5497C2.7388 14.3381 2.7388 13.9952 2.95034 13.7836L7.117 9.61698C7.32854 9.40545 7.6715 9.40545 7.88304 9.61698L10.4167 12.1506L15.359 7.20833H11.6667Z" fill="#666666"/>
</svg>
