<svg width="32" height="24" viewBox="0 0 32 24" fill="none" xmlns="http://www.w3.org/2000/svg">
<g id="icon/arrow-right" clip-path="url(#clip0_1633_9630)">
<path id="Vector 940 (Stroke)" fill-rule="evenodd" clip-rule="evenodd" d="M8.74825 11.1807C8.49441 10.9268 8.49441 10.5153 8.74825 10.2614L15.8193 3.19038C16.0732 2.93654 16.4847 2.93654 16.7386 3.19038L23.8096 10.2614C24.0635 10.5153 24.0635 10.9268 23.8096 11.1807C23.5558 11.4345 23.1442 11.4345 22.8904 11.1807L16.9289 5.21924L16.9275 20.4848C16.9275 20.8438 16.6365 21.1348 16.2775 21.1348C15.9186 21.1348 15.6275 20.8438 15.6275 20.4848L15.6289 5.21924L9.66749 11.1807C9.41365 11.4345 9.00209 11.4345 8.74825 11.1807Z" fill="black"/>
</g>
<defs>
<clipPath id="clip0_1633_9630">
<rect width="24" height="32" fill="white" transform="matrix(0 1 1 0 0 0)"/>
</clipPath>
</defs>
</svg>
