<svg width="24" height="24" viewBox="0 0 24 24" fill="none" xmlns="http://www.w3.org/2000/svg">
<g id="icon/book lined">
<path id="Vector 925 (Stroke)" fill-rule="evenodd" clip-rule="evenodd" d="M11.35 7.12831L10.5491 6.72787C8.94441 5.92551 6.55559 5.92558 4.95088 6.72794L4.8 6.80338V17.9308C6.74406 17.1707 9.43118 17.262 11.3168 18.2048L11.35 18.2214V7.12831ZM12.65 18.2214V7.12831L13.4509 6.72787C15.0556 5.92552 17.3953 6.00096 19 6.80331L19.1509 6.87875V18.0062C17.2068 17.2461 14.5688 17.262 12.6832 18.2048L12.65 18.2214ZM13.2646 19.3676C14.9866 18.5066 17.4643 18.582 19.1863 19.443C19.7673 19.7335 20.4509 19.311 20.4509 18.6615V6.69334C20.4509 6.31457 20.2369 5.96831 19.8981 5.79891L19.5814 5.64055C17.6107 4.65521 14.8402 4.57977 12.8695 5.56511L12 5.99987L11.1305 5.56511C9.1598 4.57977 6.3402 4.57984 4.36951 5.56518L4.05279 5.72354C3.714 5.89293 3.5 6.2392 3.5 6.61797V18.5861C3.5 19.2357 4.18358 19.6581 4.76457 19.3676C6.48656 18.5066 9.01343 18.5066 10.7354 19.3676L12 19.9999L13.2646 19.3676Z" fill="black"/>
</g>
</svg>
