<svg width="24" height="24" viewBox="0 0 24 24" fill="none" xmlns="http://www.w3.org/2000/svg">
<path d="M12.5 12.5762C12.5 12.9904 12.1642 13.3262 11.75 13.3262C11.3358 13.3262 11 12.9904 11 12.5762C11 12.162 11.3358 11.8262 11.75 11.8262C12.1642 11.8262 12.5 12.162 12.5 12.5762Z" fill="#808080"/>
<path d="M11.75 17.3262C12.1642 17.3262 12.5 16.9904 12.5 16.5762C12.5 16.162 12.1642 15.8262 11.75 15.8262C11.3358 15.8262 11 16.162 11 16.5762C11 16.9904 11.3358 17.3262 11.75 17.3262Z" fill="#808080"/>
<path d="M8.5 16.5762C8.5 16.9904 8.16421 17.3262 7.75 17.3262C7.33579 17.3262 7 16.9904 7 16.5762C7 16.162 7.33579 15.8262 7.75 15.8262C8.16421 15.8262 8.5 16.162 8.5 16.5762Z" fill="#808080"/>
<path d="M15.75 13.3262C16.1642 13.3262 16.5 12.9904 16.5 12.5762C16.5 12.162 16.1642 11.8262 15.75 11.8262C15.3358 11.8262 15 12.162 15 12.5762C15 12.9904 15.3358 13.3262 15.75 13.3262Z" fill="#808080"/>
<path fill-rule="evenodd" clip-rule="evenodd" d="M8.14998 3.82578C8.14998 3.4668 7.85896 3.17578 7.49998 3.17578C7.14099 3.17578 6.84998 3.4668 6.84998 3.82578V4.82617H5C4.44772 4.82617 4 5.27389 4 5.82617V19.8262C4 20.3785 4.44772 20.8262 5 20.8262H19C19.5523 20.8262 20 20.3785 20 19.8262V5.82617C20 5.27389 19.5523 4.82617 19 4.82617H17.15V3.82578C17.15 3.4668 16.859 3.17578 16.5 3.17578C16.141 3.17578 15.85 3.4668 15.85 3.82578V4.82617H8.14998V3.82578ZM5.3 9.97578V19.5262H18.7V9.97578H5.3ZM18.7 8.67578V6.12617H5.3V8.67578H18.7Z" fill="#B3B3B3"/>
</svg>
