<svg width="36" height="36" viewBox="0 0 36 36" fill="none" xmlns="http://www.w3.org/2000/svg">
<g filter="url(#filter0_b_1008_18968)">
<rect x="36" y="36" width="36" height="36" rx="18" transform="rotate(-180 36 36)" fill="black" fill-opacity="0.2"/>
<path fill-rule="evenodd" clip-rule="evenodd" d="M12.5254 17.9996C12.5254 17.741 12.6281 17.493 12.811 17.3102L20.311 9.81018C20.6917 9.42942 21.3091 9.42942 21.6898 9.81018C22.0706 10.1909 22.0706 10.8083 21.6898 11.189L14.8792 17.9996L21.6898 24.8102C22.0706 25.1909 22.0706 25.8083 21.6898 26.189C21.3091 26.5698 20.6917 26.5698 20.311 26.189L12.811 18.689C12.6281 18.5062 12.5254 18.2582 12.5254 17.9996Z" fill="white"/>
</g>
<defs>
<filter id="filter0_b_1008_18968" x="-20" y="-20" width="76" height="76" filterUnits="userSpaceOnUse" color-interpolation-filters="sRGB">
<feFlood flood-opacity="0" result="BackgroundImageFix"/>
<feGaussianBlur in="BackgroundImageFix" stdDeviation="10"/>
<feComposite in2="SourceAlpha" operator="in" result="effect1_backgroundBlur_1008_18968"/>
<feBlend mode="normal" in="SourceGraphic" in2="effect1_backgroundBlur_1008_18968" result="shape"/>
</filter>
</defs>
</svg>
