<svg width="20" height="20" viewBox="0 0 20 20" fill="none" xmlns="http://www.w3.org/2000/svg">
<g id="icon/bar chart filled">
<g id="Union">
<path d="M8.12341 4.37533C8.12341 3.91509 8.49651 3.54199 8.95675 3.54199H11.0433C11.5036 3.54199 11.8766 3.91509 11.8766 4.37533V15.6253C11.8766 16.0856 11.5036 16.4587 11.0433 16.4587H8.95675C8.49651 16.4587 8.12341 16.0856 8.12341 15.6253V4.37533Z" fill="#666666"/>
<path d="M3.33337 12.0446C3.33337 11.5844 3.70647 11.2113 4.16671 11.2113H6.25328C6.71351 11.2113 7.08661 11.5844 7.08661 12.0446V15.6253C7.08661 16.0856 6.71351 16.4587 6.25328 16.4587H4.16671C3.70647 16.4587 3.33337 16.0856 3.33337 15.6253V12.0446Z" fill="#666666"/>
<path d="M13.7468 8.38574C13.2865 8.38574 12.9135 8.75884 12.9135 9.21908V15.6253C12.9135 16.0856 13.2865 16.4587 13.7468 16.4587H15.8334C16.2936 16.4587 16.6667 16.0856 16.6667 15.6253V9.21908C16.6667 8.75884 16.2936 8.38574 15.8334 8.38574H13.7468Z" fill="#666666"/>
</g>
</g>
</svg>
