<svg width="14" height="14" viewBox="0 0 14 14" fill="none" xmlns="http://www.w3.org/2000/svg">
<g id="Frame 1000010325">
<path id="Vector (Stroke)" fill-rule="evenodd" clip-rule="evenodd" d="M2.19748 2.19724C3.47117 0.923556 5.19866 0.208008 6.99992 0.208008C8.80118 0.208008 10.5287 0.923556 11.8024 2.19724C13.076 3.47093 13.7916 5.19841 13.7916 6.99967C13.7916 7.89157 13.6159 8.77473 13.2746 9.59873C12.9333 10.4227 12.433 11.1714 11.8024 11.8021C11.1717 12.4328 10.423 12.933 9.59898 13.2744C8.77497 13.6157 7.89181 13.7913 6.99992 13.7913C6.10802 13.7913 5.22486 13.6157 4.40086 13.2744C3.57686 12.933 2.82815 12.4328 2.19748 11.8021C1.56682 11.1714 1.06655 10.4227 0.725237 9.59873C0.383924 8.77473 0.208252 7.89157 0.208252 6.99967C0.208252 5.19841 0.9238 3.47093 2.19748 2.19724ZM6.99992 1.29134C5.48597 1.29134 4.03404 1.89275 2.96352 2.96327C1.893 4.03379 1.29159 5.48573 1.29159 6.99967C1.29159 7.7493 1.43924 8.49159 1.72611 9.18416C2.01298 9.87673 2.43345 10.506 2.96352 11.0361C3.49359 11.5661 4.12287 11.9866 4.81543 12.2735C5.508 12.5604 6.25029 12.708 6.99992 12.708C7.74955 12.708 8.49184 12.5604 9.1844 12.2735C9.87697 11.9866 10.5063 11.5661 11.0363 11.0361C11.5664 10.506 11.9869 9.87673 12.2737 9.18416C12.5606 8.49159 12.7083 7.7493 12.7083 6.99967C12.7083 5.48573 12.1068 4.03379 11.0363 2.96327C9.9658 1.89275 8.51386 1.29134 6.99992 1.29134ZM6.99992 2.98579C7.29907 2.98579 7.54158 3.2283 7.54158 3.52745V6.77531L9.46627 8.69999C9.6778 8.91152 9.6778 9.25449 9.46627 9.46602C9.25473 9.67756 8.91177 9.67756 8.70024 9.46602L6.6169 7.38269C6.51532 7.28111 6.45825 7.14333 6.45825 6.99967V3.52745C6.45825 3.2283 6.70076 2.98579 6.99992 2.98579Z" fill="white"/>
</g>
</svg>
