<svg width="22" height="22" viewBox="0 0 22 22" fill="none" xmlns="http://www.w3.org/2000/svg">
<path fill-rule="evenodd" clip-rule="evenodd" d="M0.503217 0.502728C0.915708 0.0902366 1.58449 0.0902365 1.99698 0.502728L11.0001 9.50585L20.0032 0.502732C20.4157 0.090241 21.0845 0.090241 21.497 0.502732C21.9095 0.915224 21.9095 1.584 21.497 1.9965L12.4939 10.9996L21.497 20.0027C21.9095 20.4152 21.9095 21.084 21.497 21.4965C21.0845 21.909 20.4157 21.909 20.0032 21.4965L11.0001 12.4934L1.99698 21.4965C1.58449 21.909 0.915707 21.909 0.503216 21.4965C0.0907248 21.084 0.0907249 20.4152 0.503216 20.0027L9.50634 10.9996L0.503217 1.99649C0.0907259 1.584 0.0907259 0.915219 0.503217 0.502728Z" fill="black"/>
</svg>
