<svg width="20" height="20" viewBox="0 0 20 20" fill="none" xmlns="http://www.w3.org/2000/svg">
<g id="icon/comment lined">
<path id="Union (Stroke)" fill-rule="evenodd" clip-rule="evenodd" d="M4.99004 5.15354C4.62824 5.15354 4.33493 5.44234 4.33493 5.79859V11.8697C4.33493 12.2259 4.62824 12.5147 4.99004 12.5147H6.53147C6.80814 12.5147 7.03243 12.7355 7.03243 13.008V15.4896L9.52632 12.6832C9.62145 12.5761 9.75888 12.5147 9.90334 12.5147H15.0093C15.3711 12.5147 15.6644 12.2259 15.6644 11.8697V5.79859C15.6644 5.44234 15.3711 5.15354 15.0093 5.15354H4.99004ZM3.33301 5.79859C3.33301 4.89748 4.07489 4.16699 4.99004 4.16699H15.0093C15.9245 4.16699 16.6663 4.89748 16.6663 5.79859V11.8697C16.6663 12.7708 15.9245 13.5012 15.0093 13.5012H10.1307L7.58385 16.3672C7.04493 16.9737 6.0305 16.5984 6.0305 15.7925V13.5012H4.99004C4.07489 13.5012 3.33301 12.7708 3.33301 11.8697V5.79859Z" fill="#999999"/>
</g>
</svg>
