<svg width="24" height="24" viewBox="0 0 24 24" fill="none" xmlns="http://www.w3.org/2000/svg">
<g id="icon/comment lined">
<path id="Union (Stroke)" fill-rule="evenodd" clip-rule="evenodd" d="M5.98844 6.18386C5.55427 6.18386 5.20231 6.53042 5.20231 6.95792V14.2432C5.20231 14.6707 5.55427 15.0173 5.98844 15.0173H7.83815C8.17016 15.0173 8.43931 15.2823 8.43931 15.6092V18.5871L11.432 15.2194C11.5461 15.0909 11.711 15.0173 11.8844 15.0173H18.0116C18.4457 15.0173 18.7977 14.6707 18.7977 14.2432V6.95792C18.7977 6.53042 18.4457 6.18386 18.0116 6.18386H5.98844ZM4 6.95792C4 5.87659 4.89025 5 5.98844 5H18.0116C19.1097 5 20 5.87659 20 6.95792V14.2432C20 15.3245 19.1097 16.2011 18.0116 16.2011H12.1572L9.10101 19.6403C8.45431 20.368 7.23699 19.9176 7.23699 18.9506V16.2011H5.98844C4.89025 16.2011 4 15.3245 4 14.2432V6.95792Z" fill="#B3B3B3"/>
</g>
</svg>
