<svg width="16" height="16" viewBox="0 0 16 16" fill="none" xmlns="http://www.w3.org/2000/svg">
<g id="icon/crown filled">
<g id="Subtract">
<path d="M8.41598 4.05588C8.2181 3.75872 7.78151 3.75872 7.58363 4.05588L5.81177 6.71677C5.64912 6.96103 5.31207 7.01336 5.08303 6.8299L3.48085 5.54666C3.11503 5.25366 2.58336 5.57978 2.67874 6.03866L3.51346 10.0549L12.4861 10.0549L13.3209 6.03866C13.4162 5.57978 12.8846 5.25366 12.5188 5.54666L10.9166 6.82991C10.6875 7.01336 10.3505 6.96103 10.1878 6.71677L8.41598 4.05588Z" fill="#FF9945"/>
<path d="M12.306 10.9216L3.69358 10.9216L3.86975 11.7692C3.91796 12.0012 4.12236 12.1674 4.35929 12.1674H11.6403C11.8772 12.1674 12.0816 12.0012 12.1299 11.7692L12.306 10.9216Z" fill="#FF9945"/>
</g>
</g>
</svg>
