<svg width="24" height="24" viewBox="0 0 24 24" fill="none" xmlns="http://www.w3.org/2000/svg">
<path fill-rule="evenodd" clip-rule="evenodd" d="M6.5001 5.15059C6.3068 5.15059 6.1501 5.30729 6.1501 5.50059V18.5006C6.1501 18.6939 6.3068 18.8506 6.5001 18.8506H11.0001C11.3591 18.8506 11.6501 19.1416 11.6501 19.5006C11.6501 19.8596 11.3591 20.1506 11.0001 20.1506H6.5001C5.58883 20.1506 4.8501 19.4119 4.8501 18.5006V5.50059C4.8501 4.58932 5.58883 3.85059 6.5001 3.85059H17.0001C17.9114 3.85059 18.6501 4.58932 18.6501 5.50059V10.0006C18.6501 10.3596 18.3591 10.6506 18.0001 10.6506C17.6411 10.6506 17.3501 10.3596 17.3501 10.0006V5.50059C17.3501 5.30729 17.1934 5.15059 17.0001 5.15059H6.5001Z" fill="black"/>
<path fill-rule="evenodd" clip-rule="evenodd" d="M13.4144 20.0649C13.0555 20.0649 12.7644 19.7738 12.7644 19.4149L12.7644 17.0006C12.7644 16.563 12.9383 16.1434 13.2477 15.8339L16.8333 12.2481C17.4777 11.6037 18.5224 11.6037 19.1668 12.2481L20.581 13.6623C21.2254 14.3067 21.2254 15.3514 20.581 15.9957L16.9954 19.5816C16.686 19.891 16.2663 20.0649 15.8286 20.0649L13.4144 20.0649ZM14.0644 18.7649H15.8286C15.9215 18.7649 16.0105 18.728 16.0761 18.6623L19.6618 15.0765C19.7984 14.9398 19.7984 14.7182 19.6618 14.5815L18.2475 13.1673C18.1109 13.0307 17.8892 13.0307 17.7526 13.1673L14.1669 16.7532C14.1013 16.8188 14.0644 16.9078 14.0644 17.0006V18.7649Z" fill="black"/>
</svg>
