<svg width="17" height="18" viewBox="0 0 17 18" fill="none" xmlns="http://www.w3.org/2000/svg">
<g id="Frame 1000010324">
<path id="Union" fill-rule="evenodd" clip-rule="evenodd" d="M13.2323 0.849609C12.7834 0.849609 12.339 0.938015 11.9243 1.10978C11.5097 1.28154 11.1329 1.53329 10.8155 1.85067L9.84885 2.81732L9.83693 2.82895L9.82531 2.84086L0.540478 12.1257C0.41858 12.2476 0.350098 12.4129 0.350098 12.5853V16.4996C0.350098 16.8586 0.641113 17.1496 1.0001 17.1496H4.91439C5.08678 17.1496 5.25211 17.0811 5.37401 16.9592L15.649 6.6842C15.9664 6.36683 16.2182 5.99005 16.3899 5.57538C16.5617 5.16071 16.6501 4.71627 16.6501 4.26743C16.6501 3.8186 16.5617 3.37416 16.3899 2.95949C16.2182 2.54482 15.9664 2.16804 15.649 1.85067C15.3317 1.53329 14.9549 1.28154 14.5402 1.10978C14.1255 0.938015 13.6811 0.849609 13.2323 0.849609ZM1.6501 13.1291V15.8496H4.37071L1.6501 13.1291ZM11.2159 3.28871L14.211 6.28377L14.7298 5.76496C14.9265 5.5683 15.0825 5.33484 15.1889 5.07789C15.2953 4.82095 15.3501 4.54555 15.3501 4.26743C15.3501 3.98932 15.2953 3.71392 15.1889 3.45698C15.0825 3.20003 14.9265 2.96657 14.7298 2.76991C14.5331 2.57325 14.2997 2.41725 14.0427 2.31082C13.7858 2.20439 13.5104 2.14961 13.2323 2.14961C12.9542 2.14961 12.6788 2.20439 12.4218 2.31082C12.1649 2.41725 11.9314 2.57325 11.7347 2.76991L11.2159 3.28871Z" fill="white"/>
</g>
</svg>
