<svg width="16" height="16" viewBox="0 0 16 16" fill="none" xmlns="http://www.w3.org/2000/svg">
<path fill-rule="evenodd" clip-rule="evenodd" d="M8.00007 3.10007C5.29387 3.10007 3.10007 5.29387 3.10007 8.00007C3.10007 10.7063 5.29387 12.9001 8.00007 12.9001C10.7063 12.9001 12.9001 10.7063 12.9001 8.00007C12.9001 5.29387 10.7063 3.10007 8.00007 3.10007ZM2.2334 8.00007C2.2334 4.81522 4.81522 2.2334 8.00007 2.2334C11.1849 2.2334 13.7667 4.81522 13.7667 8.00007C13.7667 11.1849 11.1849 13.7667 8.00007 13.7667C4.81522 13.7667 2.2334 11.1849 2.2334 8.00007ZM8.00007 4.90007C8.23939 4.90007 8.4334 5.09408 8.4334 5.3334V8.00007C8.4334 8.23939 8.23939 8.4334 8.00007 8.4334C7.76074 8.4334 7.56673 8.23939 7.56673 8.00007V5.3334C7.56673 5.09408 7.76074 4.90007 8.00007 4.90007ZM8.00007 9.54329C8.23939 9.54329 8.4334 9.7373 8.4334 9.97663V10.0001C8.4334 10.2394 8.23939 10.4334 8.00007 10.4334C7.76074 10.4334 7.56673 10.2394 7.56673 10.0001V9.97663C7.56673 9.7373 7.76074 9.54329 8.00007 9.54329Z" fill="#999999"/>
</svg>
