<svg width="20" height="14" viewBox="0 0 20 14" fill="none" xmlns="http://www.w3.org/2000/svg">
<path fill-rule="evenodd" clip-rule="evenodd" d="M2.19568 7.09435C2.19621 7.09559 2.19674 7.09684 2.19728 7.0981C2.2586 7.24148 2.35475 7.4511 2.49021 7.70514C2.76174 8.21434 3.18763 8.89522 3.80199 9.57784C5.02333 10.9349 6.987 12.3004 10.0108 12.3493C13.0209 12.398 14.9754 11.0399 16.1949 9.66071C16.8087 8.96651 17.2347 8.26719 17.5068 7.74163C17.6425 7.47952 17.7389 7.26255 17.8004 7.11377C17.8026 7.10864 17.8046 7.10358 17.8067 7.09861C17.8044 7.0927 17.802 7.08668 17.7996 7.08054C17.7399 6.9288 17.6461 6.70749 17.5133 6.43983C17.247 5.90316 16.8278 5.18801 16.2184 4.47496C15.0075 3.05824 13.0513 1.65059 10.0003 1.65059C6.94942 1.65059 4.99318 3.05824 3.78232 4.47496C3.17288 5.18801 2.75371 5.90316 2.48744 6.43983C2.35464 6.70749 2.26083 6.9288 2.20109 7.08054C2.19926 7.08521 2.19745 7.08981 2.19568 7.09435ZM18.5003 7.1047C19.12 6.90835 19.1199 6.90803 19.1198 6.90768L19.1195 6.90688L19.1189 6.90485L19.117 6.89913L19.1111 6.88114C19.1061 6.86628 19.0991 6.84575 19.09 6.81992C19.0718 6.76828 19.0451 6.69539 19.0092 6.60429C18.9375 6.4222 18.8289 6.16663 18.6778 5.86204C18.3762 5.25418 17.9014 4.4433 17.2066 3.63033C15.8089 1.99498 13.5151 0.350586 10.0003 0.350586C6.48557 0.350586 4.19181 1.99498 2.79409 3.63033C2.09925 4.4433 1.62449 5.25418 1.3229 5.86204C1.17177 6.16663 1.06316 6.4222 0.991471 6.60429C0.955602 6.69539 0.928904 6.76828 0.910688 6.81992C0.901578 6.84575 0.894583 6.86628 0.889616 6.88114L0.883676 6.89913L0.881826 6.90485L0.881177 6.90688L0.880921 6.90768C0.880813 6.90803 0.880711 6.90835 1.50034 7.1047L0.880711 6.90835L0.81543 7.11436L0.886495 7.31845L1.50034 7.1047C0.886495 7.31845 0.886606 7.31877 0.886726 7.31911L0.887004 7.3199L0.887704 7.3219L0.889679 7.32746L0.895957 7.3448C0.901186 7.35909 0.908519 7.37875 0.918034 7.40345C0.93706 7.45283 0.964837 7.52238 1.00199 7.60926C1.07625 7.78292 1.18826 8.02644 1.34311 8.31683C1.65221 8.89648 2.13558 9.66958 2.83572 10.4475C4.24339 12.0115 6.52972 13.5932 9.98984 13.6491C13.4637 13.7053 15.7592 12.116 17.1688 10.5218C17.8695 9.72927 18.3527 8.93532 18.6613 8.33928C18.8159 8.0406 18.9277 7.78968 19.0017 7.61079C19.0387 7.52128 19.0664 7.44963 19.0853 7.39883C19.0947 7.37342 19.102 7.35322 19.1072 7.33858L19.1134 7.32085L19.1153 7.31521L19.116 7.3132L19.1163 7.31241C19.1164 7.31207 19.1165 7.31175 18.5003 7.1047ZM18.5003 7.1047L19.1165 7.31175L19.1841 7.11062L19.12 6.90835L18.5003 7.1047ZM10.0003 5.63267C9.16151 5.63267 8.52534 6.28027 8.52534 7.0261C8.52534 7.77194 9.16151 8.41954 10.0003 8.41954C10.8392 8.41954 11.4753 7.77194 11.4753 7.0261C11.4753 6.28027 10.8392 5.63267 10.0003 5.63267ZM7.22534 7.0261C7.22534 5.51482 8.49197 4.33267 10.0003 4.33267C11.5087 4.33267 12.7753 5.51482 12.7753 7.0261C12.7753 8.53739 11.5087 9.71954 10.0003 9.71954C8.49197 9.71954 7.22534 8.53739 7.22534 7.0261Z" fill="#999999"/>
</svg>
