<svg width="24" height="24" viewBox="0 0 24 24" fill="none" xmlns="http://www.w3.org/2000/svg">
<path fill-rule="evenodd" clip-rule="evenodd" d="M5.69225 5.04591C5.94336 4.78937 6.3549 4.78496 6.61144 5.03607L19.8927 18.0361C20.1492 18.2872 20.1536 18.6987 19.9025 18.9553C19.6514 19.2118 19.2399 19.2162 18.9833 18.9651L17.1511 17.1717C17.1429 17.1773 17.1346 17.1828 17.126 17.1881C15.8049 18.0131 14.1124 18.5888 11.9901 18.5549C8.53226 18.4995 6.24641 16.934 4.83796 15.384C4.13753 14.6131 3.65386 13.847 3.3445 13.2723C3.18953 12.9845 3.07741 12.7431 3.00305 12.5708C2.96585 12.4847 2.93803 12.4157 2.91896 12.3666C2.90942 12.3421 2.90207 12.3226 2.89682 12.3084L2.89052 12.2911L2.88853 12.2856L2.88782 12.2836C2.8877 12.2833 2.8873 12.2821 3.50051 12.0666C2.88143 11.8685 2.8815 11.8683 2.88157 11.8681L2.88213 11.8663L2.88319 11.863L2.8864 11.8533L2.89718 11.8215C2.90635 11.7949 2.91951 11.7577 2.93691 11.7108C2.9717 11.6172 3.02348 11.485 3.09413 11.3224C3.23526 10.9974 3.45264 10.5486 3.76161 10.0418C4.3525 9.07257 5.29002 7.87243 6.68763 6.92977L5.70209 5.9651C5.44555 5.71399 5.44114 5.30245 5.69225 5.04591ZM7.63544 7.85751C7.6148 7.87467 7.59287 7.89074 7.56968 7.90558C6.28586 8.72735 5.41936 9.82001 4.87159 10.7185C4.59863 11.1662 4.40797 11.5606 4.28654 11.8402C4.2506 11.923 4.22081 11.9955 4.19682 12.0561C4.25805 12.1979 4.35401 12.4051 4.48916 12.6561C4.76043 13.16 5.18602 13.8339 5.80008 14.5097C7.02065 15.8529 8.98479 17.2066 12.0109 17.255C13.7383 17.2827 15.1096 16.8528 16.1917 16.2326L13.8714 13.9614C13.8584 13.9745 13.8447 13.9871 13.8303 13.9992C13.3396 14.4141 12.6976 14.6627 12.0005 14.6627C10.4981 14.6627 9.22551 13.495 9.22551 11.9887C9.22551 11.3014 9.4951 10.6774 9.93 10.2081C9.94717 10.1896 9.96517 10.1723 9.98389 10.1562L7.63544 7.85751ZM10.9094 11.0621C10.9011 11.0722 10.8925 11.0821 10.8835 11.0918C10.6572 11.336 10.5255 11.6494 10.5255 11.9887C10.5255 12.7181 11.1557 13.3627 12.0005 13.3627C12.3604 13.3627 12.6859 13.2433 12.9388 13.0486L10.9094 11.0621ZM3.50051 12.0666L2.88157 11.8681L2.81494 12.0763L2.8873 12.2821L3.50051 12.0666ZM12.0005 6.67059C11.6544 6.67059 11.3232 6.68848 11.0064 6.722C10.6494 6.75979 10.3294 6.50102 10.2916 6.14402C10.2538 5.78703 10.5126 5.46701 10.8696 5.42922C11.2326 5.3908 11.6095 5.37059 12.0005 5.37059C15.5128 5.37059 17.8062 6.99813 19.2048 8.61893C19.8999 9.42454 20.375 10.2282 20.6769 10.8308C20.8281 11.1327 20.9368 11.3861 21.0086 11.5667C21.0445 11.657 21.0713 11.7293 21.0895 11.7806C21.0986 11.8062 21.1057 11.8266 21.1106 11.8414L21.1166 11.8593L21.1185 11.865L21.1191 11.867C21.1192 11.8674 21.1196 11.8685 20.5005 12.0666C21.1161 12.2754 21.116 12.2755 21.116 12.2756L21.1152 12.2779L21.1139 12.2816L21.11 12.2929L21.0966 12.3301C21.0851 12.3613 21.0686 12.4051 21.0468 12.46C21.0031 12.5699 20.938 12.7248 20.8491 12.914C20.6716 13.2919 20.398 13.8095 20.0093 14.3791C19.8069 14.6756 19.4025 14.7519 19.106 14.5496C18.8095 14.3472 18.7331 13.9428 18.9355 13.6463C19.2783 13.1439 19.5188 12.6885 19.6724 12.3613C19.7283 12.2423 19.7726 12.1407 19.8059 12.0604C19.8042 12.056 19.8024 12.0515 19.8005 12.0469C19.7409 11.8968 19.6472 11.6779 19.5145 11.413C19.2485 10.882 18.8297 10.1741 18.2205 9.46822C17.0106 8.06603 15.0539 6.67059 12.0005 6.67059ZM20.5005 12.0666L21.116 12.2756L21.1849 12.0725L21.1196 11.8685L20.5005 12.0666Z" fill="#999999"/>
</svg>
