<svg width="24" height="24" viewBox="0 0 24 24" fill="none" xmlns="http://www.w3.org/2000/svg">
<path fill-rule="evenodd" clip-rule="evenodd" d="M4.19592 12.0943C4.19645 12.0956 4.19699 12.0968 4.19752 12.0981C4.25884 12.2415 4.35499 12.4511 4.49045 12.7051C4.76198 13.2143 5.18787 13.8952 5.80224 14.5778C7.02357 15.9349 8.98724 17.3004 12.0111 17.3493C15.0212 17.398 16.9757 16.0399 18.1951 14.6607C18.8089 13.9665 19.235 13.2672 19.507 12.7416C19.6427 12.4795 19.7391 12.2626 19.8007 12.1138C19.8028 12.1086 19.8049 12.1036 19.8069 12.0986C19.8046 12.0927 19.8023 12.0867 19.7998 12.0805C19.7401 11.9288 19.6463 11.7075 19.5135 11.4398C19.2472 10.9032 18.8281 10.188 18.2186 9.47496C17.0078 8.05824 15.0515 6.65059 12.0006 6.65059C8.94966 6.65059 6.99342 8.05824 5.78256 9.47496C5.17312 10.188 4.75395 10.9032 4.48768 11.4398C4.35488 11.7075 4.26108 11.9288 4.20134 12.0805C4.1995 12.0852 4.19769 12.0898 4.19592 12.0943ZM20.5006 12.1047C21.1202 11.9083 21.1201 11.908 21.12 11.9077L21.1198 11.9069L21.1191 11.9049L21.1173 11.8991L21.1113 11.8811C21.1064 11.8663 21.0994 11.8458 21.0902 11.8199C21.072 11.7683 21.0453 11.6954 21.0095 11.6043C20.9378 11.4222 20.8292 11.1666 20.678 10.862C20.3764 10.2542 19.9017 9.4433 19.2068 8.63033C17.8091 6.99498 15.5154 5.35059 12.0006 5.35059C8.48581 5.35059 6.19205 6.99498 4.79434 8.63033C4.09949 9.4433 3.62473 10.2542 3.32314 10.862C3.17201 11.1666 3.0634 11.4222 2.99171 11.6043C2.95585 11.6954 2.92915 11.7683 2.91093 11.8199C2.90182 11.8458 2.89483 11.8663 2.88986 11.8811L2.88392 11.8991L2.88207 11.9049L2.88142 11.9069L2.88117 11.9077C2.88106 11.908 2.88096 11.9083 3.50059 12.1047L2.88096 11.9083L2.81567 12.1144L2.88674 12.3184L3.50059 12.1047C2.88674 12.3184 2.88685 12.3188 2.88697 12.3191L2.88725 12.3199L2.88795 12.3219L2.88992 12.3275L2.8962 12.3448C2.90143 12.3591 2.90876 12.3788 2.91828 12.4034C2.9373 12.4528 2.96508 12.5224 3.00224 12.6093C3.0765 12.7829 3.18851 13.0264 3.34336 13.3168C3.65245 13.8965 4.13582 14.6696 4.83596 15.4475C6.24363 17.0115 8.52996 18.5932 11.9901 18.6491C15.464 18.7053 17.7595 17.116 19.169 15.5218C19.8698 14.7293 20.353 13.9353 20.6615 13.3393C20.8161 13.0406 20.9279 12.7897 21.0019 12.6108C21.039 12.5213 21.0666 12.4496 21.0855 12.3988C21.095 12.3734 21.1023 12.3532 21.1074 12.3386L21.1136 12.3209L21.1156 12.3152L21.1162 12.3132L21.1165 12.3124C21.1166 12.3121 21.1167 12.3117 20.5006 12.1047ZM20.5006 12.1047L21.1167 12.3117L21.1843 12.1106L21.1202 11.9083L20.5006 12.1047ZM12.0006 10.6327C11.1618 10.6327 10.5256 11.2803 10.5256 12.0261C10.5256 12.7719 11.1618 13.4195 12.0006 13.4195C12.8394 13.4195 13.4756 12.7719 13.4756 12.0261C13.4756 11.2803 12.8394 10.6327 12.0006 10.6327ZM9.22559 12.0261C9.22559 10.5148 10.4922 9.33267 12.0006 9.33267C13.509 9.33267 14.7756 10.5148 14.7756 12.0261C14.7756 13.5374 13.509 14.7195 12.0006 14.7195C10.4922 14.7195 9.22559 13.5374 9.22559 12.0261Z" fill="#999999"/>
</svg>
