<svg width="32" height="32" viewBox="0 0 32 32" fill="none" xmlns="http://www.w3.org/2000/svg">
<g clip-path="url(#clip0_1068_3508)">
<path d="M26.4522 16.2372C26.4522 15.3602 26.381 14.7203 26.227 14.0566H16.2129V18.0148H22.0909C21.9725 18.9985 21.3325 20.4799 19.9104 21.4753L19.8904 21.6078L23.0567 24.0607L23.2761 24.0826C25.2907 22.222 26.4522 19.4844 26.4522 16.2372Z" fill="#4285F4"/>
<path d="M16.2099 26.6658C19.0896 26.6658 21.5072 25.7177 23.2731 24.0823L19.9074 21.475C19.0067 22.1031 17.7979 22.5416 16.2099 22.5416C13.3893 22.5416 10.9955 20.681 10.1421 18.1094L10.017 18.12L6.7247 20.668L6.68164 20.7877C8.43557 24.2718 12.0383 26.6658 16.2099 26.6658Z" fill="#34A853"/>
<path d="M10.146 18.1094C9.92083 17.4457 9.79052 16.7346 9.79052 15.9999C9.79052 15.2651 9.92083 14.554 10.1341 13.8904L10.1282 13.7491L6.79459 11.1602L6.68552 11.212C5.96264 12.6579 5.54785 14.2815 5.54785 15.9999C5.54785 17.7183 5.96264 19.3418 6.68552 20.7876L10.146 18.1094Z" fill="#FBBC05"/>
<path d="M16.2099 9.45713C18.2127 9.45713 19.5636 10.3222 20.334 11.0452L23.3441 8.10614C21.4954 6.38775 19.0896 5.33301 16.2099 5.33301C12.0383 5.33301 8.43557 7.72689 6.68164 11.2111L10.1303 13.8894C10.9955 11.3178 13.3893 9.45713 16.2099 9.45713Z" fill="#EB4335"/>
</g>
<defs>
<clipPath id="clip0_1068_3508">
<rect width="21.3333" height="21.3333" fill="white" transform="translate(5.3335 5.33301)"/>
</clipPath>
</defs>
</svg>
