<svg width="243" height="142" viewBox="0 0 243 142" fill="none" xmlns="http://www.w3.org/2000/svg">
<path d="M122.359 41.2174C122.359 20.98 138.765 4.57422 159.003 4.57422V220.362H122.359V41.2174Z" fill="url(#paint0_linear_4054_18172)"/>
<path d="M297.434 0.501953L297.434 37.1452L122.361 37.1451C122.361 16.9077 138.766 0.501946 159.004 0.501947L297.434 0.501953Z" fill="url(#paint1_linear_4054_18172)"/>
<path d="M0.214844 107.559C0.214844 85.9097 17.7652 68.3594 39.4145 68.3594V204.075H0.214844V107.559Z" fill="url(#paint2_linear_4054_18172)"/>
<path d="M260.789 68.3594L260.789 105.003L0.215208 105.003C0.215209 84.7651 16.6209 68.3594 36.8584 68.3594L260.789 68.3594Z" fill="url(#paint3_linear_4054_18172)"/>
<defs>
<linearGradient id="paint0_linear_4054_18172" x1="159.003" y1="220.362" x2="159.003" y2="-2.11688" gradientUnits="userSpaceOnUse">
<stop stop-color="#403E3D"/>
<stop offset="1" stop-color="#898584"/>
</linearGradient>
<linearGradient id="paint1_linear_4054_18172" x1="122.361" y1="37.1451" x2="302.862" y2="37.1451" gradientUnits="userSpaceOnUse">
<stop stop-color="#403E3D"/>
<stop offset="1" stop-color="#898584"/>
</linearGradient>
<linearGradient id="paint2_linear_4054_18172" x1="39.4146" y1="204.075" x2="39.4145" y2="64.1511" gradientUnits="userSpaceOnUse">
<stop stop-color="#403E3D"/>
<stop offset="1" stop-color="#898584"/>
</linearGradient>
<linearGradient id="paint3_linear_4054_18172" x1="0.215211" y1="105.003" x2="268.869" y2="105.003" gradientUnits="userSpaceOnUse">
<stop stop-color="#403E3D"/>
<stop offset="1" stop-color="#898584"/>
</linearGradient>
</defs>
</svg>
