<svg width="219" height="120" viewBox="0 0 219 120" fill="none" xmlns="http://www.w3.org/2000/svg">
<path d="M90 27C90 12.0883 102.088 0 117 0V159H90V27Z" fill="url(#paint0_linear_1373_12381)"/>
<rect x="219" y="161" width="27" height="147" transform="rotate(-180 219 161)" fill="url(#paint1_linear_1373_12381)"/>
<path d="M219 0L219 27L90 27C90 12.0883 102.088 -5.11037e-06 117 -4.45856e-06L219 0Z" fill="url(#paint2_linear_1373_12381)"/>
<path d="M0 84.8837C0 68.9317 12.9317 56 28.8837 56V156H0V84.8837Z" fill="url(#paint3_linear_1373_12381)"/>
<path d="M192 56L192 83L-1.26255e-06 83C-5.65262e-07 68.0883 12.0883 56 27 56L192 56Z" fill="url(#paint4_linear_1373_12381)"/>
<defs>
<linearGradient id="paint0_linear_1373_12381" x1="117" y1="159" x2="117" y2="-4.93023" gradientUnits="userSpaceOnUse">
<stop stop-color="#DBD0C5"/>
<stop offset="1" stop-color="#F8F3EE"/>
</linearGradient>
<linearGradient id="paint1_linear_1373_12381" x1="246" y1="308" x2="246" y2="156.442" gradientUnits="userSpaceOnUse">
<stop stop-color="#DBD0C5"/>
<stop offset="1" stop-color="#F8F3EE"/>
</linearGradient>
<linearGradient id="paint2_linear_1373_12381" x1="90" y1="27" x2="223" y2="27" gradientUnits="userSpaceOnUse">
<stop stop-color="#DBD0C5"/>
<stop offset="1" stop-color="#F8F3EE"/>
</linearGradient>
<linearGradient id="paint3_linear_1373_12381" x1="28.8837" y1="156" x2="28.8837" y2="52.8992" gradientUnits="userSpaceOnUse">
<stop stop-color="#DBD0C5"/>
<stop offset="1" stop-color="#F8F3EE"/>
</linearGradient>
<linearGradient id="paint4_linear_1373_12381" x1="4.94041e-07" y1="83" x2="197.953" y2="83" gradientUnits="userSpaceOnUse">
<stop stop-color="#DBD0C5"/>
<stop offset="1" stop-color="#F8F3EE"/>
</linearGradient>
</defs>
</svg>
