<svg width="219" height="106" viewBox="0 0 219 106" fill="none" xmlns="http://www.w3.org/2000/svg">
<path d="M90 30.5898C90 15.6782 102.088 3.58984 117 3.58984V162.59H90V30.5898Z" fill="url(#paint0_linear_3336_15642)"/>
<rect x="219" y="164.59" width="27" height="147" transform="rotate(-180 219 164.59)" fill="url(#paint1_linear_3336_15642)"/>
<path d="M219 0.589844L219 27.5898L90 27.5898C90 12.6782 102.088 0.589839 117 0.589839L219 0.589844Z" fill="url(#paint2_linear_3336_15642)"/>
<path d="M0 79.4736C0 63.5215 12.9317 50.5898 28.8837 50.5898V150.59H0V79.4736Z" fill="url(#paint3_linear_3336_15642)"/>
<path d="M192 50.5898L192 77.5898L-1.26255e-06 77.5898C-5.65262e-07 62.6782 12.0883 50.5898 27 50.5898L192 50.5898Z" fill="url(#paint4_linear_3336_15642)"/>
<defs>
<linearGradient id="paint0_linear_3336_15642" x1="117" y1="162.59" x2="117" y2="-1.34039" gradientUnits="userSpaceOnUse">
<stop stop-color="#403E3D"/>
<stop offset="1" stop-color="#898584"/>
</linearGradient>
<linearGradient id="paint1_linear_3336_15642" x1="246" y1="311.59" x2="246" y2="160.032" gradientUnits="userSpaceOnUse">
<stop stop-color="#403E3D"/>
<stop offset="1" stop-color="#898584"/>
</linearGradient>
<linearGradient id="paint2_linear_3336_15642" x1="90" y1="27.5898" x2="223" y2="27.5898" gradientUnits="userSpaceOnUse">
<stop stop-color="#403E3D"/>
<stop offset="1" stop-color="#898584"/>
</linearGradient>
<linearGradient id="paint3_linear_3336_15642" x1="28.8837" y1="150.59" x2="28.8837" y2="47.4891" gradientUnits="userSpaceOnUse">
<stop stop-color="#403E3D"/>
<stop offset="1" stop-color="#898584"/>
</linearGradient>
<linearGradient id="paint4_linear_3336_15642" x1="4.94041e-07" y1="77.5898" x2="197.953" y2="77.5898" gradientUnits="userSpaceOnUse">
<stop stop-color="#403E3D"/>
<stop offset="1" stop-color="#898584"/>
</linearGradient>
</defs>
</svg>
