<svg width="242" height="162" viewBox="0 0 242 162" fill="none" xmlns="http://www.w3.org/2000/svg">
<path d="M122.719 36.6432C122.719 16.4057 139.124 0 159.362 0V215.788H122.719V36.6432Z" fill="url(#paint0_linear_4039_34284)"/>
<path d="M297.793 0L297.793 36.6432L122.72 36.6432C122.72 16.4057 139.126 -6.93557e-06 159.363 -6.05096e-06L297.793 0Z" fill="url(#paint1_linear_4039_34284)"/>
<path d="M0.574219 115.344C0.574219 93.6948 18.1245 76.1445 39.7739 76.1445V211.86H0.574219V115.344Z" fill="url(#paint2_linear_4039_34284)"/>
<path d="M261.148 76.1445L261.148 112.788L0.574583 112.788C0.574584 92.5502 16.9803 76.1445 37.2178 76.1445L261.148 76.1445Z" fill="url(#paint3_linear_4039_34284)"/>
<defs>
<linearGradient id="paint0_linear_4039_34284" x1="159.362" y1="215.788" x2="159.362" y2="-6.6911" gradientUnits="userSpaceOnUse">
<stop stop-color="#DBD0C5"/>
<stop offset="1" stop-color="#F8F3EE"/>
</linearGradient>
<linearGradient id="paint1_linear_4039_34284" x1="122.72" y1="36.6432" x2="303.222" y2="36.6432" gradientUnits="userSpaceOnUse">
<stop stop-color="#DBD0C5"/>
<stop offset="1" stop-color="#F8F3EE"/>
</linearGradient>
<linearGradient id="paint2_linear_4039_34284" x1="39.7739" y1="211.86" x2="39.7739" y2="71.9363" gradientUnits="userSpaceOnUse">
<stop stop-color="#DBD0C5"/>
<stop offset="1" stop-color="#F8F3EE"/>
</linearGradient>
<linearGradient id="paint3_linear_4039_34284" x1="0.574586" y1="112.788" x2="269.228" y2="112.788" gradientUnits="userSpaceOnUse">
<stop stop-color="#DBD0C5"/>
<stop offset="1" stop-color="#F8F3EE"/>
</linearGradient>
</defs>
</svg>
