<svg width="30" height="30" viewBox="0 0 30 30" fill="none" xmlns="http://www.w3.org/2000/svg">
<g id="Heart">
<path id="Vector" d="M24.3806 16.9716L15.0104 26.25L5.64027 16.9716C5.02222 16.3703 4.53539 15.6476 4.21044 14.8489C3.88549 14.0503 3.72946 13.193 3.75217 12.3311C3.77487 11.4692 3.97583 10.6213 4.34239 9.84087C4.70894 9.06043 5.23315 8.36432 5.882 7.79638C6.53085 7.22844 7.29029 6.80098 8.1125 6.5409C8.93471 6.28083 9.80187 6.19378 10.6594 6.28524C11.5169 6.37669 12.3462 6.64467 13.095 7.07231C13.8438 7.49994 14.496 8.07796 15.0104 8.76996C15.5271 8.08298 16.18 7.51001 16.9283 7.08692C17.6766 6.66382 18.5042 6.39971 19.3593 6.31112C20.2144 6.22252 21.0786 6.31134 21.8978 6.57202C22.717 6.8327 23.4736 7.25963 24.1201 7.82609C24.7667 8.39255 25.2894 9.08634 25.6554 9.86405C26.0215 10.6418 26.223 11.4866 26.2475 12.3458C26.2719 13.205 26.1187 14.0599 25.7975 14.8572C25.4762 15.6544 24.9939 16.3768 24.3806 16.9791" fill="#FF9945"/>
</g>
</svg>
