<svg width="20" height="20" viewBox="0 0 20 20" fill="none" xmlns="http://www.w3.org/2000/svg">
<g id="icon/heart filled">
<path id="Vector" d="M16.2537 11.3147L10.0069 17.5003L3.76018 11.3147C3.34815 10.9139 3.02359 10.432 2.80696 9.89961C2.59033 9.36717 2.48631 8.79566 2.50144 8.22105C2.51658 7.64645 2.65055 7.0812 2.89492 6.56091C3.13929 6.04061 3.48876 5.57654 3.92133 5.19791C4.3539 4.81929 4.8602 4.53431 5.40833 4.36093C5.95647 4.18754 6.53458 4.12951 7.10625 4.19048C7.67792 4.25145 8.23078 4.43011 8.73 4.7152C9.22922 5.00028 9.66399 5.38563 10.0069 5.84697C10.3514 5.38898 10.7867 5.007 11.2855 4.72494C11.7844 4.44288 12.3361 4.2668 12.9062 4.20774C13.4763 4.14867 14.0524 4.20788 14.5985 4.38167C15.1447 4.55546 15.649 4.84008 16.0801 5.21772C16.5111 5.59536 16.8596 6.05789 17.1036 6.57636C17.3476 7.09483 17.482 7.65808 17.4983 8.23086C17.5146 8.80364 17.4125 9.37361 17.1983 9.90512C16.9842 10.4366 16.6626 10.9182 16.2537 11.3197" fill="#CCCCCC"/>
</g>
</svg>
