<svg width="20" height="20" viewBox="0 0 20 20" fill="none" xmlns="http://www.w3.org/2000/svg">
<g id="icon/heart lined">
<path id="Vector (Stroke)" fill-rule="evenodd" clip-rule="evenodd" d="M16.2537 11.3147V11.3197L16.2562 11.3173C16.5155 11.0622 16.7396 10.7749 16.9234 10.4631C17.0286 10.2846 17.1205 10.0982 17.1983 9.90512C17.4125 9.37361 17.5146 8.80364 17.4983 8.23086C17.482 7.65808 17.3476 7.09483 17.1036 6.57636C16.8596 6.05789 16.5111 5.59536 16.0801 5.21772C15.649 4.84008 15.1447 4.55546 14.5985 4.38167C14.0524 4.20788 13.4763 4.14867 12.9062 4.20774C12.3361 4.2668 11.7844 4.44288 11.2855 4.72494C11.1062 4.82633 10.9351 4.94064 10.7734 5.06675C10.4854 5.29145 10.2276 5.55362 10.0069 5.84697C9.78796 5.55239 9.53153 5.28879 9.2448 5.0625C9.08248 4.9344 8.91045 4.81825 8.73 4.7152C8.23078 4.43011 7.67792 4.25145 7.10625 4.19048C6.53458 4.12951 5.95647 4.18754 5.40833 4.36093C4.86019 4.53431 4.3539 4.81929 3.92133 5.19791C3.48876 5.57654 3.13929 6.04061 2.89492 6.56091C2.65055 7.0812 2.51658 7.64645 2.50144 8.22105C2.48631 8.79566 2.59033 9.36717 2.80696 9.89961C3.02359 10.432 3.34815 10.9139 3.76018 11.3147L10.0069 17.5003L16.2537 11.3147ZM10.0069 15.9757L4.52243 10.5449L4.51562 10.5383C4.21078 10.2417 3.97068 9.88522 3.81042 9.49133C3.65015 9.09744 3.5732 8.67465 3.5844 8.24958C3.5956 7.82451 3.69471 7.40636 3.87549 7.02145C4.05627 6.63654 4.31481 6.29321 4.63485 6.01308C4.95489 5.73296 5.32948 5.52211 5.73505 5.39382C6.14062 5.26553 6.56837 5.22259 6.99136 5.26771C7.41435 5.31282 7.82341 5.44501 8.19277 5.65594C8.56213 5.86687 8.8838 6.15197 9.13752 6.49328C9.34128 6.76738 9.66238 6.92935 10.0039 6.9303C10.3455 6.93125 10.6675 6.77107 10.8728 6.49811C11.1276 6.15928 11.4496 5.87667 11.8187 5.66798C12.1878 5.45928 12.5961 5.329 13.0179 5.2853C13.4397 5.2416 13.866 5.28541 14.27 5.414C14.6741 5.54258 15.0473 5.75317 15.3662 6.03257C15.6851 6.31196 15.9429 6.65415 16.1234 7.03771C16.304 7.42127 16.4034 7.83795 16.4154 8.26167C16.4275 8.68539 16.3519 9.10704 16.1935 9.50024C16.0449 9.8691 15.8263 10.2055 15.5501 10.491C15.53 10.5081 15.5105 10.5261 15.4914 10.5449L10.0069 15.9757Z" fill="#999999"/>
</g>
</svg>
