<svg width="18" height="17" viewBox="0 0 18 17" fill="none" xmlns="http://www.w3.org/2000/svg">
<path fill-rule="evenodd" clip-rule="evenodd" d="M7.65002 8.32129C7.37388 8.32129 7.15002 8.54515 7.15002 8.82129V11.8213C7.15002 12.0974 7.37388 12.3213 7.65002 12.3213H10.65C10.9262 12.3213 11.15 12.0974 11.15 11.8213V8.82129C11.15 8.54515 10.9262 8.32129 10.65 8.32129H7.65002ZM8.45002 9.62129V11.0213H9.85002V9.62129H8.45002Z" fill="#523D2E"/>
<path fill-rule="evenodd" clip-rule="evenodd" d="M2 5.71379L0.721981 6.83206C0.451817 7.06845 0.424441 7.4791 0.660834 7.74926C0.897227 8.01942 1.30787 8.0468 1.57804 7.81041L2 7.44119V15.3209C2 16.2322 2.73873 16.9709 3.65 16.9709H14.65C15.5613 16.9709 16.3 16.2322 16.3 15.3209V7.44117L16.722 7.81041C16.9921 8.0468 17.4028 8.01942 17.6392 7.74926C17.8756 7.4791 17.8482 7.06845 17.578 6.83206L16.15 5.58255V2.82129C16.15 2.54515 15.9262 2.32129 15.65 2.32129H14.65C14.3739 2.32129 14.15 2.54515 14.15 2.82129V3.83255L10.2365 0.408249C9.61445 -0.136082 8.68557 -0.136084 8.06348 0.408248L2.04902 5.6709H2V5.71379ZM8.91953 1.3866C9.05149 1.27113 9.24853 1.27113 9.38049 1.3866L15 6.30367V15.3209C15 15.5142 14.8433 15.6709 14.65 15.6709H3.65C3.4567 15.6709 3.3 15.5142 3.3 15.3209V6.30369L8.91953 1.3866Z" fill="#523D2E"/>
</svg>
