<svg width="18" height="18" viewBox="0 0 18 18" fill="none" xmlns="http://www.w3.org/2000/svg">
<path fill-rule="evenodd" clip-rule="evenodd" d="M1.8501 7.6199L1.42813 7.98912C1.15797 8.22551 0.747325 8.19813 0.510932 7.92797C0.274538 7.65781 0.301915 7.24716 0.572079 7.01077L7.91357 0.586959C8.53567 0.0426275 9.46455 0.0426288 10.0866 0.58696L14.0001 4.01126V3C14.0001 2.72386 14.224 2.5 14.5001 2.5H15.5001C15.7763 2.5 16.0001 2.72386 16.0001 3V5.76126L17.4281 7.01077C17.6983 7.24716 17.7257 7.65781 17.4893 7.92797C17.2529 8.19813 16.8422 8.22551 16.5721 7.98912L16.1501 7.61988V15.4996C16.1501 16.4109 15.4114 17.1496 14.5001 17.1496H3.5001C2.58883 17.1496 1.8501 16.4109 1.8501 15.4996V7.6199ZM8.00012 9.00037C7.72398 9.00037 7.50012 9.22423 7.50012 9.50037V11.5004C7.50012 11.7765 7.72398 12.0004 8.00012 12.0004H10.0001C10.2763 12.0004 10.5001 11.7765 10.5001 11.5004V9.50037C10.5001 9.22423 10.2763 9.00037 10.0001 9.00037H8.00012Z" fill="#100C09"/>
</svg>
