<svg width="44" height="44" viewBox="0 0 44 44" fill="none" xmlns="http://www.w3.org/2000/svg">
<rect width="44" height="44" rx="22" fill="white" fill-opacity="0.6"/>
<path fill-rule="evenodd" clip-rule="evenodd" d="M18.5 20C19.3284 20 20 19.3284 20 18.5C20 17.6716 19.3284 17 18.5 17C17.6716 17 17 17.6716 17 18.5C17 19.3284 17.6716 20 18.5 20ZM18.5 19C18.7761 19 19 18.7761 19 18.5C19 18.2239 18.7761 18 18.5 18C18.2239 18 18 18.2239 18 18.5C18 18.7761 18.2239 19 18.5 19Z" fill="black"/>
<path fill-rule="evenodd" clip-rule="evenodd" d="M15 14C14.4477 14 14 14.4477 14 15V29C14 29.5523 14.4477 30 15 30H29C29.5523 30 30 29.5523 30 29V15C30 14.4477 29.5523 14 29 14H15ZM15.3 28.1189V28.7H28.7V25.1188L25.5 21.9188L21.4596 25.9592C21.2058 26.2131 20.7942 26.2131 20.5404 25.9592L19 24.4188L15.3 28.1189ZM15.3 26.2804L18.5404 23.04C18.7942 22.7861 19.2058 22.7861 19.4596 23.04L21 24.5804L25.0404 20.54C25.2942 20.2861 25.7058 20.2861 25.9596 20.54L28.7 23.2803V15.3H15.3V26.2804Z" fill="black"/>
</svg>
