<svg width="16" height="16" viewBox="0 0 16 16" fill="none" xmlns="http://www.w3.org/2000/svg">
<g id="Union">
<path fill-rule="evenodd" clip-rule="evenodd" d="M4.5 6C5.32843 6 6 5.32843 6 4.5C6 3.67157 5.32843 3 4.5 3C3.67157 3 3 3.67157 3 4.5C3 5.32843 3.67157 6 4.5 6ZM4.5 5C4.77614 5 5 4.77614 5 4.5C5 4.22386 4.77614 4 4.5 4C4.22386 4 4 4.22386 4 4.5C4 4.77614 4.22386 5 4.5 5Z" fill="black"/>
<path fill-rule="evenodd" clip-rule="evenodd" d="M1 0C0.447715 0 0 0.447715 0 1V15C0 15.5523 0.447715 16 1 16H15C15.5523 16 16 15.5523 16 15V1C16 0.447715 15.5523 0 15 0H1ZM1.3 14.1189V14.7H14.7V11.1188L11.5 7.91885L7.45964 11.9592C7.2058 12.2131 6.79425 12.2131 6.54041 11.9592L5.00002 10.4188L1.3 14.1189ZM1.3 12.2804L4.54041 9.03999C4.79425 8.78615 5.2058 8.78615 5.45964 9.03999L7.00002 10.5804L11.0404 6.53999C11.2942 6.28615 11.7058 6.28615 11.9596 6.53999L14.7 9.28034V1.3H1.3V12.2804Z" fill="black"/>
</g>
</svg>
