<svg width="24" height="24" viewBox="0 0 24 24" fill="none" xmlns="http://www.w3.org/2000/svg">
<g id="icon/info">
<path id="Icon (Stroke)" fill-rule="evenodd" clip-rule="evenodd" d="M12 4.64961C7.94068 4.64961 4.64998 7.94032 4.64998 11.9996C4.64998 16.0589 7.94068 19.3496 12 19.3496C16.0593 19.3496 19.35 16.0589 19.35 11.9996C19.35 7.94032 16.0593 4.64961 12 4.64961ZM3.34998 11.9996C3.34998 7.22235 7.22271 3.34961 12 3.34961C16.7772 3.34961 20.65 7.22235 20.65 11.9996C20.65 16.7769 16.7772 20.6496 12 20.6496C7.22271 20.6496 3.34998 16.7769 3.34998 11.9996ZM12 8.34961C12.359 8.34961 12.65 8.64062 12.65 8.99961V9.03477C12.65 9.39375 12.359 9.68477 12 9.68477C11.641 9.68477 11.35 9.39375 11.35 9.03477V8.99961C11.35 8.64062 11.641 8.34961 12 8.34961ZM12 11.3496C12.359 11.3496 12.65 11.6406 12.65 11.9996V15.9996C12.65 16.3586 12.359 16.6496 12 16.6496C11.641 16.6496 11.35 16.3586 11.35 15.9996L11.35 11.9996C11.35 11.6406 11.641 11.3496 12 11.3496Z" fill="#663710"/>
</g>
</svg>
