<svg width="16" height="16" viewBox="0 0 16 16" fill="none" xmlns="http://www.w3.org/2000/svg">
<rect width="16" height="16" rx="8" fill="#BFA28D"/>
<path d="M5.08317 7.8304C5.08317 8.15257 4.822 8.41374 4.49984 8.41374C4.17767 8.41374 3.9165 8.15257 3.9165 7.8304C3.9165 7.50824 4.17767 7.24707 4.49984 7.24707C4.822 7.24707 5.08317 7.50824 5.08317 7.8304Z" fill="#FAF6F3"/>
<path d="M8.58317 7.8304C8.58317 8.15257 8.322 8.41374 7.99984 8.41374C7.67767 8.41374 7.4165 8.15257 7.4165 7.8304C7.4165 7.50824 7.67767 7.24707 7.99984 7.24707C8.322 7.24707 8.58317 7.50824 8.58317 7.8304Z" fill="#FAF6F3"/>
<path d="M12.0832 7.8304C12.0832 8.15257 11.822 8.41374 11.4998 8.41374C11.1777 8.41374 10.9165 8.15257 10.9165 7.8304C10.9165 7.50824 11.1777 7.24707 11.4998 7.24707C11.822 7.24707 12.0832 7.50824 12.0832 7.8304Z" fill="#FAF6F3"/>
</svg>
