<svg width="24" height="24" viewBox="0 0 24 24" fill="none" xmlns="http://www.w3.org/2000/svg">
<path fill-rule="evenodd" clip-rule="evenodd" d="M12.0003 0.916992C12.5986 0.916992 13.0837 1.40202 13.0837 2.00033L13.0837 10.917H22.0003C22.5986 10.917 23.0837 11.402 23.0837 12.0003C23.0837 12.5986 22.5986 13.0837 22.0003 13.0837H13.0837V22.0003C13.0837 22.5986 12.5986 23.0837 12.0003 23.0837C11.402 23.0837 10.917 22.5986 10.917 22.0003L10.917 13.0837H2.00033C1.40202 13.0837 0.916992 12.5986 0.916992 12.0003C0.916992 11.402 1.40202 10.917 2.00033 10.917H10.917L10.917 2.00033C10.917 1.40202 11.402 0.916992 12.0003 0.916992Z" fill="white"/>
</svg>
