<svg width="24" height="24" viewBox="0 0 24 24" fill="none" xmlns="http://www.w3.org/2000/svg">
<path fill-rule="evenodd" clip-rule="evenodd" d="M17.2323 3.84961C16.7834 3.84961 16.339 3.93801 15.9243 4.10978C15.5097 4.28154 15.1329 4.53329 14.8155 4.85067L13.8489 5.81732L13.8369 5.82895L13.8253 5.84086L4.54048 15.1257C4.41858 15.2476 4.3501 15.4129 4.3501 15.5853V19.4996C4.3501 19.8586 4.64111 20.1496 5.0001 20.1496H8.91439C9.08678 20.1496 9.25211 20.0811 9.37401 19.9592L19.649 9.6842C19.9664 9.36683 20.2182 8.99005 20.3899 8.57538C20.5617 8.16071 20.6501 7.71627 20.6501 7.26743C20.6501 6.8186 20.5617 6.37416 20.3899 5.95949C20.2182 5.54482 19.9664 5.16804 19.649 4.85067C19.3317 4.53329 18.9549 4.28154 18.5402 4.10978C18.1255 3.93801 17.6811 3.84961 17.2323 3.84961ZM5.96219 15.5425L14.2967 7.20795L17.2918 10.203L8.95725 18.5375L5.96219 15.5425ZM5.6501 17.0688V18.8496H7.43086L5.6501 17.0688ZM15.2159 6.28871L18.211 9.28377L18.7298 8.76496C18.9265 8.5683 19.0825 8.33484 19.1889 8.07789C19.2953 7.82095 19.3501 7.54555 19.3501 7.26743C19.3501 6.98932 19.2953 6.71392 19.1889 6.45698C19.0825 6.20003 18.9265 5.96657 18.7298 5.76991C18.5331 5.57325 18.2997 5.41725 18.0427 5.31082C17.7858 5.20439 17.5104 5.14961 17.2323 5.14961C16.9542 5.14961 16.6788 5.20439 16.4218 5.31082C16.1649 5.41725 15.9314 5.57325 15.7347 5.76991L15.2159 6.28871Z" fill="black"/>
</svg>
