<svg width="16" height="17" viewBox="0 0 16 17" fill="none" xmlns="http://www.w3.org/2000/svg">
<g id="icon/pencil lined">
<path id="Union" fill-rule="evenodd" clip-rule="evenodd" d="M11.4881 3.06641C11.1889 3.06641 10.8926 3.12534 10.6162 3.23985C10.3397 3.35436 10.0885 3.5222 9.87696 3.73378L9.23253 4.37821L9.22458 4.38596L9.21683 4.39391L3.02694 10.5838C2.94568 10.6651 2.90002 10.7753 2.90002 10.8902V13.4997C2.90002 13.7391 3.09403 13.9331 3.33336 13.9331H5.94289C6.05782 13.9331 6.16804 13.8874 6.2493 13.8062L13.0993 6.95613C13.3109 6.74455 13.4787 6.49337 13.5932 6.21692C13.7078 5.94047 13.7667 5.64418 13.7667 5.34496C13.7667 5.04573 13.7078 4.74944 13.5932 4.47299C13.4787 4.19655 13.3109 3.94536 13.0993 3.73378C12.8877 3.5222 12.6366 3.35436 12.3601 3.23985C12.0837 3.12534 11.7874 3.06641 11.4881 3.06641ZM3.97475 10.8616L9.53109 5.3053L11.5278 7.30201L5.97146 12.8583L3.97475 10.8616ZM3.76669 11.8792V13.0664H4.95387L3.76669 11.8792ZM10.1439 4.69248L12.1406 6.68918L12.4865 6.34331C12.6176 6.2122 12.7216 6.05656 12.7926 5.88526C12.8635 5.71396 12.9 5.53037 12.9 5.34496C12.9 5.15954 12.8635 4.97595 12.7926 4.80465C12.7216 4.63335 12.6176 4.47771 12.4865 4.3466C12.3554 4.2155 12.1997 4.1115 12.0284 4.04055C11.8571 3.96959 11.6736 3.93307 11.4881 3.93307C11.3027 3.93307 11.1191 3.96959 10.9478 4.04055C10.7765 4.1115 10.6209 4.2155 10.4898 4.3466L10.1439 4.69248Z" fill="white"/>
</g>
</svg>
