<svg width="24" height="24" viewBox="0 0 24 24" fill="none" xmlns="http://www.w3.org/2000/svg">
<path fill-rule="evenodd" clip-rule="evenodd" d="M17.2322 3.84961C16.7833 3.84961 16.3389 3.93801 15.9242 4.10978C15.5095 4.28154 15.1328 4.53329 14.8154 4.85067L13.8487 5.81732L13.8368 5.82895L13.8252 5.84086L4.54036 15.1257C4.41846 15.2476 4.34998 15.4129 4.34998 15.5853V19.4996C4.34998 19.8586 4.64099 20.1496 4.99998 20.1496H8.91427C9.08666 20.1496 9.25199 20.0811 9.37389 19.9592L19.6489 9.6842C19.9663 9.36683 20.218 8.99005 20.3898 8.57538C20.5616 8.16071 20.65 7.71627 20.65 7.26743C20.65 6.8186 20.5616 6.37416 20.3898 5.95949C20.218 5.54482 19.9663 5.16804 19.6489 4.85067C19.3315 4.53329 18.9548 4.28154 18.5401 4.10978C18.1254 3.93801 17.681 3.84961 17.2322 3.84961ZM5.64998 16.1291V18.8496H8.37059L5.64998 16.1291ZM15.2158 6.28871L18.2109 9.28377L18.7297 8.76496C18.9263 8.5683 19.0823 8.33484 19.1888 8.07789C19.2952 7.82095 19.35 7.54555 19.35 7.26743C19.35 6.98932 19.2952 6.71392 19.1888 6.45698C19.0823 6.20003 18.9263 5.96657 18.7297 5.76991C18.533 5.57325 18.2996 5.41725 18.0426 5.31082C17.7857 5.20439 17.5103 5.14961 17.2322 5.14961C16.954 5.14961 16.6786 5.20439 16.4217 5.31082C16.1647 5.41725 15.9313 5.57325 15.7346 5.76991L15.2158 6.28871Z" fill="white"/>
</svg>
