<svg width="24" height="24" viewBox="0 0 24 24" fill="none" xmlns="http://www.w3.org/2000/svg">
<path fill-rule="evenodd" clip-rule="evenodd" d="M8.5 10C9.32843 10 10 9.32843 10 8.5C10 7.67157 9.32843 7 8.5 7C7.67157 7 7 7.67157 7 8.5C7 9.32843 7.67157 10 8.5 10ZM8.5 9C8.77614 9 9 8.77614 9 8.5C9 8.22386 8.77614 8 8.5 8C8.22386 8 8 8.22386 8 8.5C8 8.77614 8.22386 9 8.5 9Z" fill="black"/>
<path fill-rule="evenodd" clip-rule="evenodd" d="M5 4C4.44772 4 4 4.44772 4 5V19C4 19.5523 4.44772 20 5 20H19C19.5523 20 20 19.5523 20 19V5C20 4.44772 19.5523 4 19 4H5ZM5.3 18.1189V18.7H18.7V15.1188L15.5 11.9188L11.4596 15.9592C11.2058 16.2131 10.7942 16.2131 10.5404 15.9592L9.00002 14.4188L5.3 18.1189ZM5.3 16.2804L8.54041 13.04C8.79425 12.7861 9.2058 12.7861 9.45964 13.04L11 14.5804L15.0404 10.54C15.2942 10.2861 15.7058 10.2861 15.9596 10.54L18.7 13.2803V5.3H5.3V16.2804Z" fill="black"/>
</svg>
