<svg width="25" height="24" viewBox="0 0 25 24" fill="none" xmlns="http://www.w3.org/2000/svg">
<g id="icon/+-small">
<path id="Icon (Stroke)" fill-rule="evenodd" clip-rule="evenodd" d="M12.5 6.5498C12.859 6.5498 13.15 6.84082 13.15 7.1998V11.3498H17.3C17.659 11.3498 17.95 11.6408 17.95 11.9998C17.95 12.3588 17.659 12.6498 17.3 12.6498H13.15V16.7998C13.15 17.1588 12.859 17.4498 12.5 17.4498C12.1411 17.4498 11.85 17.1588 11.85 16.7998L11.85 12.6498H7.70005C7.34106 12.6498 7.05005 12.3588 7.05005 11.9998C7.05005 11.6408 7.34106 11.3498 7.70005 11.3498H11.85L11.85 7.1998C11.85 6.84082 12.1411 6.5498 12.5 6.5498Z" fill="black"/>
</g>
</svg>
