<svg width="40" height="40" viewBox="0 0 40 40" fill="none" xmlns="http://www.w3.org/2000/svg">
<g id="icon/+-medium">
<path id="Icon (Stroke)" fill-rule="evenodd" clip-rule="evenodd" d="M19.9998 8.91699C20.5981 8.91699 21.0832 9.40202 21.0832 10.0003L21.0832 18.917H29.9998C30.5981 18.917 31.0832 19.402 31.0832 20.0003C31.0832 20.5986 30.5981 21.0837 29.9998 21.0837H21.0832V30.0003C21.0832 30.5986 20.5981 31.0837 19.9998 31.0837C19.4015 31.0837 18.9165 30.5986 18.9165 30.0003L18.9165 21.0837H9.99984C9.40153 21.0837 8.9165 20.5986 8.9165 20.0003C8.9165 19.402 9.40153 18.917 9.99984 18.917H18.9165L18.9165 10.0003C18.9165 9.40202 19.4015 8.91699 19.9998 8.91699Z" fill="white"/>
</g>
</svg>
