<svg width="25" height="24" viewBox="0 0 25 24" fill="none" xmlns="http://www.w3.org/2000/svg">
<g id="icon/+-medium">
<path id="Icon (Stroke)" fill-rule="evenodd" clip-rule="evenodd" d="M12.5 5.34961C12.859 5.34961 13.15 5.64062 13.15 5.99961L13.15 11.3496H18.5C18.859 11.3496 19.15 11.6406 19.15 11.9996C19.15 12.3586 18.859 12.6496 18.5 12.6496H13.15L13.15 17.9996C13.15 18.3586 12.859 18.6496 12.5 18.6496C12.141 18.6496 11.85 18.3586 11.85 17.9996L11.85 12.6496H6.49998C6.14099 12.6496 5.84998 12.3586 5.84998 11.9996C5.84998 11.6406 6.14099 11.3496 6.49998 11.3496H11.85L11.85 5.99961C11.85 5.64062 12.141 5.34961 12.5 5.34961Z" fill="white"/>
</g>
</svg>
