<svg width="25" height="25" viewBox="0 0 25 25" fill="none" xmlns="http://www.w3.org/2000/svg">
<g id="icon/+-small">
<path id="Icon (Stroke)" fill-rule="evenodd" clip-rule="evenodd" d="M12.5 7.0498C12.859 7.0498 13.15 7.34082 13.15 7.6998V11.8498H17.3C17.659 11.8498 17.95 12.1408 17.95 12.4998C17.95 12.8588 17.659 13.1498 17.3 13.1498H13.15V17.2998C13.15 17.6588 12.859 17.9498 12.5 17.9498C12.1411 17.9498 11.85 17.6588 11.85 17.2998L11.85 13.1498H7.70005C7.34106 13.1498 7.05005 12.8588 7.05005 12.4998C7.05005 12.1408 7.34106 11.8498 7.70005 11.8498H11.85L11.85 7.6998C11.85 7.34082 12.1411 7.0498 12.5 7.0498Z" fill="#B3B3B3"/>
</g>
</svg>
