<svg width="18" height="18" viewBox="0 0 18 18" fill="none" xmlns="http://www.w3.org/2000/svg">
<path fill-rule="evenodd" clip-rule="evenodd" d="M14 0.500001C14.5523 0.500001 15.0026 0.948007 14.9752 1.49961C14.9694 1.61651 14.9625 1.73319 14.9547 1.84961H16.1399C16.9739 1.84961 17.65 2.52572 17.65 3.35975C17.65 6.08327 15.7584 8.44138 13.0997 9.0322L12.7314 9.11405C12.2954 9.74881 11.8125 10.2705 11.2961 10.6627C10.9572 10.92 10.607 11.1192 10.25 11.2586V14.5H11C12.1046 14.5 13 15.3954 13 16.5C13 17.0523 12.5523 17.5 12 17.5H6C5.44771 17.5 5 17.0523 5 16.5C5 15.3954 5.89543 14.5 7 14.5H7.75V11.2586C7.39297 11.1192 7.04277 10.92 6.7039 10.6627C6.18749 10.2705 5.70456 9.74881 5.26859 9.11405L4.90025 9.0322C2.24158 8.44138 0.349976 6.08327 0.349976 3.35975C0.349976 2.52572 1.02609 1.84961 1.86011 1.84961H3.04533C3.03748 1.73319 3.03064 1.61651 3.02483 1.49961C2.99737 0.948006 3.44772 0.5 4 0.5L14 0.500001ZM14.5433 4.70952C14.658 4.20191 14.7515 3.68044 14.8233 3.14961H16.1399C16.2559 3.14961 16.35 3.24369 16.35 3.35975C16.35 5.18523 15.2553 6.79923 13.6278 7.50126C14.0061 6.66063 14.315 5.72003 14.5433 4.70952ZM3.17666 3.14961H1.86011C1.74406 3.14961 1.64998 3.24369 1.64998 3.35975C1.64998 5.18523 2.7447 6.79923 4.37223 7.50126C3.99385 6.66063 3.68503 5.72003 3.45672 4.70952C3.34204 4.20191 3.24852 3.68044 3.17666 3.14961Z" fill="#100C09"/>
</svg>
