<svg width="18" height="18" viewBox="0 0 18 18" fill="none" xmlns="http://www.w3.org/2000/svg">
<path fill-rule="evenodd" clip-rule="evenodd" d="M14.9752 1.49961C15.0027 0.948008 14.5523 0.5 14 0.5H4.00005C3.44776 0.5 2.99742 0.948007 3.02487 1.49961C3.03069 1.61651 3.03753 1.73319 3.04538 1.84961H1.86011C1.02609 1.84961 0.349976 2.52572 0.349976 3.35975C0.349976 6.08327 2.24158 8.44138 4.90025 9.03219L5.26864 9.11406C5.70462 9.74881 6.18755 10.2705 6.70395 10.6627C6.91525 10.8231 7.13096 10.961 7.34998 11.0758V13.5H7C5.89543 13.5 5 14.3954 5 15.5V16.5C5 17.0523 5.44772 17.5 6 17.5H12C12.5523 17.5 13 17.0523 13 16.5V15.5C13 14.3954 12.1046 13.5 11 13.5H10.65V11.0759C10.869 10.9611 11.0848 10.8232 11.2961 10.6627C11.8126 10.2705 12.2955 9.7488 12.7315 9.11403L13.0997 9.03219C15.7584 8.44138 17.65 6.08327 17.65 3.35975C17.65 2.52572 16.9739 1.84961 16.1399 1.84961H14.9547C14.9626 1.73319 14.9694 1.61651 14.9752 1.49961ZM13.6551 1.8L4.34503 1.8C4.40783 2.70388 4.53578 3.58637 4.72481 4.42302C5.00435 5.6603 5.40819 6.75645 5.89867 7.65567C6.39107 8.5584 6.94248 9.21146 7.49016 9.62736C8.02965 10.0371 8.53999 10.2 9.00005 10.2C9.46011 10.2 9.97044 10.0371 10.5099 9.62736C11.0576 9.21146 11.609 8.5584 12.1014 7.65567C12.5919 6.75645 12.9957 5.6603 13.2753 4.42303C13.4643 3.58637 13.5923 2.70388 13.6551 1.8ZM14.8234 3.14961C14.7515 3.68044 14.658 4.20191 14.5433 4.70952C14.315 5.72002 14.0062 6.66061 13.6278 7.50123C15.2553 6.79919 16.35 5.18521 16.35 3.35975C16.35 3.24369 16.2559 3.14961 16.1399 3.14961H14.8234ZM1.86011 3.14961H3.17671C3.24857 3.68044 3.34209 4.20191 3.45677 4.70952C3.68508 5.72004 3.99391 6.66065 4.37229 7.50128C2.74473 6.79927 1.64998 5.18525 1.64998 3.35975C1.64998 3.24369 1.74406 3.14961 1.86011 3.14961ZM9.34998 13.5V11.4813C9.2336 11.4937 9.11691 11.5 9.00005 11.5C8.88314 11.5 8.7664 11.4937 8.64998 11.4813V13.5H9.34998ZM7 14.8H11C11.3866 14.8 11.7 15.1134 11.7 15.5V16.2H6.3V15.5C6.3 15.1134 6.6134 14.8 7 14.8Z" fill="#523D2E"/>
</svg>
