<svg width="271" height="289" viewBox="0 0 271 289" fill="none" xmlns="http://www.w3.org/2000/svg">
<path d="M80.0962 224.125C80.0884 227.766 77.69 230.32 73.5806 231.469L72.8775 230.109C76.0416 229.25 77.9166 227.594 78.2369 225.531H73.6431V224.125H80.0962ZM75.315 237.203V231.797H84.6119V237.203H75.315ZM77.0181 235.828H82.8931V233.172H77.0181V235.828ZM80.1587 228.156V226.734H82.8775V223.281H84.6119V231.234H82.8775V228.156H80.1587ZM90.6981 225.828C90.7059 227.406 91.5809 228.969 93.4325 229.703L92.495 231.031C91.2528 230.531 90.3778 229.609 89.8778 228.484C89.3544 229.75 88.4325 230.828 87.0887 231.406L86.1669 230.062C88.1122 229.211 89.0184 227.422 89.0262 225.828V224.109H90.6981V225.828ZM88.6981 233.891V232.5H98.37V237.391H96.6356V233.891H88.6981ZM93.6825 231.75V223.516H95.3075V226.797H96.7137V223.281H98.37V231.828H96.7137V228.234H95.3075V231.75H93.6825ZM111.628 223.266V230.422H109.894V229.188H106.487V227.859H109.894V226.469H106.667C105.792 228.625 103.722 230.031 100.597 230.734L99.9875 229.312C103.308 228.617 104.964 227.156 105.206 225.281H100.769V223.875H107.144C107.144 224.32 107.105 224.742 107.042 225.141H109.894V223.266H111.628ZM102.331 232.344V230.969H111.628V234.688H104.081V235.859H112.003V237.25H102.347V233.391H109.894V232.344H102.331ZM121.199 224.734V225.734C121.199 226.992 121.199 228.773 120.808 231.203L119.089 231.062C119.433 228.922 119.472 227.336 119.48 226.125H113.933V224.734H121.199ZM113.183 233.031C114.019 233.023 114.949 233.016 115.917 232.992V228.766H117.636V232.938C119.074 232.875 120.55 232.773 121.902 232.609L121.996 233.906C119.082 234.383 115.847 234.438 113.355 234.422L113.183 233.031ZM122.636 237.391V223.266H124.386V229.016H126.433V230.484H124.386V237.391H122.636ZM137.879 223.266V228.781H139.972V230.234H137.879V237.359H136.144V223.266H137.879ZM126.738 233.5C130.176 231.781 132.035 229.391 132.379 226.172H127.504V224.734H134.144C134.137 228.883 132.418 232.531 127.722 234.844L126.738 233.5ZM147.004 231.531V233.047H148.864V231.531H150.473V236.016C152.137 235.312 152.895 233.898 152.895 232.547V231.422H154.629V232.547C154.622 234.008 155.387 235.438 157.129 236.031L156.239 237.328C154.989 236.875 154.192 236.023 153.747 234.953C153.278 235.992 152.473 236.859 151.301 237.328L150.473 236.102V237.219H145.379V231.531H147.004ZM143.989 227.125C143.989 225.195 145.559 223.836 147.723 223.844C149.543 223.836 150.981 224.859 151.34 226.391H153.895V223.266H155.629V230.75H153.895V227.828H151.348C151.004 229.398 149.559 230.438 147.723 230.438C145.559 230.438 143.989 229.086 143.989 227.125ZM145.645 227.125C145.645 228.266 146.504 229.016 147.723 229.016C148.911 229.016 149.762 228.266 149.77 227.125C149.762 226.008 148.911 225.273 147.723 225.281C146.504 225.273 145.645 226.008 145.645 227.125ZM147.004 235.891H148.864V234.344H147.004V235.891ZM160.575 231.734V233.078H166.794V231.734H168.528V237.219H158.856V231.734H160.575ZM157.309 230.938V229.516H170.184V230.938H157.309ZM157.966 227.406C160.919 227.039 162.848 225.523 162.856 223.953V223.422H164.637V223.953C164.637 225.477 166.575 227.062 169.497 227.406L168.887 228.781C166.52 228.461 164.653 227.406 163.747 225.977C162.833 227.414 160.958 228.461 158.606 228.781L157.966 227.406ZM160.575 235.844H166.794V234.406H160.575V235.844ZM182.599 223.266V237.391H180.88V223.266H182.599ZM171.63 233.844V224.641H173.349V232.359C175.325 232.328 177.435 232.156 179.614 231.719L179.833 233.172C177.349 233.688 175.044 233.852 172.849 233.844H171.63ZM195.388 223.266V228.625H197.56V230.047H195.388V237.406H193.654V223.266H195.388ZM184.904 233.953V224.609H191.513V226.016H186.638V232.5C188.833 232.492 190.576 232.383 192.513 232.047L192.716 233.516C190.521 233.891 188.622 233.953 186.076 233.953H184.904Z" fill="#B3B3B3"/>
<path d="M65 152.928L87 175.428L103.5 166.428L86.5 135.428L65 152.928Z" fill="url(#paint0_linear_1161_7325)"/>
<path d="M65 41.4277C65 34.8003 70.3726 29.4277 77 29.4277H177C183.627 29.4277 189 34.8003 189 41.4277V163.428C189 170.055 183.627 175.428 177 175.428H87V160.928C87 156.509 83.4183 152.928 79 152.928H65V41.4277Z" fill="url(#paint1_linear_1161_7325)"/>
<path d="M195.454 131.919C203.142 155.263 190.451 180.419 167.108 188.107C143.765 195.795 118.609 183.104 110.921 159.761C103.232 136.418 115.923 111.262 139.267 103.574C162.61 95.8853 187.766 108.576 195.454 131.919ZM128.123 154.095C132.682 167.938 147.6 175.463 161.442 170.904C175.285 166.345 182.81 151.428 178.251 137.585C173.692 123.743 158.775 116.217 144.932 120.776C131.09 125.335 123.564 140.253 128.123 154.095Z" fill="url(#paint2_linear_1161_7325)"/>
<g filter="url(#filter0_b_1161_7325)">
<circle cx="164.565" cy="149.217" r="35.3821" transform="rotate(-45 164.565 149.217)" fill="#F2F2F3" fill-opacity="0.4"/>
</g>
<line x1="144.552" y1="170.396" x2="177.642" y2="113.083" stroke="url(#paint3_linear_1161_7325)" stroke-width="10.2722"/>
<line x1="133.035" y1="162.252" x2="166.124" y2="104.939" stroke="url(#paint4_linear_1161_7325)" stroke-width="6.84815"/>
<g filter="url(#filter1_bii_1161_7325)">
<path fill-rule="evenodd" clip-rule="evenodd" d="M201.24 178.271C215.364 160.329 213.998 134.085 197.251 117.338C179.199 99.2858 150.112 99.1052 132.283 116.934C114.453 134.763 114.634 163.851 132.686 181.903C148.392 197.608 172.451 199.787 190.181 188.346C190.328 188.523 190.484 188.694 190.649 188.859L207.377 205.587C210.302 208.512 215.043 208.512 217.967 205.587C220.891 202.663 220.891 197.922 217.967 194.998L201.24 178.271ZM188.415 173.066C175.626 185.855 154.761 185.726 141.812 172.777C128.863 159.828 128.734 138.963 141.523 126.174C154.312 113.385 175.176 113.515 188.125 126.464C201.074 139.413 201.204 160.277 188.415 173.066Z" fill="url(#paint5_linear_1161_7325)" fill-opacity="0.25"/>
</g>
<path d="M162.235 156.754C162.275 151.638 163.719 150.073 166.247 148.529C167.953 147.425 169.277 146.081 169.257 144.075C169.277 141.828 167.511 140.383 165.324 140.383C163.338 140.383 161.412 141.667 161.272 144.356H156.256C156.396 138.959 160.409 136.21 165.364 136.21C170.781 136.21 174.493 139.219 174.513 143.994C174.493 147.265 172.868 149.391 170.26 150.936C167.932 152.361 166.969 153.745 166.929 156.754V157.116H162.235V156.754ZM161.593 163.854C161.573 162.168 162.997 160.784 164.722 160.764C166.388 160.784 167.812 162.168 167.812 163.854C167.812 165.579 166.388 166.983 164.722 166.983C162.997 166.983 161.573 165.579 161.593 163.854Z" fill="#8E8E90"/>
<rect x="83" y="53.4277" width="88" height="21" rx="4" fill="white"/>
<rect x="83" y="83.4277" width="88" height="3" rx="1.5" fill="white"/>
<rect x="83" y="90.4277" width="88" height="3" rx="1.5" fill="white"/>
<rect x="83" y="97.4277" width="42" height="3" rx="1.5" fill="white"/>
<ellipse cx="158.769" cy="144.197" rx="2.51489" ry="2.5" fill="#8E8E90"/>
<circle cx="164.588" cy="157.045" r="2.35547" fill="#8E8E90"/>
<defs>
<filter id="filter0_b_1161_7325" x="121.183" y="105.835" width="86.7646" height="86.7637" filterUnits="userSpaceOnUse" color-interpolation-filters="sRGB">
<feFlood flood-opacity="0" result="BackgroundImageFix"/>
<feGaussianBlur in="BackgroundImageFix" stdDeviation="4"/>
<feComposite in2="SourceAlpha" operator="in" result="effect1_backgroundBlur_1161_7325"/>
<feBlend mode="normal" in="SourceGraphic" in2="effect1_backgroundBlur_1161_7325" result="shape"/>
</filter>
<filter id="filter1_bii_1161_7325" x="107.028" y="91.6797" width="125.132" height="128.101" filterUnits="userSpaceOnUse" color-interpolation-filters="sRGB">
<feFlood flood-opacity="0" result="BackgroundImageFix"/>
<feGaussianBlur in="BackgroundImageFix" stdDeviation="6"/>
<feComposite in2="SourceAlpha" operator="in" result="effect1_backgroundBlur_1161_7325"/>
<feBlend mode="normal" in="SourceGraphic" in2="effect1_backgroundBlur_1161_7325" result="shape"/>
<feColorMatrix in="SourceAlpha" type="matrix" values="0 0 0 0 0 0 0 0 0 0 0 0 0 0 0 0 0 0 127 0" result="hardAlpha"/>
<feOffset dx="1" dy="1"/>
<feGaussianBlur stdDeviation="0.5"/>
<feComposite in2="hardAlpha" operator="arithmetic" k2="-1" k3="1"/>
<feColorMatrix type="matrix" values="0 0 0 0 1 0 0 0 0 1 0 0 0 0 1 0 0 0 0.5 0"/>
<feBlend mode="normal" in2="shape" result="effect2_innerShadow_1161_7325"/>
<feColorMatrix in="SourceAlpha" type="matrix" values="0 0 0 0 0 0 0 0 0 0 0 0 0 0 0 0 0 0 127 0" result="hardAlpha"/>
<feOffset dx="0.5" dy="0.5"/>
<feGaussianBlur stdDeviation="0.25"/>
<feComposite in2="hardAlpha" operator="arithmetic" k2="-1" k3="1"/>
<feColorMatrix type="matrix" values="0 0 0 0 1 0 0 0 0 1 0 0 0 0 1 0 0 0 0.4 0"/>
<feBlend mode="normal" in2="effect2_innerShadow_1161_7325" result="effect3_innerShadow_1161_7325"/>
</filter>
<linearGradient id="paint0_linear_1161_7325" x1="85.5" y1="153.743" x2="74.5" y2="164.743" gradientUnits="userSpaceOnUse">
<stop stop-color="#F6C8A0"/>
<stop offset="1" stop-color="#FBE5D4"/>
</linearGradient>
<linearGradient id="paint1_linear_1161_7325" x1="127" y1="29.4277" x2="127" y2="175.428" gradientUnits="userSpaceOnUse">
<stop stop-color="#FFE8D5"/>
<stop offset="1" stop-color="#FCF0E6"/>
</linearGradient>
<linearGradient id="paint2_linear_1161_7325" x1="134.5" y1="102.652" x2="160.5" y2="137.152" gradientUnits="userSpaceOnUse">
<stop offset="0.025917" stop-color="#F9CFB5" stop-opacity="0.4"/>
<stop offset="1" stop-color="#F9CFB5" stop-opacity="0"/>
</linearGradient>
<linearGradient id="paint3_linear_1161_7325" x1="149.433" y1="173.214" x2="182.523" y2="115.901" gradientUnits="userSpaceOnUse">
<stop stop-color="white" stop-opacity="0"/>
<stop offset="1" stop-color="white"/>
</linearGradient>
<linearGradient id="paint4_linear_1161_7325" x1="136.433" y1="164.214" x2="169.523" y2="106.901" gradientUnits="userSpaceOnUse">
<stop stop-color="white" stop-opacity="0"/>
<stop offset="1" stop-color="white"/>
</linearGradient>
<linearGradient id="paint5_linear_1161_7325" x1="221.5" y1="202.651" x2="138" y2="176.651" gradientUnits="userSpaceOnUse">
<stop stop-color="#C9C9C9"/>
<stop offset="1" stop-color="#483535"/>
</linearGradient>
</defs>
</svg>
