<svg width="38" height="38" viewBox="0 0 38 38" fill="none" xmlns="http://www.w3.org/2000/svg">
<rect width="38" height="38" rx="19" fill="#666666"/>
<path d="M12.75 19C12.75 19.6904 12.1904 20.25 11.5 20.25C10.8096 20.25 10.25 19.6904 10.25 19C10.25 18.3096 10.8096 17.75 11.5 17.75C12.1904 17.75 12.75 18.3096 12.75 19Z" fill="white"/>
<path d="M20.25 19C20.25 19.6904 19.6904 20.25 19 20.25C18.3096 20.25 17.75 19.6904 17.75 19C17.75 18.3096 18.3096 17.75 19 17.75C19.6904 17.75 20.25 18.3096 20.25 19Z" fill="white"/>
<path d="M27.75 19C27.75 19.6904 27.1904 20.25 26.5 20.25C25.8096 20.25 25.25 19.6904 25.25 19C25.25 18.3096 25.8096 17.75 26.5 17.75C27.1904 17.75 27.75 18.3096 27.75 19Z" fill="white"/>
</svg>
