<svg width="24" height="24" viewBox="0 0 24 24" fill="none" xmlns="http://www.w3.org/2000/svg">
<g id="icon/send lined">
<path id="Vector 943 (Stroke)" fill-rule="evenodd" clip-rule="evenodd" d="M19.4157 5.1904C19.5898 5.36449 19.6506 5.622 19.5727 5.85557L14.6987 20.4778C14.2294 21.8856 12.2851 22.0066 11.6448 20.6679L9.15149 15.4546L3.93821 12.9613C2.59946 12.321 2.7205 10.3767 4.12834 9.90744L18.7505 5.03337C18.9841 4.95552 19.2416 5.01631 19.4157 5.1904ZM10.4237 15.1016L12.8176 20.107C12.9534 20.391 13.3658 20.3653 13.4654 20.0667L17.4687 8.05662L10.4237 15.1016ZM16.5495 7.13738L9.50447 14.1824L4.4991 11.7885C4.21512 11.6527 4.2408 11.2403 4.53943 11.1407L16.5495 7.13738Z" fill="#999999"/>
</g>
</svg>
