<svg width="25" height="24" viewBox="0 0 25 24" fill="none" xmlns="http://www.w3.org/2000/svg">
<g id="icon/share">
<g id="Union">
<path d="M12.7097 4.53999C12.4559 4.28615 12.0443 4.28615 11.7905 4.53999L7.29048 9.03999C7.03664 9.29383 7.03664 9.70539 7.29048 9.95923C7.54432 10.2131 7.95588 10.2131 8.20972 9.95923L11.6001 6.56885V14.9996C11.6001 15.3586 11.8911 15.6496 12.2501 15.6496C12.6091 15.6496 12.9001 15.3586 12.9001 14.9996V6.56885L16.2905 9.95923C16.5443 10.2131 16.9559 10.2131 17.2097 9.95923C17.4636 9.70539 17.4636 9.29383 17.2097 9.03999L12.7097 4.53999Z" fill="black"/>
<path d="M5.9001 13.9996C5.9001 13.6406 5.60908 13.3496 5.2501 13.3496C4.89111 13.3496 4.6001 13.6406 4.6001 13.9996V17.9996C4.6001 18.9109 5.33883 19.6496 6.2501 19.6496H18.2501C19.1614 19.6496 19.9001 18.9109 19.9001 17.9996V13.9996C19.9001 13.6406 19.6091 13.3496 19.2501 13.3496C18.8911 13.3496 18.6001 13.6406 18.6001 13.9996V17.9996C18.6001 18.1929 18.4434 18.3496 18.2501 18.3496H6.2501C6.0568 18.3496 5.9001 18.1929 5.9001 17.9996V13.9996Z" fill="black"/>
</g>
</g>
</svg>
