<svg width="152" height="64" viewBox="0 0 152 64" fill="none" xmlns="http://www.w3.org/2000/svg">
<path d="M143.748 22.0933V30.4775H137.942V44.6756C137.942 46.2362 138.706 46.8482 140.326 46.94C141.151 46.9706 142.862 46.8788 144.176 46.7564V55.3854C143.107 55.5996 141.273 55.7832 138.676 55.8138C130.639 55.7832 126.299 52.7539 126.391 45.8384V30.4775H122.113V22.0933H126.391V14.1375H137.942V22.0933H143.748Z" fill="black"/>
<path d="M106.589 55.3242V22.0933H118.14V55.3242H106.589Z" fill="black"/>
<path d="M49.5657 55.3242V22.0933H60.5058V28.3356H60.8725C62.2477 24.2353 65.762 21.6649 70.3458 21.6649C74.9907 21.6649 78.6578 24.2965 79.3912 28.3356H79.7579C80.9192 24.2965 84.8613 21.6649 89.7812 21.6649C96.1069 21.6649 100.446 26.0406 100.477 32.9255V55.3242H88.9256V35.8018C88.895 32.7725 87.2143 30.9977 84.7085 30.9671C82.111 30.9977 80.5219 32.8337 80.5525 35.8018V55.3242H69.4901V35.7406C69.4596 32.8031 67.8094 30.9977 65.273 30.9671C62.7061 30.9977 61.0864 32.8643 61.117 35.863V55.3242H49.5657Z" fill="black"/>
<path d="M32.8806 24.7248C32.6361 21.7567 30.6803 19.9819 26.7077 20.0125C22.8878 19.9819 21.1154 21.5119 21.0848 23.5621C20.9932 25.857 23.0712 27.1116 27.1966 27.9684L30.8637 28.8252C40.3675 30.8447 44.6152 35.4652 44.6763 42.2889C44.6152 50.9791 37.9533 55.8444 26.7688 55.875C15.3398 55.8444 7.91394 50.8873 7.82227 39.9633H18.9457C19.1291 44.0943 21.971 46.2668 26.5854 46.2668C30.5887 46.2668 32.7278 44.645 32.7583 42.2889C32.7278 40.1469 30.8942 38.8924 25.9743 37.8214L21.5127 36.8422C13.7201 35.1286 8.95295 31.2731 8.9835 24.4188C8.92239 16.0346 16.3176 10.4043 26.7077 10.4043C37.3116 10.4043 44.004 16.1264 44.0651 24.7248H32.8806Z" fill="black"/>
<path d="M112.334 7.83398C109.156 7.83398 106.558 10.2207 106.589 13.1583C106.558 16.1264 109.156 18.5132 112.334 18.4826C115.482 18.5132 118.079 16.1264 118.079 13.1583C118.079 10.2207 115.482 7.83398 112.334 7.83398Z" fill="#FF9945"/>
</svg>
