<svg width="14" height="14" viewBox="0 0 14 14" fill="none" xmlns="http://www.w3.org/2000/svg">
<path id="Icon (Stroke)" fill-rule="evenodd" clip-rule="evenodd" d="M0.541944 0.53999C0.795784 0.286149 1.20734 0.286149 1.46118 0.53999L7.00156 6.08037L12.5419 0.539993C12.7958 0.286152 13.2073 0.286152 13.4612 0.539993C13.715 0.793833 13.715 1.20539 13.4612 1.45923L7.9208 6.99961L13.4612 12.54C13.715 12.7938 13.715 13.2054 13.4612 13.4592C13.2073 13.7131 12.7958 13.7131 12.5419 13.4592L7.00156 7.91885L1.46118 13.4592C1.20734 13.7131 0.795784 13.7131 0.541943 13.4592C0.288102 13.2054 0.288102 12.7938 0.541943 12.54L6.08232 6.99961L0.541944 1.45923C0.288103 1.20539 0.288103 0.793831 0.541944 0.53999Z" fill="white"/>
</svg>
