<svg width="16" height="16" viewBox="0 0 16 16" fill="none" xmlns="http://www.w3.org/2000/svg">
<path d="M9.26458 14.8676L8 15.4999L6.73543 14.8676C5.01343 14.0066 2.98657 14.0066 1.26457 14.8676C0.683584 15.1581 0 14.7356 0 14.0861V2.11797C0 1.7392 0.214002 1.39293 0.552786 1.22354L0.869505 1.06518C2.8402 0.0798354 5.1598 0.0798352 7.13049 1.06518L8 1.49993L8.8695 1.06518C10.8402 0.0798354 13.1598 0.0798352 15.1305 1.06518L15.4472 1.22354C15.786 1.39293 16 1.7392 16 2.11797V14.0861C16 14.7356 15.3164 15.1581 14.7354 14.8676C13.0134 14.0066 10.9866 14.0066 9.26458 14.8676Z" fill="black"/>
<path fill-rule="evenodd" clip-rule="evenodd" d="M8 2.51462C8.35898 2.51462 8.65 2.80564 8.65 3.16462V13.4996C8.65 13.8586 8.35899 14.1496 8 14.1496C7.64102 14.1496 7.35 13.8586 7.35 13.4996L7.35 3.16462C7.35 2.80564 7.64102 2.51462 8 2.51462Z" fill="white"/>
</svg>
