<svg width="18" height="16" viewBox="0 0 18 16" fill="none" xmlns="http://www.w3.org/2000/svg">
<path fill-rule="evenodd" clip-rule="evenodd" d="M8.35 2.62831L7.54912 2.22787C5.94441 1.42551 3.55559 1.42558 1.95088 2.22794L1.8 2.30338V13.4308C3.74406 12.6707 6.43118 12.762 8.3168 13.7048L8.35 13.7214V2.62831ZM9.65 13.7214V2.62831L10.4509 2.22787C12.0556 1.42552 14.3953 1.50096 16 2.30331L16.1509 2.37875V13.5062C14.2068 12.7461 11.5688 12.762 9.6832 13.7048L9.65 13.7214ZM10.2646 14.8676C11.9866 14.0066 14.4643 14.082 16.1863 14.943C16.7673 15.2335 17.4509 14.811 17.4509 14.1615V2.19334C17.4509 1.81457 17.2369 1.46831 16.8981 1.29891L16.5814 1.14055C14.6107 0.155209 11.8402 0.0797668 9.8695 1.06511L9 1.49987L8.13049 1.06511C6.1598 0.0797666 3.3402 0.0798354 1.36951 1.06518L1.05279 1.22354C0.714002 1.39293 0.5 1.7392 0.5 2.11797V14.0861C0.5 14.7357 1.18358 15.1581 1.76457 14.8676C3.48656 14.0066 6.01343 14.0066 7.73543 14.8676L9 15.4999L10.2646 14.8676Z" fill="#523D2E"/>
</svg>
