<svg width="10" height="10" viewBox="0 0 10 10" fill="none" xmlns="http://www.w3.org/2000/svg">
<path fill-rule="evenodd" clip-rule="evenodd" d="M9.02022 1.35355C9.21548 1.15829 9.21548 0.841709 9.02022 0.646447C8.82496 0.451184 8.50838 0.451184 8.31311 0.646447L4.83333 4.12623L1.35356 0.646447C1.15829 0.451184 0.841711 0.451184 0.646448 0.646447C0.451186 0.841709 0.451186 1.15829 0.646448 1.35355L4.12623 4.83333L0.646447 8.31311C0.451184 8.50838 0.451184 8.82496 0.646447 9.02022C0.841708 9.21548 1.15829 9.21548 1.35355 9.02022L4.83333 5.54044L8.31312 9.02022C8.50838 9.21548 8.82496 9.21548 9.02022 9.02022C9.21548 8.82496 9.21548 8.50838 9.02022 8.31311L5.54044 4.83333L9.02022 1.35355Z" fill="white"/>
</svg>
