<svg width="18" height="17" viewBox="0 0 18 17" fill="none" xmlns="http://www.w3.org/2000/svg">
<path fill-rule="evenodd" clip-rule="evenodd" d="M9.00001 7.70586C10.3897 7.70586 11.6667 6.47103 11.6667 4.75586C11.6667 3.04069 10.3897 1.80586 9.00001 1.80586C7.61027 1.80586 6.33334 3.04069 6.33334 4.75586C6.33334 6.47103 7.61027 7.70586 9.00001 7.70586ZM6.916 9.8581C7.59169 9.70999 8.29129 9.63328 9.00001 9.63328C9.70873 9.63328 10.4083 9.70999 11.084 9.8581C12.5576 10.1811 13.9175 10.8437 15.0104 11.7909C16.057 12.698 16.8025 13.8172 17.1911 15.032C17.5277 16.084 16.6046 16.9999 15.5 16.9999L2.50001 16.9999C1.39544 16.9999 0.472354 16.084 0.808909 15.032C1.19752 13.8172 1.943 12.698 2.9896 11.7909C4.08252 10.8437 5.44241 10.1811 6.916 9.8581ZM7.11307 8.49512C5.87447 7.7761 5.03334 6.37122 5.03334 4.75586C5.03334 2.40865 6.80928 0.505859 9.00001 0.505859C11.1907 0.505859 12.9667 2.40865 12.9667 4.75586C12.9667 6.37122 12.1255 7.7761 10.8869 8.49512C10.3258 8.82088 9.68306 9.00586 9.00001 9.00586C8.31695 9.00586 7.67422 8.82088 7.11307 8.49512ZM15.9529 15.4281C15.6413 14.4539 15.0362 13.5336 14.159 12.7733C12.8183 11.6114 10.9649 10.9333 9.00001 10.9333C7.03514 10.9333 5.18168 11.6114 3.84101 12.7733C2.96379 13.5336 2.35874 14.4539 2.04709 15.4281C2.03991 15.4505 2.03887 15.4635 2.03869 15.4683C2.0385 15.4732 2.03895 15.4758 2.0395 15.4781C2.04036 15.4817 2.04639 15.5034 2.07721 15.5374C2.14609 15.6134 2.29721 15.6999 2.50001 15.6999L15.5 15.6999C15.7028 15.6999 15.8539 15.6134 15.9228 15.5374C15.9536 15.5034 15.9597 15.4817 15.9605 15.4781C15.9611 15.4758 15.9615 15.4732 15.9613 15.4683C15.9611 15.4635 15.9601 15.4505 15.9529 15.4281Z" fill="#523D2E"/>
</svg>
