<svg width="14" height="14" viewBox="0 0 14 14" fill="none" xmlns="http://www.w3.org/2000/svg">
<g id="icon/user lined">
<path id="Vector (Stroke)" fill-rule="evenodd" clip-rule="evenodd" d="M7.00004 6.53691C7.81072 6.53691 8.55559 5.8166 8.55559 4.81608C8.55559 3.81556 7.81072 3.09525 7.00004 3.09525C6.18935 3.09525 5.44448 3.81556 5.44448 4.81608C5.44448 5.8166 6.18935 6.53691 7.00004 6.53691ZM5.78436 7.79239C6.17852 7.70599 6.58661 7.66124 7.00004 7.66124C7.41346 7.66124 7.82156 7.70599 8.21571 7.79239C9.0753 7.98081 9.86857 8.36734 10.5061 8.91987C11.1166 9.44898 11.5515 10.1019 11.7782 10.8105C11.9745 11.4242 11.436 11.9585 10.7917 11.9585L3.20837 11.9585C2.56404 11.9585 2.02557 11.4242 2.22189 10.8105C2.44858 10.1019 2.88345 9.44898 3.49396 8.91987C4.1315 8.36734 4.92477 7.98081 5.78436 7.79239ZM5.89932 6.99732C5.17681 6.57789 4.68615 5.75838 4.68615 4.81608C4.68615 3.44687 5.72211 2.33691 7.00004 2.33691C8.27796 2.33691 9.31392 3.44687 9.31392 4.81608C9.31392 5.75838 8.82326 6.57789 8.10075 6.99732C7.77341 7.18734 7.39849 7.29525 7.00004 7.29525C6.60159 7.29525 6.22666 7.18734 5.89932 6.99732ZM11.0559 11.0415C10.8741 10.4733 10.5212 9.93642 10.0095 9.49293C9.22739 8.81515 8.14621 8.41957 7.00004 8.41957C5.85386 8.41957 4.77268 8.81515 3.99062 9.49293C3.47891 9.93642 3.12596 10.4733 2.94417 11.0415C2.93998 11.0546 2.93937 11.0622 2.93927 11.065C2.93916 11.0678 2.93942 11.0694 2.93974 11.0707C2.94024 11.0728 2.94376 11.0855 2.96174 11.1053C3.00192 11.1496 3.09007 11.2001 3.20837 11.2001L10.7917 11.2001C10.91 11.2001 10.9982 11.1496 11.0383 11.1053C11.0563 11.0855 11.0598 11.0728 11.0603 11.0707C11.0607 11.0694 11.0609 11.0678 11.0608 11.065C11.0607 11.0622 11.0601 11.0546 11.0559 11.0415Z" fill="#808080"/>
</g>
</svg>
