<svg width="18" height="16" viewBox="0 0 18 16" fill="none" xmlns="http://www.w3.org/2000/svg">
<path d="M12.2331 4.19043C12.2331 6.17949 10.7426 7.71132 8.99989 7.71132C7.25718 7.71132 5.76664 6.17949 5.76664 4.19043C5.76664 2.20136 7.25718 0.669531 8.99989 0.669531C10.7426 0.669531 12.2331 2.20136 12.2331 4.19043ZM16.726 14.4867C16.7911 14.7029 16.7369 14.895 16.5916 15.0544C16.4365 15.2246 16.1765 15.3505 15.8747 15.3505H2.12514C1.82335 15.3505 1.56336 15.2246 1.40823 15.0544C1.26298 14.895 1.20879 14.7029 1.27387 14.4867C1.60669 13.3813 2.30549 12.3429 3.3313 11.4989C4.81693 10.2766 6.85469 9.57439 8.99993 9.57439C11.1452 9.57439 13.1829 10.2766 14.6685 11.4989C15.6944 12.3429 16.3932 13.3813 16.726 14.4867Z" fill="#100C09" stroke="#100C09" stroke-width="1.3" stroke-linejoin="round"/>
</svg>
