<svg width="24" height="24" viewBox="0 0 24 24" fill="none" xmlns="http://www.w3.org/2000/svg">
<g id="icon/x-medium">
<path id="Icon (Stroke)" fill-rule="evenodd" clip-rule="evenodd" d="M5.54036 5.53999C5.7942 5.28615 6.20575 5.28615 6.4596 5.53999L12 11.0804L17.5404 5.53999C17.7942 5.28615 18.2058 5.28615 18.4596 5.53999C18.7134 5.79383 18.7134 6.20539 18.4596 6.45923L12.9192 11.9996L18.4596 17.54C18.7134 17.7938 18.7134 18.2054 18.4596 18.4592C18.2058 18.7131 17.7942 18.7131 17.5404 18.4592L12 12.9188L6.45959 18.4592C6.20575 18.7131 5.7942 18.7131 5.54036 18.4592C5.28652 18.2054 5.28652 17.7938 5.54036 17.54L11.0807 11.9996L5.54036 6.45923C5.28652 6.20539 5.28652 5.79383 5.54036 5.53999Z" fill="black"/>
</g>
</svg>
