<svg width="24" height="24" viewBox="0 0 24 24" fill="none" xmlns="http://www.w3.org/2000/svg">
<g id="icon/x-small">
<path id="Icon (Stroke)" fill-rule="evenodd" clip-rule="evenodd" d="M7.54036 7.53999C7.7942 7.28615 8.20575 7.28615 8.4596 7.53999L12 11.0804L15.5404 7.53999C15.7942 7.28615 16.2058 7.28615 16.4596 7.53999C16.7134 7.79383 16.7134 8.20539 16.4596 8.45923L12.9192 11.9996L16.4596 15.54C16.7134 15.7938 16.7134 16.2054 16.4596 16.4592C16.2058 16.7131 15.7942 16.7131 15.5404 16.4592L12 12.9188L8.45959 16.4592C8.20575 16.7131 7.7942 16.7131 7.54036 16.4592C7.28652 16.2054 7.28652 15.7938 7.54036 15.54L11.0807 11.9996L7.54036 8.45923C7.28652 8.20539 7.28652 7.79383 7.54036 7.53999Z" fill="white"/>
</g>
</svg>
