<svg width="179" height="161" viewBox="0 0 179 161" fill="none" xmlns="http://www.w3.org/2000/svg">
<rect width="178" height="161" transform="translate(0.5)" fill="white"/>
<rect x="44.4531" y="30.8281" width="88.9688" height="94.0742" rx="9.125" fill="url(#paint0_linear_971_12322)"/>
<g clip-path="url(#clip0_971_12322)">
<rect x="68.4062" y="45.6562" width="41.0625" height="41.0625" rx="20.5313" fill="white" fill-opacity="0.9"/>
<circle cx="88.9375" cy="63.9082" r="6.84375" fill="#333333"/>
<circle cx="88.9375" cy="83.2988" r="11.4063" fill="url(#paint1_linear_971_12322)"/>
</g>
<rect x="63.8438" y="96.7051" width="20.5313" height="4.5625" rx="2.28125" fill="white" fill-opacity="0.5"/>
<rect x="63.8438" y="104.689" width="51.3281" height="4.5625" rx="2.28125" fill="white" fill-opacity="0.5"/>
<path d="M54.7188 30.8281H66.125V44.9513C66.125 45.7992 65.2327 46.3507 64.4743 45.9715L60.4219 43.9453L56.3695 45.9715C55.6111 46.3507 54.7188 45.7992 54.7188 44.9513V30.8281Z" fill="url(#paint2_linear_971_12322)"/>
<g filter="url(#filter0_bi_971_12322)">
<path fill-rule="evenodd" clip-rule="evenodd" d="M121.445 53.6406C133.099 53.6406 142.547 45.2145 142.547 34.8203C142.547 24.4261 133.099 16 121.445 16C109.791 16 100.344 24.4261 100.344 34.8203C100.344 42.3793 105.34 48.8974 112.548 51.8909V52.0952C112.548 53.0934 112.193 54.0591 111.547 54.8197C111.309 55.0999 111.608 55.511 111.948 55.3708L114.036 54.5098C114.979 54.1209 115.898 53.677 116.788 53.1807C118.286 53.4818 119.845 53.6406 121.445 53.6406Z" fill="url(#paint3_linear_971_12322)" fill-opacity="0.5"/>
</g>
<path d="M114.24 31.3C114.171 30.7654 114.814 30.442 115.202 30.8162L118.689 34.1787L121.557 30.3062C121.785 29.9984 122.246 29.9984 122.474 30.3062L125.342 34.1787L128.83 30.8162C129.218 30.442 129.86 30.7654 129.791 31.3L128.798 38.9591C128.724 39.5276 128.24 39.9531 127.667 39.9531H116.364C115.791 39.9531 115.307 39.5276 115.233 38.9591L114.24 31.3Z" fill="#4D4D4D"/>
<ellipse cx="89.5078" cy="139.422" rx="35.9297" ry="3.42188" fill="url(#paint4_linear_971_12322)"/>
<defs>
<filter id="filter0_bi_971_12322" x="88.9375" y="4.59374" width="65.0156" height="62.2109" filterUnits="userSpaceOnUse" color-interpolation-filters="sRGB">
<feFlood flood-opacity="0" result="BackgroundImageFix"/>
<feGaussianBlur in="BackgroundImageFix" stdDeviation="5.70313"/>
<feComposite in2="SourceAlpha" operator="in" result="effect1_backgroundBlur_971_12322"/>
<feBlend mode="normal" in="SourceGraphic" in2="effect1_backgroundBlur_971_12322" result="shape"/>
<feColorMatrix in="SourceAlpha" type="matrix" values="0 0 0 0 0 0 0 0 0 0 0 0 0 0 0 0 0 0 127 0" result="hardAlpha"/>
<feOffset dy="-1.14063"/>
<feGaussianBlur stdDeviation="0.570313"/>
<feComposite in2="hardAlpha" operator="arithmetic" k2="-1" k3="1"/>
<feColorMatrix type="matrix" values="0 0 0 0 1 0 0 0 0 1 0 0 0 0 1 0 0 0 0.25 0"/>
<feBlend mode="normal" in2="shape" result="effect2_innerShadow_971_12322"/>
</filter>
<linearGradient id="paint0_linear_971_12322" x1="88.9375" y1="30.8281" x2="88.9375" y2="124.902" gradientUnits="userSpaceOnUse">
<stop stop-color="#FF9945"/>
<stop offset="1" stop-color="#FFBA81"/>
</linearGradient>
<linearGradient id="paint1_linear_971_12322" x1="88.9375" y1="71.8926" x2="88.9375" y2="94.7051" gradientUnits="userSpaceOnUse">
<stop stop-color="#333333"/>
<stop offset="1" stop-color="#333333" stop-opacity="0"/>
</linearGradient>
<linearGradient id="paint2_linear_971_12322" x1="60.4219" y1="30.8281" x2="60.4219" y2="46.7969" gradientUnits="userSpaceOnUse">
<stop stop-color="white" stop-opacity="0.8"/>
<stop offset="1" stop-color="white" stop-opacity="0.5"/>
</linearGradient>
<linearGradient id="paint3_linear_971_12322" x1="131.472" y1="15.6642" x2="117.277" y2="55.399" gradientUnits="userSpaceOnUse">
<stop stop-color="#DFD4CB"/>
<stop offset="1" stop-color="white"/>
</linearGradient>
<linearGradient id="paint4_linear_971_12322" x1="84.9453" y1="135.43" x2="85.6268" y2="146.292" gradientUnits="userSpaceOnUse">
<stop stop-color="#DCDCDC" stop-opacity="0.2"/>
<stop offset="1" stop-color="#DCDCDC"/>
</linearGradient>
<clipPath id="clip0_971_12322">
<rect x="68.4062" y="45.6562" width="41.0625" height="41.0625" rx="20.5313" fill="white"/>
</clipPath>
</defs>
</svg>
