<svg width="569" height="666" viewBox="0 0 569 666" fill="none" xmlns="http://www.w3.org/2000/svg">
<ellipse cx="297.756" cy="612.203" rx="243.568" ry="7.16377" fill="#F8F8FA"/>
<path d="M163.176 574.039H213.724V580.98H216.511C228.75 580.98 238.673 590.902 238.673 603.142V609.109C238.673 612.202 236.165 614.71 233.071 614.71H169.508C166.011 614.71 163.176 611.875 163.176 608.378V574.039Z" fill="#F3E8DF"/>
<path d="M397.703 574.039H448.251V580.98H451.038C463.278 580.98 473.2 590.902 473.2 603.142V609.109C473.2 612.202 470.692 614.71 467.598 614.71H404.035C400.538 614.71 397.703 611.875 397.703 608.378V574.039Z" fill="#F3E8DF"/>
<path d="M397.457 574.039H346.909V580.98H344.122C331.883 580.98 321.96 590.902 321.96 603.142V609.109C321.96 612.202 324.468 614.71 327.562 614.71H391.125C394.622 614.71 397.457 611.875 397.457 608.378V574.039Z" fill="#F3E8DF"/>
<path d="M79.3242 537.752L121.762 566.967L117.827 572.685L120.122 574.265C130.204 581.205 132.75 595.004 125.81 605.086L122.426 610.001C120.672 612.549 117.184 613.192 114.636 611.438L61.4775 574.842C58.5971 572.859 57.8695 568.917 59.8525 566.036L79.3242 537.752Z" fill="#F3E8DF"/>
<path d="M162.688 422.193H209.305L218.214 581.224H162.688V422.193Z" fill="url(#paint0_linear_2765_15498)"/>
<path d="M398.676 421.342H445.294L454.202 581.103H398.676V421.342Z" fill="url(#paint1_linear_2765_15498)"/>
<path d="M401.844 421.342H355.226L346.317 581.103H401.844V421.342Z" fill="url(#paint2_linear_2765_15498)"/>
<path d="M131.999 426.035L178.275 439.363L168.607 481.589C165.38 495.685 159.682 509.099 151.778 521.209L118.486 572.213L74.2839 543.475L105.486 498.865C114.08 486.578 120.345 472.817 123.969 458.267L131.999 426.035Z" fill="url(#paint3_linear_2765_15498)"/>
<path d="M122.988 350.96C122.988 341.68 130.512 334.156 139.792 334.156H191.91C201.19 334.156 208.714 341.68 208.714 350.96V426.701H122.988V350.96Z" fill="black"/>
<path d="M355.812 350.96C355.812 341.68 363.336 334.156 372.617 334.156H424.734C434.014 334.156 441.538 341.68 441.538 350.96V426.701H355.812V350.96Z" fill="black"/>
<circle cx="165.733" cy="310.167" r="18.1436" fill="#FFD5B3"/>
<circle cx="398.797" cy="310.165" r="18.1436" transform="rotate(30 398.797 310.165)" fill="#FFD5B3"/>
<rect x="94.7383" y="392.848" width="409.874" height="53.5783" fill="#FF9945"/>
<rect x="78.1797" y="392.848" width="16.5606" height="53.5783" fill="#F2F2F2"/>
<path d="M43.1094 408.434C43.1094 399.826 50.0877 392.848 58.6958 392.848H78.1788V446.426H58.6958C50.0877 446.426 43.1094 439.448 43.1094 430.84V408.434Z" fill="#D1BDAD"/>
<path d="M550.887 419.636L504.493 446.422L504.493 392.851L550.887 419.636Z" fill="#F6F2EF"/>
<path fill-rule="evenodd" clip-rule="evenodd" d="M534.328 429.197L550.889 419.636L534.328 410.074V429.197Z" fill="#1E1E1E"/>
<line x1="94.7383" y1="410.686" x2="504.613" y2="410.686" stroke="black" stroke-width="0.365307"/>
<line x1="94.7383" y1="430.169" x2="504.613" y2="430.169" stroke="black" stroke-width="0.365307"/>
<path d="M158.912 420.244C158.181 420.163 156.403 419.903 155.137 419.514" stroke="black" stroke-width="0.243538"/>
<path fill-rule="evenodd" clip-rule="evenodd" d="M173.026 403.98C171.714 402.205 169.184 401.792 167.376 403.058L166.696 403.534C165.246 404.55 163.512 405.11 161.721 405.143L157.657 405.216L151.973 403.151L143.305 427.01L162.572 434.01L167.388 435.76L171.223 437.153C173.459 437.965 175.929 436.811 176.741 434.576C177.551 432.348 176.407 429.887 174.187 429.066L176.353 429.853C178.588 430.665 181.059 429.512 181.871 427.276C182.683 425.041 181.529 422.57 179.294 421.758L175.53 420.39C176.125 420.443 176.725 420.455 177.324 420.427L179.992 420.304C181.594 420.229 182.995 419.198 183.543 417.69L183.609 417.51C184.546 414.93 182.557 412.226 179.814 412.353C178.345 412.422 176.877 412.198 175.495 411.696L171.24 410.15L171.239 410.15L171.195 410.134C171.28 410.079 171.364 410.022 171.447 409.964L172.127 409.488C173.935 408.222 174.338 405.756 173.026 403.98Z" fill="#FFD5B3"/>
<path fill-rule="evenodd" clip-rule="evenodd" d="M387.819 403.027C389.131 401.252 391.661 400.839 393.469 402.105L394.149 402.581C395.599 403.597 397.333 404.157 399.124 404.19L403.187 404.263L408.871 402.198L417.539 426.057L398.271 433.057L393.456 434.807L389.621 436.2C387.385 437.012 384.915 435.858 384.102 433.623C383.293 431.395 384.436 428.934 386.657 428.113L384.491 428.9C382.255 429.712 379.785 428.558 378.973 426.323C378.161 424.088 379.314 421.617 381.55 420.805L385.314 419.437C384.719 419.49 384.119 419.502 383.519 419.474L380.852 419.35C379.249 419.276 377.848 418.245 377.301 416.737L377.235 416.557C376.298 413.977 378.287 411.273 381.03 411.4C382.499 411.468 383.967 411.245 385.349 410.743L389.604 409.197L389.604 409.197L389.65 409.181C389.565 409.126 389.481 409.069 389.398 409.011L388.718 408.535C386.91 407.268 386.508 404.803 387.819 403.027Z" fill="#FFD5B3"/>
<path fill-rule="evenodd" clip-rule="evenodd" d="M275.468 332.826C273.281 332.525 271.219 334.047 270.862 336.226L270.728 337.045C270.443 338.792 269.633 340.425 268.405 341.729L265.621 344.687L260.172 347.314L271.196 370.18L294.277 359.053L294.277 359.053L297.952 357.281C300.094 356.249 300.994 353.674 299.961 351.532C298.928 349.39 296.354 348.49 294.212 349.523L292.67 350.266C293.653 349.778 294.557 349.144 295.352 348.387L297.395 346.441C298.683 345.214 299.033 343.296 298.26 341.694C297.053 339.189 293.755 338.588 291.741 340.506L291.527 340.709C290.821 341.383 290.021 341.951 289.154 342.397C289.375 342.189 289.587 341.972 289.79 341.744L292.017 339.239C293.083 338.04 293.323 336.317 292.627 334.872C291.395 332.317 287.96 331.837 286.075 333.957L285.91 334.143C285.145 335.003 284.221 335.708 283.189 336.217L278.594 338.433C278.614 338.334 278.632 338.234 278.648 338.135L278.782 337.316C279.139 335.137 277.655 333.127 275.468 332.826Z" fill="#FFD5B3"/>
<path fill-rule="evenodd" clip-rule="evenodd" d="M355.96 437.418C357.235 435.615 356.835 433.084 355.065 431.764L354.4 431.267C352.982 430.209 351.906 428.737 351.314 427.047L349.971 423.21L350.15 417.167L324.776 416.413L324.167 436.902L324.167 436.902L323.894 446.102C323.823 448.479 325.693 450.464 328.07 450.534C330.447 450.605 332.432 448.735 332.503 446.358L332.624 442.28L332.624 442.28L332.558 444.516C332.524 445.657 332.669 446.797 332.986 447.893L333.772 450.603C334.267 452.312 335.808 453.506 337.587 453.559C340.366 453.641 342.419 450.991 341.645 448.321L341.563 448.037C341.291 447.1 341.155 446.13 341.159 445.155C341.241 445.446 341.336 445.735 341.445 446.018L342.642 449.15C343.215 450.648 344.633 451.656 346.237 451.703C349.072 451.787 351.081 448.96 350.068 446.31L349.979 446.078C349.566 444.997 349.366 443.846 349.392 442.69L349.543 437.608C349.622 437.671 349.702 437.733 349.784 437.794L350.449 438.29C352.218 439.611 354.686 439.22 355.96 437.418Z" fill="#FFD5B3"/>
<path fill-rule="evenodd" clip-rule="evenodd" d="M182.888 304.248C180.873 305.601 178.447 306.39 175.838 306.39C171.487 306.39 167.65 304.197 165.37 300.855C163.859 306.159 158.977 310.043 153.189 310.043C151.199 310.043 149.316 309.584 147.641 308.766C148.355 299.4 156.181 292.021 165.731 292.021C173.68 292.021 180.434 297.133 182.888 304.248Z" fill="black"/>
<path fill-rule="evenodd" clip-rule="evenodd" d="M416.615 313.623C414.193 313.787 411.698 313.258 409.438 311.953C405.671 309.778 403.444 305.959 403.14 301.926C399.179 305.764 393.01 306.686 387.997 303.792C386.273 302.797 384.872 301.458 383.83 299.912C389.132 292.157 399.599 289.68 407.87 294.455C414.754 298.43 418.048 306.234 416.615 313.623Z" fill="black"/>
<circle cx="147.589" cy="288.126" r="8.28029" fill="black"/>
<path d="M151.848 430.352C126.277 424.953 79.98 406.071 99.3656 373.729C116.661 344.874 128.91 336.684 134.262 335.859C130.707 345.966 124.304 369.37 127.129 382.131C129.954 394.893 151.523 401.979 163.781 404.658L151.848 430.352Z" fill="black"/>
<path d="M135.896 335.859C135.454 335.767 134.908 335.759 134.262 335.859M134.262 335.859C128.91 336.684 116.661 344.874 99.3656 373.729C79.98 406.071 126.277 424.953 151.848 430.352L163.781 404.658C151.523 401.979 129.954 394.893 127.129 382.131C124.304 369.37 130.707 345.966 134.262 335.859Z" stroke="black" stroke-width="0.243538"/>
<path d="M410.363 429.449C435.934 424.051 482.231 405.169 462.845 372.827C445.55 343.972 433.301 335.782 427.949 334.957C431.504 345.063 437.907 368.467 435.082 381.229C432.257 393.99 410.688 401.077 398.43 403.756L410.363 429.449Z" fill="black"/>
<path d="M426.315 334.957C426.757 334.865 427.303 334.857 427.949 334.957M427.949 334.957C433.301 335.782 445.55 343.972 462.845 372.827C482.231 405.169 435.934 424.051 410.363 429.449L398.43 403.756C410.688 401.077 432.257 393.99 435.082 381.229C437.907 368.467 431.504 345.063 427.949 334.957Z" stroke="black" stroke-width="0.243538"/>
<path d="M240.74 352.907C221.756 352.907 207.863 341.948 202.018 337.564L200.922 369.224C204.372 372.959 216.021 382.132 236.478 382.132C257.016 382.132 275.485 373.04 282.385 366.058L267.529 340.365C264.12 343.653 252.795 352.907 240.74 352.907Z" fill="black"/>
<path d="M330.601 376.287C341.414 354.661 357.106 340.974 363.6 336.834C363.6 344.871 364.507 365.693 359.344 384.202C354.181 402.711 353.777 420.773 355.32 427.552H321.103C319.763 419.474 319.787 397.913 330.601 376.287Z" fill="black"/>
<path d="M163.539 500.004C168.166 491.399 178.054 468.709 180.587 446.791" stroke="black" stroke-width="0.365307" stroke-linecap="round"/>
<path d="M397.578 447.887V577.327" stroke="black" stroke-width="0.365307" stroke-linecap="round"/>
<path fill-rule="evenodd" clip-rule="evenodd" d="M518.265 166.553C526.886 166.553 533.875 173.542 533.875 182.163V221.189C533.875 229.811 526.886 236.8 518.265 236.8H463.311C461.75 239.028 459.678 240.86 457.259 242.136L451.828 245.001C451.456 245.197 451.072 244.761 451.314 244.417C452.892 242.172 453.311 239.356 452.534 236.8H440.212C431.591 236.8 424.602 229.811 424.602 221.189V182.163C424.602 173.542 431.591 166.553 440.212 166.553H518.265Z" fill="#F5F5F7"/>
<path d="M452.702 191.529L464.869 212.603H440.535L452.702 191.529Z" fill="#FFD5B3"/>
<rect x="471.434" y="192.309" width="19.513" height="19.513" fill="#FFD5B3"/>
<path d="M500.254 194.768L516.411 210.924" stroke="#FFD5B3" stroke-width="1.17078" stroke-linecap="round"/>
<path d="M515.914 194.768L499.757 210.924" stroke="#FFD5B3" stroke-width="1.17078" stroke-linecap="round"/>
<path d="M508.035 191.529L508.035 214.378" stroke="#FFD5B3" stroke-width="1.17078" stroke-linecap="round"/>
<path d="M519.105 202.604L496.256 202.604" stroke="#FFD5B3" stroke-width="1.17078" stroke-linecap="round"/>
<path fill-rule="evenodd" clip-rule="evenodd" d="M44.4893 197.736C35.8679 197.736 28.8789 204.725 28.8789 213.347V252.373C28.8789 260.994 35.8679 267.983 44.4893 267.983H99.443C101.004 270.211 103.076 272.043 105.495 273.319L110.926 276.185C111.298 276.381 111.681 275.945 111.44 275.601C109.862 273.356 109.443 270.54 110.22 267.983H122.541C131.163 267.983 138.152 260.994 138.152 252.373V213.347C138.152 204.725 131.163 197.736 122.541 197.736H44.4893Z" fill="#F5F5F7"/>
<path d="M110.052 222.713L97.8851 243.787H122.219L110.052 222.713Z" fill="#FFD5B3"/>
<circle cx="80.7831" cy="233.25" r="10.537" fill="#FFD5B3"/>
<path d="M61.5664 225.951L45.4096 242.108" stroke="#FFD5B3" stroke-width="1.17078" stroke-linecap="round"/>
<path d="M45.9062 225.951L62.063 242.108" stroke="#FFD5B3" stroke-width="1.17078" stroke-linecap="round"/>
<path d="M53.7852 222.713L53.7852 245.562" stroke="#FFD5B3" stroke-width="1.17078" stroke-linecap="round"/>
<path d="M42.7148 233.787L65.564 233.787" stroke="#FFD5B3" stroke-width="1.17078" stroke-linecap="round"/>
<path fill-rule="evenodd" clip-rule="evenodd" d="M124.884 108.865C116.262 108.865 109.273 115.854 109.273 124.476V163.502C109.273 172.123 116.262 179.112 124.884 179.112H179.838C181.398 181.34 183.471 183.172 185.89 184.448L191.321 187.314C191.692 187.509 192.076 187.074 191.834 186.73C190.256 184.485 189.837 181.669 190.615 179.112H202.936C211.557 179.112 218.546 172.123 218.546 163.502V124.476C218.546 115.854 211.557 108.865 202.936 108.865H124.884Z" fill="#F8F8FA"/>
<path fill-rule="evenodd" clip-rule="evenodd" d="M421.483 70.6602C430.105 70.6602 437.094 77.6492 437.094 86.2706V125.297C437.094 133.918 430.105 140.907 421.483 140.907H366.53C364.969 143.135 362.896 144.967 360.478 146.243L355.046 149.108C354.675 149.304 354.291 148.868 354.533 148.525C356.111 146.28 356.53 143.463 355.752 140.907H343.431C334.81 140.907 327.821 133.918 327.821 125.297V86.2706C327.821 77.6492 334.81 70.6602 343.431 70.6602H421.483Z" fill="#F8F8FA"/>
<defs>
<linearGradient id="paint0_linear_2765_15498" x1="190.451" y1="422.193" x2="190.451" y2="581.224" gradientUnits="userSpaceOnUse">
<stop stop-color="#FBF1EB"/>
<stop offset="1" stop-color="#FF9945"/>
</linearGradient>
<linearGradient id="paint1_linear_2765_15498" x1="426.439" y1="421.342" x2="426.439" y2="581.103" gradientUnits="userSpaceOnUse">
<stop stop-color="#FBF1EB"/>
<stop offset="1" stop-color="#FF9945"/>
</linearGradient>
<linearGradient id="paint2_linear_2765_15498" x1="374.08" y1="421.342" x2="374.08" y2="581.103" gradientUnits="userSpaceOnUse">
<stop stop-color="#FBF1EB"/>
<stop offset="1" stop-color="#FF9945"/>
</linearGradient>
<linearGradient id="paint3_linear_2765_15498" x1="139.074" y1="427.45" x2="110.441" y2="570.604" gradientUnits="userSpaceOnUse">
<stop stop-color="#FBF1EB"/>
<stop offset="1" stop-color="#FF9945"/>
</linearGradient>
</defs>
</svg>
