<svg width="178" height="196" viewBox="0 0 178 196" fill="none" xmlns="http://www.w3.org/2000/svg">
<g clip-path="url(#clip0_1485_28382)">
<rect width="178" height="196" fill="white"/>
<path d="M37.7334 155.926V164.895H36.4345V155.926H37.7334ZM38.1025 166.85V167.902H29.7216V164.047H31.0341V166.85H38.1025ZM32.0322 157.812C32.0185 159.604 33.167 161.244 35.0537 161.9L34.3838 162.939C32.9687 162.413 31.9228 161.374 31.3759 160.041C30.8359 161.463 29.7763 162.604 28.3408 163.158L27.6435 162.133C29.5713 161.422 30.706 159.658 30.706 157.812V156.596H32.0322V157.812ZM43.6877 158.523C43.6877 159.959 44.8772 161.312 46.7366 161.832L46.1213 162.844C44.7063 162.44 43.633 161.565 43.0725 160.438C42.5393 161.702 41.4729 162.7 40.01 163.158L39.3948 162.16C41.2541 161.559 42.4026 160.096 42.4026 158.523V158.373H39.7366V157.334H42.4026V155.857H43.7014V157.334H46.3538V158.373H43.6877V158.523ZM49.6077 155.912V163.336H48.3088V160.41H45.9709V159.344H48.3088V155.912H49.6077ZM45.5061 163.609C48.0627 163.609 49.6487 164.43 49.6487 165.865C49.6487 167.314 48.0627 168.148 45.5061 168.135C42.9358 168.148 41.3498 167.314 41.3635 165.865C41.3498 164.43 42.9358 163.609 45.5061 163.609ZM45.5061 164.621C43.7151 164.621 42.6487 165.072 42.6487 165.865C42.6487 166.658 43.7151 167.137 45.5061 167.137C47.3108 167.137 48.3635 166.658 48.3635 165.865C48.3635 165.072 47.3108 164.621 45.5061 164.621ZM60.8394 155.926V159.863H62.6167V160.943H60.8394V165.086H59.5405V155.926H60.8394ZM58.5288 157.348V158.4H51.228V157.348H54.2359V155.912H55.5347V157.348H58.5288ZM54.8784 158.988C56.6421 158.988 57.8452 159.904 57.8452 161.299C57.8452 162.693 56.6421 163.596 54.8784 163.596C53.1011 163.596 51.898 162.693 51.898 161.299C51.898 159.904 53.1011 158.988 54.8784 158.988ZM54.8784 159.986C53.8394 159.986 53.1421 160.492 53.1558 161.299C53.1421 162.092 53.8394 162.584 54.8784 162.584C55.9175 162.584 56.6148 162.092 56.6284 161.299C56.6148 160.492 55.9175 159.986 54.8784 159.986ZM61.3589 166.85V167.902H53.0738V164.361H54.3726V166.85H61.3589ZM72.3927 157.648C72.3927 159.645 74.5255 161.531 76.877 161.955L76.2755 163.035C74.3204 162.611 72.5157 161.326 71.7227 159.604C70.9161 161.312 69.1182 162.598 67.1563 163.035L66.5821 161.955C68.9063 161.518 71.0255 159.645 71.0255 157.648V156.719H72.3927V157.648ZM77.3829 165.469V166.549H66.172V165.469H77.3829ZM88.2045 155.912V168.189H86.9193V161.504H84.4857V160.438H86.9193V155.912H88.2045ZM84.2806 157.006V158.059H79.8646V160.438H83.7611V161.477H79.8646V164.211C81.9154 164.204 83.3373 164.156 84.9642 163.869L85.1009 164.922C83.3236 165.209 81.7787 165.277 79.5091 165.291H78.5521V157.006H84.2806ZM99.9557 155.912V168.189H98.6569V155.912H99.9557ZM96.4557 157.047V158.127H91.903V164.074C94.2272 164.067 95.7106 164.006 97.4401 163.691L97.5768 164.771C95.7448 165.1 94.1452 165.182 91.6022 165.182H90.5905V157.047H96.4557ZM111.174 155.912V160.793H113.074V161.873H111.174V168.148H109.875V155.912H111.174ZM107.975 157.197C107.961 160.738 106.402 163.896 102.369 165.893L101.644 164.881C104.714 163.35 106.382 161.135 106.648 158.277H102.26V157.197H107.975ZM119.2 163.09V164.512H121.114V163.09H122.317V168.012H117.983V163.09H119.2ZM119.2 167H121.114V165.496H119.2V167ZM125.872 164.006C125.872 165.291 126.583 166.59 128.1 167.123L127.43 168.107C126.323 167.684 125.605 166.884 125.229 165.906C124.819 166.863 124.094 167.67 123.041 168.107L122.385 167.123C123.862 166.521 124.586 165.223 124.586 164.006V163.008H125.872V164.006ZM119.979 156.432C121.592 156.432 122.836 157.348 123.11 158.715H125.502V155.912H126.801V162.406H125.502V159.781H123.124C122.857 161.189 121.606 162.105 119.979 162.105C118.106 162.105 116.766 160.957 116.766 159.262C116.766 157.594 118.106 156.432 119.979 156.432ZM119.979 157.512C118.817 157.512 118.01 158.223 118.01 159.262C118.01 160.314 118.817 161.039 119.979 161.053C121.114 161.039 121.92 160.314 121.92 159.262C121.92 158.223 121.114 157.512 119.979 157.512ZM131.73 156.828C133.391 156.828 134.608 158.236 134.806 160.506H137.336V155.912H138.621V168.189H137.336V161.559H134.82C134.677 163.944 133.432 165.428 131.73 165.428C129.898 165.428 128.613 163.76 128.627 161.121C128.613 158.496 129.898 156.828 131.73 156.828ZM131.73 157.99C130.623 157.99 129.857 159.193 129.857 161.121C129.857 163.062 130.623 164.266 131.73 164.266C132.838 164.266 133.603 163.062 133.603 161.121C133.603 159.193 132.838 157.99 131.73 157.99ZM151.439 165.551V166.631H140.228V165.551H142.907V162.352C141.902 161.798 141.294 160.916 141.294 159.822C141.294 157.895 143.181 156.623 145.806 156.623C148.444 156.623 150.331 157.895 150.331 159.822C150.331 160.902 149.743 161.771 148.759 162.324V165.551H151.439ZM145.806 157.662C143.878 157.662 142.552 158.496 142.552 159.822C142.552 161.135 143.878 161.996 145.806 161.996C147.72 161.996 149.073 161.135 149.073 159.822C149.073 158.496 147.72 157.662 145.806 157.662ZM144.192 165.551H147.446V162.816C146.947 162.946 146.394 163.008 145.806 163.008C145.231 163.008 144.685 162.946 144.192 162.83V165.551Z" fill="#CCCCCC"/>
<g clip-path="url(#clip1_1485_28382)">
<path d="M8.61735 119.463L51.0102 126.303L41.1523 105.242L8.61735 119.463Z" fill="url(#paint0_linear_1485_28382)"/>
<path d="M123.007 124.251L65.1406 128.584L82.0342 106.041L123.007 124.251Z" fill="url(#paint1_linear_1485_28382)"/>
<path d="M115.772 99.7853L115.796 99.791L115.821 99.7937L170.982 105.791C171.367 105.833 171.464 106.349 171.12 106.528L155.286 114.736C151.763 116.562 148.061 118.02 144.239 119.086L132.066 122.481C125.146 124.411 117.84 124.487 110.881 122.7L85.4805 116.179C85.0468 116.068 84.5873 116.207 84.2887 116.541L79.4432 121.953C75.1978 126.695 68.8304 128.95 62.5468 127.936L47.0606 125.437C33.0539 123.177 19.841 117.429 8.63829 108.723L7.73689 108.023C14.3503 109.506 21.2233 109.395 27.7884 107.697L37.056 105.301C45.4955 103.119 53.7188 100.173 61.6241 96.5002L75.0514 90.2612C75.131 90.2242 75.2207 90.2151 75.3062 90.2353L115.772 99.7853Z" fill="url(#paint2_linear_1485_28382)"/>
<path d="M115.772 99.7853L115.796 99.791L115.821 99.7937L170.982 105.791C171.367 105.833 171.464 106.349 171.12 106.528L155.286 114.736C151.763 116.562 148.061 118.02 144.239 119.086L132.066 122.481C125.146 124.411 117.84 124.487 110.881 122.7L85.4805 116.179C85.0468 116.068 84.5873 116.207 84.2887 116.541L79.4432 121.953C75.1978 126.695 68.8304 128.95 62.5468 127.936L47.0606 125.437C33.0539 123.177 19.841 117.429 8.63829 108.723L7.73689 108.023C14.3503 109.506 21.2233 109.395 27.7884 107.697L37.056 105.301C45.4955 103.119 53.7188 100.173 61.6241 96.5002L75.0514 90.2612C75.131 90.2242 75.2207 90.2151 75.3062 90.2353L115.772 99.7853Z" fill="url(#paint3_linear_1485_28382)" fill-opacity="0.25"/>
<path d="M115.772 99.7853L115.796 99.791L115.821 99.7937L170.982 105.791C171.367 105.833 171.464 106.349 171.12 106.528L155.286 114.736C151.763 116.562 148.061 118.02 144.239 119.086L132.066 122.481C125.146 124.411 117.84 124.487 110.881 122.7L85.4805 116.179C85.0468 116.068 84.5873 116.207 84.2887 116.541L79.4432 121.953C75.1978 126.695 68.8304 128.95 62.5468 127.936L47.0606 125.437C33.0539 123.177 19.841 117.429 8.63829 108.723L7.73689 108.023C14.3503 109.506 21.2233 109.395 27.7884 107.697L37.056 105.301C45.4955 103.119 53.7188 100.173 61.6241 96.5002L75.0514 90.2612C75.131 90.2242 75.2207 90.2151 75.3062 90.2353L115.772 99.7853Z" stroke="url(#paint4_linear_1485_28382)" stroke-width="0.808055"/>
<path d="M115.772 99.7853L115.796 99.791L115.821 99.7937L170.982 105.791C171.367 105.833 171.464 106.349 171.12 106.528L155.286 114.736C151.763 116.562 148.061 118.02 144.239 119.086L132.066 122.481C125.146 124.411 117.84 124.487 110.881 122.7L85.4805 116.179C85.0468 116.068 84.5873 116.207 84.2887 116.541L79.4432 121.953C75.1978 126.695 68.8304 128.95 62.5468 127.936L47.0606 125.437C33.0539 123.177 19.841 117.429 8.63829 108.723L7.73689 108.023C14.3503 109.506 21.2233 109.395 27.7884 107.697L37.056 105.301C45.4955 103.119 53.7188 100.173 61.6241 96.5002L75.0514 90.2612C75.131 90.2242 75.2207 90.2151 75.3062 90.2353L115.772 99.7853Z" stroke="url(#paint5_linear_1485_28382)" stroke-opacity="0.7" stroke-width="0.808055"/>
<path d="M89.7715 107.967L77.2933 107.054C74.7138 106.865 73.6242 109.855 75.5439 111.855V111.855C77.4637 113.854 76.374 116.845 73.7945 116.656L71.2109 116.467" stroke="url(#paint6_linear_1485_28382)" stroke-width="3.18127" stroke-linecap="round"/>
<path d="M156.63 118.92L89.8158 109.091L92.5394 107.944L141.299 108.37L156.63 118.92Z" fill="url(#paint7_linear_1485_28382)"/>
<path d="M119.164 93.7259L95.3528 75.7554L89.2015 83.906L88.0259 105.935C87.9165 107.986 90.2088 109.716 92.1509 109.048L113.013 101.877L119.164 93.7259Z" fill="url(#paint8_linear_1485_28382)"/>
<path d="M119.445 43.8286L127.382 49.8188L97.1381 89.8926L95.7195 87.7943C94.7311 86.3324 93.2846 85.2408 91.6078 84.6912L89.2009 83.9024L119.445 43.8286Z" fill="#FCE2CE"/>
<path d="M127.382 49.8188L135.319 55.809L105.075 95.8828L103.657 93.7845C102.668 92.3227 101.222 91.231 99.545 90.6814L97.1382 89.8926L127.382 49.8188Z" fill="#FDCEA8"/>
<path d="M135.319 55.8081L143.256 61.7983L113.012 101.872L111.593 99.7738C110.605 98.3119 109.159 97.2203 107.482 96.6707L105.075 95.8819L135.319 55.8081Z" fill="#FFC18D"/>
<path d="M122.309 40.0327C124.69 36.8773 129.179 36.2498 132.334 38.6312L144.719 47.978C147.874 50.3594 148.502 54.8478 146.12 58.0032L143.256 61.7989L119.444 43.8284L122.309 40.0327Z" fill="url(#paint9_linear_1485_28382)"/>
<path fill-rule="evenodd" clip-rule="evenodd" d="M88.272 101.328L87.9684 107.017C87.8782 108.706 89.5265 109.95 91.1266 109.4L96.5144 107.548L88.272 101.328Z" fill="#666666"/>
</g>
</g>
<defs>
<linearGradient id="paint0_linear_1485_28382" x1="10.1483" y1="109.975" x2="52.5412" y2="116.815" gradientUnits="userSpaceOnUse">
<stop stop-color="#F5F5F5"/>
<stop offset="1" stop-color="#A9A9A9"/>
</linearGradient>
<linearGradient id="paint1_linear_1485_28382" x1="89.6176" y1="112.702" x2="93.1903" y2="133.124" gradientUnits="userSpaceOnUse">
<stop stop-color="#F3EEE9"/>
<stop offset="1" stop-color="#FAC093"/>
</linearGradient>
<linearGradient id="paint2_linear_1485_28382" x1="54.5048" y1="97.7996" x2="57.6548" y2="132.031" gradientUnits="userSpaceOnUse">
<stop stop-color="#FAF7F5"/>
<stop offset="0.4" stop-color="#FAF9F8"/>
<stop offset="0.778917" stop-color="#FAF9F8"/>
<stop offset="1" stop-color="#F2EEEB"/>
</linearGradient>
<linearGradient id="paint3_linear_1485_28382" x1="57.1447" y1="116.434" x2="30.6149" y2="137.724" gradientUnits="userSpaceOnUse">
<stop stop-color="#F2EEEB" stop-opacity="0"/>
<stop offset="1" stop-color="#E6E2DF"/>
</linearGradient>
<linearGradient id="paint4_linear_1485_28382" x1="134.095" y1="119.89" x2="141.693" y2="129.802" gradientUnits="userSpaceOnUse">
<stop stop-color="white" stop-opacity="0"/>
<stop offset="1" stop-color="#666666" stop-opacity="0.1"/>
</linearGradient>
<linearGradient id="paint5_linear_1485_28382" x1="85.8235" y1="124.011" x2="78.9447" y2="135.407" gradientUnits="userSpaceOnUse">
<stop stop-color="white" stop-opacity="0"/>
<stop offset="1" stop-color="white"/>
</linearGradient>
<linearGradient id="paint6_linear_1485_28382" x1="91.185" y1="108.071" x2="71.7851" y2="117.632" gradientUnits="userSpaceOnUse">
<stop stop-opacity="0.5"/>
<stop offset="1" stop-color="#666666" stop-opacity="0.1"/>
</linearGradient>
<linearGradient id="paint7_linear_1485_28382" x1="90.7754" y1="109.386" x2="155.524" y2="104.44" gradientUnits="userSpaceOnUse">
<stop stop-color="#A8A8A8" stop-opacity="0.5"/>
<stop offset="1" stop-color="#D9D9D9" stop-opacity="0"/>
</linearGradient>
<linearGradient id="paint8_linear_1485_28382" x1="84.5568" y1="104.917" x2="99.6374" y2="116.298" gradientUnits="userSpaceOnUse">
<stop stop-color="#F9EFE8"/>
<stop offset="1" stop-color="#EDDACB"/>
</linearGradient>
<linearGradient id="paint9_linear_1485_28382" x1="123.033" y1="39.0738" x2="146.844" y2="57.0444" gradientUnits="userSpaceOnUse">
<stop stop-color="#E3D7CE"/>
<stop offset="1" stop-color="#C9BFB7"/>
</linearGradient>
<clipPath id="clip0_1485_28382">
<rect width="178" height="196" fill="white"/>
</clipPath>
<clipPath id="clip1_1485_28382">
<rect width="167.789" height="151.765" fill="white" transform="translate(5.10522 -1)"/>
</clipPath>
</defs>
</svg>
