<svg width="178" height="161" viewBox="0 0 178 161" fill="none" xmlns="http://www.w3.org/2000/svg">
<path d="M122.25 110.5H122.24L122.23 110.5L97.4798 111.5L97.4405 111.502L97.4019 111.51L96.766 111.637C92.2996 112.53 87.7004 112.53 83.234 111.637L82.5981 111.51L82.5593 111.502L82.5198 111.5L57.2698 110.5L57.2599 110.5H57.25H37C35.067 110.5 33.5 108.933 33.5 107V46C33.5 44.067 35.067 42.5 37 42.5H141C142.933 42.5 144.5 44.067 144.5 46V107C144.5 108.933 142.933 110.5 141 110.5H122.25Z" fill="url(#paint0_linear_1485_25537)" stroke="url(#paint1_linear_1485_25537)"/>
<path fill-rule="evenodd" clip-rule="evenodd" d="M37.4845 40.8031C36.5275 41.8969 36 43.3008 36 44.7542V103.5C36 105.709 37.7909 107.5 40 107.5H62.5L89 109.5L115.5 107.5H138C140.209 107.5 142 105.709 142 103.5V44.7542C142 43.3008 141.472 41.8969 140.515 40.8031L139.168 39.2631C138.748 38.7833 138.125 38.5324 137.49 38.5876L115.5 40.4997L89 42.4997L62.5 40.4997L40.5105 38.5876C39.8753 38.5324 39.2519 38.7833 38.8321 39.2631L37.4845 40.8031Z" fill="url(#paint2_linear_1485_25537)"/>
<g filter="url(#filter0_bi_1485_25537)">
<path d="M109 101H119L119.264 102.055C120.411 106.645 120.699 111.409 120.112 116.104C120.058 116.538 119.587 116.785 119.199 116.583L115 114.4L111.024 116.467C110.591 116.693 110.083 116.339 110.143 115.854C110.71 111.324 110.432 106.728 109.325 102.299L109 101Z" fill="url(#paint3_linear_1485_25537)"/>
</g>
<g filter="url(#filter1_i_1485_25537)">
<path d="M38 41C38 38.7909 39.7909 37 42 37H63.5L89 39V107L63.5 105H42C39.7909 105 38 103.209 38 101V41Z" fill="url(#paint4_linear_1485_25537)"/>
</g>
<g filter="url(#filter2_i_1485_25537)">
<path d="M140 41C140 38.7909 138.209 37 136 37H114.5L89 39V107L114.5 105H136C138.209 105 140 103.209 140 101V41Z" fill="url(#paint5_linear_1485_25537)"/>
</g>
<path d="M46 66.1181C53.6667 65.7848 70 66.1179 83 67.6179" stroke="#E3D7CE" stroke-width="2" stroke-linecap="round"/>
<path d="M46 73.7363C53.6667 73.4029 70 73.736 83 75.2361" stroke="#E3D7CE" stroke-width="2" stroke-linecap="round"/>
<path d="M46 81.3544C53.6667 81.0211 70 81.3542 83 82.8543" stroke="#E3D7CE" stroke-width="2" stroke-linecap="round"/>
<path d="M46 88.9716C53.6667 88.6383 70 88.9714 83 90.4715" stroke="#E3D7CE" stroke-width="2" stroke-linecap="round"/>
<path d="M133 48C125.333 47.6666 109 47.9997 96 49.4998" stroke="#E3D7CE" stroke-width="2" stroke-linecap="round"/>
<path d="M133 57.6181C125.333 57.2848 109 57.6179 96 59.1179" stroke="#E3D7CE" stroke-width="2" stroke-linecap="round"/>
<path d="M118 67.0732C113 67.0732 100 67.5003 96 68.0002" stroke="#E3D7CE" stroke-width="2" stroke-linecap="round"/>
<path d="M81.6946 61.6624C66.3854 59.5133 53.5158 59.4889 47.1842 59.8416C46.0077 59.9071 45 58.9816 45 57.8033V46.8049C45 45.7793 45.7754 44.9179 46.7974 44.8324C60.7274 43.668 75.3296 45.4094 82.4042 46.6926C83.3386 46.862 84 47.6813 84 48.6309V59.6722C84 60.8966 82.9072 61.8326 81.6946 61.6624Z" fill="#E3D7CE"/>
<g filter="url(#filter3_bi_1485_25537)">
<path fill-rule="evenodd" clip-rule="evenodd" d="M128.102 51.6406C139.756 51.6406 149.203 43.2145 149.203 32.8203C149.203 22.4261 139.756 14 128.102 14C116.447 14 107 22.4261 107 32.8203C107 40.3793 111.996 46.8974 119.204 49.8909V50.0952C119.204 51.0934 118.85 52.0591 118.203 52.8197C117.965 53.0999 118.264 53.511 118.604 53.3708L120.692 52.5098C121.635 52.1209 122.554 51.677 123.444 51.1807C124.943 51.4818 126.501 51.6406 128.102 51.6406Z" fill="url(#paint6_linear_1485_25537)"/>
</g>
<circle cx="119" cy="33" r="2" fill="white"/>
<circle cx="128" cy="33" r="2" fill="white"/>
<circle cx="137" cy="33" r="2" fill="white"/>
<path d="M38.7057 133.648C38.7057 135.645 40.8385 137.531 43.19 137.955L42.5885 139.035C40.6334 138.611 38.8287 137.326 38.0357 135.604C37.2291 137.312 35.4313 138.598 33.4693 139.035L32.8951 137.955C35.2193 137.518 37.3385 135.645 37.3385 133.648V132.719H38.7057V133.648ZM43.6959 141.469V142.549H32.485V141.469H43.6959ZM54.5175 131.912V144.189H53.2323V137.504H50.7987V136.438H53.2323V131.912H54.5175ZM50.5936 133.006V134.059H46.1776V136.438H50.0741V137.477H46.1776V140.211C48.2284 140.204 49.6503 140.156 51.2772 139.869L51.4139 140.922C49.6366 141.209 48.0917 141.277 45.8222 141.291H44.8651V133.006H50.5936ZM66.2687 131.912V144.189H64.9699V131.912H66.2687ZM62.7687 133.047V134.127H58.216V140.074C60.5402 140.067 62.0236 140.006 63.7531 139.691L63.8898 140.771C62.0578 141.1 60.4582 141.182 57.9152 141.182H56.9035V133.047H62.7687ZM74.5544 132.322C76.4001 132.336 77.7536 133.471 77.7673 135.07C77.7536 136.684 76.4001 137.805 74.5544 137.805C72.695 137.805 71.3279 136.684 71.3279 135.07C71.3279 133.471 72.695 132.336 74.5544 132.322ZM74.5544 133.416C73.4197 133.402 72.5857 134.072 72.5993 135.07C72.5857 136.082 73.4197 136.752 74.5544 136.752C75.6755 136.752 76.5095 136.082 76.5095 135.07C76.5095 134.072 75.6755 133.402 74.5544 133.416ZM81.24 131.912V138.146H79.9411V131.912H81.24ZM81.24 138.707V141.797H74.4861V142.973H81.6501V144.012H73.2282V140.826H79.9548V139.746H73.1872V138.707H81.24ZM93.1143 131.912V139.199H91.8154V136.096H89.5322V135.029H91.8154V131.912H93.1143ZM89.0127 139.541C91.583 139.541 93.1553 140.389 93.1553 141.852C93.1553 143.314 91.583 144.148 89.0127 144.162C86.4424 144.148 84.8564 143.314 84.8701 141.852C84.8564 140.389 86.4424 139.541 89.0127 139.541ZM89.0127 140.553C87.2217 140.553 86.1553 141.018 86.1553 141.852C86.1553 142.672 87.2217 143.15 89.0127 143.137C90.8037 143.15 91.8701 142.672 91.8701 141.852C91.8701 141.018 90.8037 140.553 89.0127 140.553ZM87.29 134.072C87.29 135.631 88.3975 137.135 90.2432 137.764L89.5732 138.789C88.1992 138.311 87.1875 137.333 86.6611 136.123C86.1211 137.497 85.0479 138.598 83.585 139.131L82.9014 138.092C84.8018 137.436 85.9639 135.781 85.9639 134.086V133.812H83.3115V132.76H89.915V133.812H87.29V134.072ZM104.866 131.912V144.189H103.567V131.912H104.866ZM98.3167 132.828C100.135 132.828 101.475 134.496 101.475 137.121C101.475 139.76 100.135 141.428 98.3167 141.428C96.471 141.428 95.1448 139.76 95.1448 137.121C95.1448 134.496 96.471 132.828 98.3167 132.828ZM98.3167 133.99C97.1819 133.99 96.4026 135.193 96.4026 137.121C96.4026 139.062 97.1819 140.266 98.3167 140.266C99.4378 140.266 100.217 139.062 100.217 137.121C100.217 135.193 99.4378 133.99 98.3167 133.99ZM112.29 139.09V140.512H114.204V139.09H115.407V144.012H111.073V139.09H112.29ZM112.29 143H114.204V141.496H112.29V143ZM118.962 140.006C118.962 141.291 119.673 142.59 121.19 143.123L120.52 144.107C119.413 143.684 118.695 142.884 118.319 141.906C117.909 142.863 117.184 143.67 116.132 144.107L115.475 143.123C116.952 142.521 117.677 141.223 117.677 140.006V139.008H118.962V140.006ZM113.069 132.432C114.682 132.432 115.927 133.348 116.2 134.715H118.593V131.912H119.891V138.406H118.593V135.781H116.214C115.947 137.189 114.696 138.105 113.069 138.105C111.196 138.105 109.856 136.957 109.856 135.262C109.856 133.594 111.196 132.432 113.069 132.432ZM113.069 133.512C111.907 133.512 111.1 134.223 111.1 135.262C111.1 136.314 111.907 137.039 113.069 137.053C114.204 137.039 115.011 136.314 115.011 135.262C115.011 134.223 114.204 133.512 113.069 133.512ZM124.82 132.828C126.482 132.828 127.698 134.236 127.897 136.506H130.426V131.912H131.711V144.189H130.426V137.559H127.91C127.767 139.944 126.523 141.428 124.82 141.428C122.988 141.428 121.703 139.76 121.717 137.121C121.703 134.496 122.988 132.828 124.82 132.828ZM124.82 133.99C123.713 133.99 122.947 135.193 122.947 137.121C122.947 139.062 123.713 140.266 124.82 140.266C125.928 140.266 126.693 139.062 126.693 137.121C126.693 135.193 125.928 133.99 124.82 133.99ZM144.529 141.551V142.631H133.318V141.551H135.997V138.352C134.993 137.798 134.384 136.916 134.384 135.822C134.384 133.895 136.271 132.623 138.896 132.623C141.535 132.623 143.421 133.895 143.421 135.822C143.421 136.902 142.833 137.771 141.849 138.324V141.551H144.529ZM138.896 133.662C136.968 133.662 135.642 134.496 135.642 135.822C135.642 137.135 136.968 137.996 138.896 137.996C140.81 137.996 142.163 137.135 142.163 135.822C142.163 134.496 140.81 133.662 138.896 133.662ZM137.283 141.551H140.537V138.816C140.037 138.946 139.484 139.008 138.896 139.008C138.322 139.008 137.775 138.946 137.283 138.83V141.551Z" fill="#CCCCCC"/>
<defs>
<filter id="filter0_bi_1485_25537" x="104" y="96" width="21.4082" height="25.6543" filterUnits="userSpaceOnUse" color-interpolation-filters="sRGB">
<feFlood flood-opacity="0" result="BackgroundImageFix"/>
<feGaussianBlur in="BackgroundImageFix" stdDeviation="2.5"/>
<feComposite in2="SourceAlpha" operator="in" result="effect1_backgroundBlur_1485_25537"/>
<feBlend mode="normal" in="SourceGraphic" in2="effect1_backgroundBlur_1485_25537" result="shape"/>
<feColorMatrix in="SourceAlpha" type="matrix" values="0 0 0 0 0 0 0 0 0 0 0 0 0 0 0 0 0 0 127 0" result="hardAlpha"/>
<feOffset dy="-0.5"/>
<feGaussianBlur stdDeviation="0.25"/>
<feComposite in2="hardAlpha" operator="arithmetic" k2="-1" k3="1"/>
<feColorMatrix type="matrix" values="0 0 0 0 1 0 0 0 0 1 0 0 0 0 1 0 0 0 0.6 0"/>
<feBlend mode="normal" in2="shape" result="effect2_innerShadow_1485_25537"/>
</filter>
<filter id="filter1_i_1485_25537" x="38" y="37" width="51" height="70" filterUnits="userSpaceOnUse" color-interpolation-filters="sRGB">
<feFlood flood-opacity="0" result="BackgroundImageFix"/>
<feBlend mode="normal" in="SourceGraphic" in2="BackgroundImageFix" result="shape"/>
<feColorMatrix in="SourceAlpha" type="matrix" values="0 0 0 0 0 0 0 0 0 0 0 0 0 0 0 0 0 0 127 0" result="hardAlpha"/>
<feOffset dy="-1"/>
<feComposite in2="hardAlpha" operator="arithmetic" k2="-1" k3="1"/>
<feColorMatrix type="matrix" values="0 0 0 0 1 0 0 0 0 1 0 0 0 0 1 0 0 0 0.6 0"/>
<feBlend mode="normal" in2="shape" result="effect1_innerShadow_1485_25537"/>
</filter>
<filter id="filter2_i_1485_25537" x="89" y="37" width="51" height="70" filterUnits="userSpaceOnUse" color-interpolation-filters="sRGB">
<feFlood flood-opacity="0" result="BackgroundImageFix"/>
<feBlend mode="normal" in="SourceGraphic" in2="BackgroundImageFix" result="shape"/>
<feColorMatrix in="SourceAlpha" type="matrix" values="0 0 0 0 0 0 0 0 0 0 0 0 0 0 0 0 0 0 127 0" result="hardAlpha"/>
<feOffset dy="-1"/>
<feComposite in2="hardAlpha" operator="arithmetic" k2="-1" k3="1"/>
<feColorMatrix type="matrix" values="0 0 0 0 1 0 0 0 0 1 0 0 0 0 1 0 0 0 0.6 0"/>
<feBlend mode="normal" in2="shape" result="effect1_innerShadow_1485_25537"/>
</filter>
<filter id="filter3_bi_1485_25537" x="95.5937" y="2.59374" width="65.0156" height="62.2119" filterUnits="userSpaceOnUse" color-interpolation-filters="sRGB">
<feFlood flood-opacity="0" result="BackgroundImageFix"/>
<feGaussianBlur in="BackgroundImageFix" stdDeviation="5.70313"/>
<feComposite in2="SourceAlpha" operator="in" result="effect1_backgroundBlur_1485_25537"/>
<feBlend mode="normal" in="SourceGraphic" in2="effect1_backgroundBlur_1485_25537" result="shape"/>
<feColorMatrix in="SourceAlpha" type="matrix" values="0 0 0 0 0 0 0 0 0 0 0 0 0 0 0 0 0 0 127 0" result="hardAlpha"/>
<feOffset dy="-1.14063"/>
<feGaussianBlur stdDeviation="0.570313"/>
<feComposite in2="hardAlpha" operator="arithmetic" k2="-1" k3="1"/>
<feColorMatrix type="matrix" values="0 0 0 0 1 0 0 0 0 1 0 0 0 0 1 0 0 0 0.25 0"/>
<feBlend mode="normal" in2="shape" result="effect2_innerShadow_1485_25537"/>
</filter>
<linearGradient id="paint0_linear_1485_25537" x1="89.5" y1="42" x2="89.5" y2="113.5" gradientUnits="userSpaceOnUse">
<stop stop-color="#999999"/>
<stop offset="1" stop-color="#545454"/>
</linearGradient>
<linearGradient id="paint1_linear_1485_25537" x1="89.5" y1="42" x2="89.5" y2="113.5" gradientUnits="userSpaceOnUse">
<stop stop-color="#777777"/>
<stop offset="1" stop-color="#666666"/>
</linearGradient>
<linearGradient id="paint2_linear_1485_25537" x1="89" y1="38.5801" x2="89" y2="109.5" gradientUnits="userSpaceOnUse">
<stop stop-color="#D0CCC6"/>
<stop offset="1" stop-color="#949089"/>
</linearGradient>
<linearGradient id="paint3_linear_1485_25537" x1="115" y1="104" x2="115" y2="111.8" gradientUnits="userSpaceOnUse">
<stop stop-color="#FFB980" stop-opacity="0.9"/>
<stop offset="1" stop-color="#FFB980"/>
</linearGradient>
<linearGradient id="paint4_linear_1485_25537" x1="38" y1="65" x2="89.1145" y2="77.5329" gradientUnits="userSpaceOnUse">
<stop offset="0.392163" stop-color="#FAF7F5"/>
<stop offset="1" stop-color="#EDE8E4"/>
</linearGradient>
<linearGradient id="paint5_linear_1485_25537" x1="89" y1="62" x2="144.913" y2="71.511" gradientUnits="userSpaceOnUse">
<stop offset="0.314903" stop-color="#FCFAF7"/>
<stop offset="1" stop-color="#EDE8E4"/>
</linearGradient>
<linearGradient id="paint6_linear_1485_25537" x1="114.915" y1="18.9459" x2="131.763" y2="45.9974" gradientUnits="userSpaceOnUse">
<stop stop-color="#5E5E5E" stop-opacity="0.2"/>
<stop offset="1" stop-color="#414141" stop-opacity="0.3"/>
</linearGradient>
</defs>
</svg>
