<svg width="22" height="22" viewBox="0 0 22 22" fill="none" xmlns="http://www.w3.org/2000/svg">
<g id="icon/alert">
<path id="Icon (Stroke)" fill-rule="evenodd" clip-rule="evenodd" d="M11 4.26296C7.27895 4.26296 4.26247 7.27944 4.26247 11.0005C4.26247 14.7215 7.27895 17.738 11 17.738C14.721 17.738 17.7375 14.7215 17.7375 11.0005C17.7375 7.27944 14.721 4.26296 11 4.26296ZM3.0708 11.0005C3.0708 6.6213 6.62081 3.07129 11 3.07129C15.3791 3.07129 18.9291 6.6213 18.9291 11.0005C18.9291 15.3796 15.3791 18.9296 11 18.9296C6.62081 18.9296 3.0708 15.3796 3.0708 11.0005ZM11 6.73796C11.329 6.73796 11.5958 7.00472 11.5958 7.33379V11.0005C11.5958 11.3295 11.329 11.5963 11 11.5963C10.6709 11.5963 10.4041 11.3295 10.4041 11.0005V7.33379C10.4041 7.00472 10.6709 6.73796 11 6.73796ZM11 13.1224C11.329 13.1224 11.5958 13.3892 11.5958 13.7182V13.7505C11.5958 14.0795 11.329 14.3463 11 14.3463C10.6709 14.3463 10.4041 14.0795 10.4041 13.7505V13.7182C10.4041 13.3892 10.6709 13.1224 11 13.1224Z" fill="#F43434"/>
</g>
</svg>
