<svg width="32" height="32" viewBox="0 0 32 32" fill="none" xmlns="http://www.w3.org/2000/svg">
<path d="M16.4624 22.7104L8.61749 16.7899L6.59091 19.4751L6.20359 26.7328C6.16753 27.4084 6.92277 27.9784 7.56261 27.7584L14.4358 25.3957L16.4624 22.7104Z" fill="url(#paint0_linear_2780_51409)"/>
<path d="M16.5546 6.27134L19.1696 8.24485L9.20559 21.4475L8.73821 20.7562C8.41259 20.2745 7.93604 19.9149 7.38358 19.7338L6.59091 19.4751L16.5546 6.27134Z" fill="#FFCFA7"/>
<path d="M19.1696 8.24485L21.7846 10.2183L11.8206 23.4209L11.3532 22.7296C11.0276 22.248 10.5511 21.8883 9.99861 21.7073L9.20559 21.4475L19.1696 8.24485Z" fill="#FFAF6D"/>
<path d="M21.7846 10.2183L24.3995 12.1916L14.4355 25.3942L13.9681 24.7029C13.6425 24.2213 13.166 23.8616 12.6135 23.6806L11.8206 23.4209L21.7846 10.2183Z" fill="#FF9945"/>
<path d="M17.4983 5.02077C18.2828 3.9812 19.7616 3.77447 20.8012 4.55904L24.8814 7.63841C25.921 8.42298 26.1277 9.90173 25.3432 10.9413L24.3995 12.1916L16.5546 6.27134L17.4983 5.02077Z" fill="url(#paint1_linear_2780_51409)"/>
<path d="M6.28479 25.2146L6.18476 27.0889C6.15505 27.6456 6.6981 28.0554 7.22526 27.8742L9.00033 27.264L6.28479 25.2146Z" fill="#1E1E1E"/>
<defs>
<linearGradient id="paint0_linear_2780_51409" x1="12.0743" y1="27.9176" x2="24.5102" y2="27.9176" gradientUnits="userSpaceOnUse">
<stop stop-color="#F7E3D4"/>
<stop offset="1" stop-color="#E1BEA3"/>
</linearGradient>
<linearGradient id="paint1_linear_2780_51409" x1="7.69873" y1="10.8996" x2="26.7874" y2="14.1037" gradientUnits="userSpaceOnUse">
<stop stop-color="#D8A27A"/>
<stop offset="1" stop-color="#725640"/>
</linearGradient>
</defs>
</svg>
