<svg width="16" height="16" viewBox="0 0 16 16" fill="none" xmlns="http://www.w3.org/2000/svg">
<g id="icon/book lined">
<path id="Vector 925 (Stroke)" fill-rule="evenodd" clip-rule="evenodd" d="M7.56683 4.75156L7.03291 4.48459C5.9631 3.94969 4.37056 3.94974 3.30075 4.48464L3.20016 4.53493V11.9532C4.4962 11.4465 6.28762 11.5074 7.5447 12.1359L7.56683 12.147V4.75156ZM8.4335 12.147V4.75156L8.96742 4.48459C10.0372 3.94969 11.597 3.99999 12.6668 4.53489L12.7674 4.58518V12.0034C11.4714 11.4967 9.71271 11.5074 8.45563 12.1359L8.4335 12.147ZM8.84321 12.9111C9.99121 12.3371 11.643 12.3874 12.791 12.9614C13.1784 13.155 13.6341 12.8734 13.6341 12.4403V4.46158C13.6341 4.20906 13.4914 3.97822 13.2656 3.86529L13.0544 3.75972C11.7406 3.10282 9.89363 3.05253 8.57983 3.70942L8.00016 3.99926L7.42049 3.70942C6.1067 3.05253 4.22696 3.05257 2.91317 3.70947L2.70202 3.81504C2.47616 3.92797 2.3335 4.15881 2.3335 4.41133V12.3901C2.3335 12.8231 2.78922 13.1048 3.17655 12.9111C4.32454 12.3371 6.00912 12.3371 7.15711 12.9111L8.00016 13.3326L8.84321 12.9111Z" fill="white"/>
</g>
</svg>
