<svg width="16" height="16" viewBox="0 0 16 16" fill="none" xmlns="http://www.w3.org/2000/svg">
<path fill-rule="evenodd" clip-rule="evenodd" d="M4.15779 4.15779C5.17674 3.13885 6.55873 2.56641 7.99974 2.56641C9.44075 2.56641 10.8227 3.13885 11.8417 4.15779C12.8606 5.17674 13.4331 6.55873 13.4331 7.99974C13.4331 8.71325 13.2925 9.41978 13.0195 10.079C12.7464 10.7382 12.3462 11.3372 11.8417 11.8417C11.3372 12.3462 10.7382 12.7464 10.079 13.0195C9.41978 13.2925 8.71325 13.4331 7.99974 13.4331C7.28622 13.4331 6.5797 13.2925 5.92049 13.0195C5.26129 12.7464 4.66232 12.3462 4.15779 11.8417C3.65326 11.3372 3.25304 10.7382 2.97999 10.079C2.70694 9.41978 2.56641 8.71325 2.56641 7.99974C2.56641 6.55873 3.13884 5.17674 4.15779 4.15779ZM7.99974 3.43307C6.78858 3.43307 5.62703 3.9142 4.77062 4.77062C3.9142 5.62703 3.43307 6.78858 3.43307 7.99974C3.43307 8.59944 3.55119 9.19327 3.78069 9.74733C4.01019 10.3014 4.34656 10.8048 4.77062 11.2289C5.19467 11.6529 5.6981 11.9893 6.25215 12.2188C6.8062 12.4483 7.40004 12.5664 7.99974 12.5664C8.59944 12.5664 9.19327 12.4483 9.74733 12.2188C10.3014 11.9893 10.8048 11.6529 11.2289 11.2289C11.6529 10.8048 11.9893 10.3014 12.2188 9.74733C12.4483 9.19327 12.5664 8.59944 12.5664 7.99974C12.5664 6.78858 12.0853 5.62703 11.2289 4.77062C10.3724 3.9142 9.21089 3.43307 7.99974 3.43307ZM7.99974 4.78863C8.23906 4.78863 8.43307 4.98264 8.43307 5.22196V7.82025L9.97282 9.35999C10.142 9.52922 10.142 9.80359 9.97282 9.97282C9.80359 10.142 9.52922 10.142 9.35999 9.97282L7.69333 8.30615C7.61206 8.22489 7.56641 8.11467 7.56641 7.99974V5.22196C7.56641 4.98264 7.76042 4.78863 7.99974 4.78863Z" fill="#4D4D4D"/>
</svg>
