<svg width="16" height="16" viewBox="0 0 16 16" fill="none" xmlns="http://www.w3.org/2000/svg">
<g id="icon/complete">
<path id="Icon (Stroke)" fill-rule="evenodd" clip-rule="evenodd" d="M2.2334 7.99909C2.2334 4.81425 4.81522 2.23242 8.00006 2.23242C11.1849 2.23242 13.7667 4.81425 13.7667 7.99909C13.7667 11.1839 11.1849 13.7658 8.00006 13.7658C4.81522 13.7658 2.2334 11.1839 2.2334 7.99909ZM8.00006 3.09909C5.29387 3.09909 3.10007 5.29289 3.10007 7.99909C3.10007 10.7053 5.29387 12.8991 8.00006 12.8991C10.7063 12.8991 12.9001 10.7053 12.9001 7.99909C12.9001 5.29289 10.7063 3.09909 8.00006 3.09909ZM10.1684 6.49741C10.3376 6.66664 10.3376 6.94101 10.1684 7.11024L7.63981 9.63883C7.47058 9.80806 7.19621 9.80806 7.02699 9.63883L6.16506 8.77691C5.99583 8.60768 5.99583 8.33331 6.16506 8.16408C6.33428 7.99485 6.60866 7.99485 6.77788 8.16408L7.3334 8.7196L9.55558 6.49741C9.72481 6.32819 9.99918 6.32819 10.1684 6.49741Z" fill="#333333"/>
</g>
</svg>
