<svg width="16" height="16" viewBox="0 0 16 16" fill="none" xmlns="http://www.w3.org/2000/svg">
<g id="icon/user lined">
<path id="Vector (Stroke)" fill-rule="evenodd" clip-rule="evenodd" d="M7.99976 7.46992C8.92625 7.46992 9.77754 6.6467 9.77754 5.50326C9.77754 4.35981 8.92625 3.53659 7.99976 3.53659C7.07327 3.53659 6.22198 4.35981 6.22198 5.50326C6.22198 6.6467 7.07327 7.46992 7.99976 7.46992ZM6.61042 8.90475C7.06088 8.80601 7.52728 8.75487 7.99976 8.75487C8.47224 8.75487 8.93864 8.80601 9.3891 8.90475C10.3715 9.12009 11.2781 9.56184 12.0067 10.1933C12.7044 10.798 13.2014 11.5442 13.4605 12.354C13.6849 13.0554 13.0695 13.666 12.3331 13.666L3.66643 13.666C2.93005 13.666 2.31466 13.0554 2.53903 12.354C2.7981 11.5442 3.29509 10.798 3.99282 10.1933C4.72143 9.56184 5.62803 9.12009 6.61042 8.90475ZM6.7418 7.9961C5.91607 7.51675 5.35532 6.58016 5.35532 5.50326C5.35532 3.93845 6.53927 2.66992 7.99976 2.66992C9.46025 2.66992 10.6442 3.93845 10.6442 5.50326C10.6442 6.58016 10.0834 7.51675 9.25772 7.9961C8.88362 8.21327 8.45513 8.33659 7.99976 8.33659C7.54439 8.33659 7.1159 8.21327 6.7418 7.9961ZM12.635 12.6181C12.4273 11.9686 12.0239 11.3551 11.4391 10.8482C10.5453 10.0736 9.30967 9.62153 7.99976 9.62153C6.68985 9.62153 5.45421 10.0736 4.56043 10.8482C3.97561 11.3551 3.57225 11.9686 3.36449 12.6181C3.3597 12.633 3.359 12.6417 3.35888 12.6449C3.35876 12.6481 3.35906 12.6499 3.35942 12.6514C3.36 12.6538 3.36402 12.6683 3.38456 12.6909C3.43048 12.7416 3.53123 12.7993 3.66643 12.7993L12.3331 12.7993C12.4683 12.7993 12.569 12.7416 12.615 12.6909C12.6355 12.6683 12.6395 12.6538 12.6401 12.6514C12.6405 12.6499 12.6408 12.6481 12.6406 12.6449C12.6405 12.6417 12.6398 12.633 12.635 12.6181Z" fill="#CCCCCC"/>
</g>
</svg>
